<?xml version="1.0" standalone="no"?>
<!DOCTYPE svg PUBLIC "-//W3C//DTD SVG 1.1//EN" "http://www.w3.org/Graphics/SVG/1.1/DTD/svg11.dtd" >
<svg xmlns="http://www.w3.org/2000/svg" xmlns:xlink="http://www.w3.org/1999/xlink" version="1.1">
<metadata>
Created by FontForge 20170731 at Mon Jul 20 19:35:29 2020
 By Aleksey,,,
2013 published by FontShop International GmbH
</metadata>
<defs>
<font id="MarkPro-Regular" horiz-adv-x="0" >
  <font-face 
    font-family="Mark Pro"
    font-weight="400"
    font-stretch="normal"
    units-per-em="2048"
    panose-1="2 11 5 4 2 1 1 1 1 2"
    ascent="1618"
    descent="-430"
    x-height="970"
    cap-height="1434"
    bbox="-1382 -488 3207 2259"
    underline-thickness="139"
    underline-position="-404"
    unicode-range="U+000D-FEFF"
  />
<missing-glyph horiz-adv-x="1229" 
d="M179 1434h872v-1434h-872v1434zM911 139v1155h-593v-1155h593z" />
    <glyph glyph-name=".notdef" horiz-adv-x="1229" 
d="M179 1434h872v-1434h-872v1434zM911 139v1155h-593v-1155h593z" />
    <glyph glyph-name=".null" 
 />
    <glyph glyph-name=".null" 
 />
    <glyph glyph-name="nonmarkingreturn" horiz-adv-x="682" 
 />
    <glyph glyph-name="CR" unicode="&#xd;" horiz-adv-x="546" 
 />
    <glyph glyph-name="space" unicode=" " horiz-adv-x="546" 
 />
    <glyph glyph-name="exclam" unicode="!" horiz-adv-x="536" 
d="M337 456h-138l-25 978h187zM268 239q52 0 90 -38t38 -90t-38 -90.5t-90 -38.5t-90 38.5t-38 90.5t38 90t90 38z" />
    <glyph glyph-name="quotedbl" unicode="&#x22;" horiz-adv-x="1074" 
d="M442 1475v-520h-152v520h152zM784 1475v-520h-152v520h152z" />
    <glyph glyph-name="numbersign" unicode="#" horiz-adv-x="1500" 
d="M504 1057l80 377h142l-80 -377h354l80 377h143l-80 -377h233l-29 -136h-234l-85 -401h233l-29 -136h-233l-81 -384h-143l82 384h-354l-82 -384h-142l81 384h-236l30 136h235l85 401h-235l28 136h237zM531 520h355l85 401h-355z" />
    <glyph glyph-name="dollar" unicode="$" horiz-adv-x="1433" 
d="M801 1618v-195q247 -16 445 -150l-81 -128q-161 111 -364 128v-486l33 -4q95 -12 171 -38.5t136 -70t92 -109t31 -148.5q-1 -90 -37 -163.5t-99.5 -123t-146 -80t-180.5 -39.5v-202h-142v200q-135 9 -268 55.5t-221 116.5l85 126q68 -55 179 -97t225 -51v490l-37 5
q-193 25 -303 116.5t-109 252.5q2 170 127 275t322 124v196h142zM371 1027q-1 -90 69 -145t219 -78v468q-130 -14 -208.5 -79.5t-79.5 -165.5zM1105 410q1 89 -76.5 144t-227.5 79v-472q137 15 220 78.5t84 170.5z" />
    <glyph glyph-name="percent" unicode="%" horiz-adv-x="1984" 
d="M474 1453q162 0 270.5 -106.5t108.5 -264.5q0 -160 -108.5 -266t-270.5 -106q-160 0 -267.5 106.5t-107.5 265.5q0 158 107.5 264.5t267.5 106.5zM620 0h-160l904 1434h160zM474 1318q-99 0 -165 -67t-66 -169q0 -103 66 -170t165 -67q102 0 168.5 66.5t66.5 170.5
q0 102 -66.5 169t-168.5 67zM1506 724q162 0 270.5 -107t108.5 -265q0 -159 -108.5 -265t-270.5 -106q-160 0 -267 106t-107 265q0 158 107 265t267 107zM1506 589q-99 0 -165 -67t-66 -170t66 -169.5t165 -66.5q102 0 169 66.5t67 169.5t-67 170t-169 67z" />
    <glyph glyph-name="ampersand" unicode="&#x26;" horiz-adv-x="1439" 
d="M1182 0l-218 212q-88 -108 -194 -169.5t-248 -61.5q-188 0 -298 96t-110 262q0 67 22 127.5t65.5 113.5t87 93.5t106.5 87.5q-114 112 -162 191t-48 178q0 136 102 229.5t260 93.5t258 -88.5t100 -225.5q0 -59 -21.5 -113t-65 -103t-85.5 -85t-106 -83l321 -313l222 332
l123 -78l-237 -358l347 -338h-221zM350 1121q0 -62 35 -114t138 -153q108 79 163.5 142.5t55.5 135.5q0 79 -53.5 128t-141.5 49q-89 0 -143 -52.5t-54 -135.5zM531 125q101 0 176.5 46.5t149.5 142.5l-358 346q-106 -80 -163.5 -153.5t-57.5 -162.5q0 -97 70 -158t183 -61z
" />
    <glyph glyph-name="quotesingle" unicode="'" horiz-adv-x="732" 
d="M442 1475v-520h-152v520h152z" />
    <glyph glyph-name="parenleft" unicode="(" horiz-adv-x="836" 
d="M754 1324q-201 -83 -321.5 -286.5t-120.5 -455.5t120.5 -455.5t321.5 -286.5l-54 -141q-248 95 -400 336t-152 547q0 307 151.5 547t400.5 335z" />
    <glyph glyph-name="parenright" unicode=")" horiz-adv-x="836" 
d="M83 -159q201 83 321 287t120 456t-120 455t-321 286l53 141q248 -95 400 -335.5t152 -546.5q0 -307 -152 -547.5t-400 -335.5z" />
    <glyph glyph-name="asterisk" unicode="*" horiz-adv-x="918" 
d="M401 1199v276h117v-276l261 86l36 -113l-261 -85l162 -222l-95 -68l-162 222l-161 -222l-95 68l162 222l-262 85l36 113z" />
    <glyph glyph-name="plus" unicode="+" horiz-adv-x="1228" 
d="M542 98v374h-373v139h373v377h142v-377h376v-139h-376v-374h-142z" />
    <glyph glyph-name="comma" unicode="," horiz-adv-x="505" 
d="M370 254l-108 -519h-132l61 519h179z" />
    <glyph glyph-name="hyphen" unicode="-" horiz-adv-x="858" 
d="M714 472h-570v139h570v-139z" />
    <glyph glyph-name="period" unicode="." horiz-adv-x="535" 
d="M268 238q52 0 90 -38t38 -90t-38 -90.5t-90 -38.5t-90 38.5t-38 90.5t38 90t90 38z" />
    <glyph glyph-name="slash" unicode="/" horiz-adv-x="1015" 
d="M160 -205h-169l869 1782h169z" />
    <glyph glyph-name="zero" unicode="0" horiz-adv-x="1453" 
d="M726 1452q123 0 231 -51t188.5 -143.5t127 -232.5t46.5 -308t-46.5 -308t-127 -232.5t-188.5 -143.5t-231 -51q-122 0 -230 51t-188.5 143.5t-127 232.5t-46.5 308t46.5 308t127 232.5t188.5 143.5t230 51zM726 1300q-183 0 -304.5 -155.5t-121.5 -427.5t121.5 -428
t304.5 -156q185 0 306.5 155.5t121.5 428.5t-121.5 428t-306.5 155z" />
    <glyph glyph-name="one" unicode="1" horiz-adv-x="864" 
d="M649 0h-157v1222l-424 -184v165l581 248v-1451z" />
    <glyph glyph-name="two" unicode="2" horiz-adv-x="1125" 
d="M87 1214q162 238 439 238q213 0 335.5 -124t122.5 -319q0 -120 -52.5 -217t-139.5 -189l-428 -452h667v-151h-902v124l542 571q147 154 147 314q0 128 -79 210.5t-218 82.5q-77 0 -140.5 -27t-101.5 -63t-77 -90z" />
    <glyph glyph-name="three" unicode="3" horiz-adv-x="1139" 
d="M519 1452q212 0 343 -109t131 -283q0 -123 -59.5 -207t-164.5 -129q118 -43 187 -130t69 -210q0 -99 -41 -177t-111 -126.5t-157 -73.5t-184 -25q-148 0 -266.5 49t-197.5 139l101 105q67 -69 161 -107.5t199 -38.5q142 0 236.5 67.5t94.5 194.5q0 120 -99 190t-247 70
h-188v145h187q138 0 226.5 66.5t88.5 189.5q0 114 -90 183.5t-228 69.5q-101 0 -183 -45.5t-133 -117.5l-114 97q66 97 178 155t261 58z" />
    <glyph glyph-name="four" unicode="4" horiz-adv-x="1179" 
d="M881 451h244v-150h-244v-301h-158v301h-670v122l536 1010h179l-525 -982h480v399h158v-399z" />
    <glyph glyph-name="five" unicode="5" horiz-adv-x="1183" 
d="M997 1284h-632l-14 -424h211q123 0 220 -33.5t157.5 -92t92 -134t31.5 -162.5q0 -107 -38.5 -194.5t-105.5 -144.5t-156 -87.5t-191 -30.5q-301 0 -485 223l106 102q69 -83 169 -129t210 -46q153 0 240 83.5t87 210.5q0 128 -93 207t-292 79h-312l18 723h777v-150z" />
    <glyph glyph-name="six" unicode="6" horiz-adv-x="1184" 
d="M435 873q77 41 181 41q132 0 242.5 -60.5t175 -168t64.5 -238.5q0 -200 -144.5 -332.5t-363.5 -132.5t-364 132.5t-145 332.5q0 152 106 318l427 669h193zM590 768q-150 0 -247.5 -90.5t-98.5 -230.5q0 -139 98 -229t248 -90t247.5 90t97.5 229q0 140 -97.5 230.5
t-247.5 90.5z" />
    <glyph glyph-name="seven" unicode="7" horiz-adv-x="1121" 
d="M1054 1310l-648 -1310h-185l642 1284h-782v150h973v-124z" />
    <glyph glyph-name="eight" unicode="8" horiz-adv-x="1291" 
d="M645 1452q138 0 250 -45t180 -135.5t68 -211.5q0 -125 -68.5 -209t-181.5 -127q128 -42 206 -127.5t78 -214.5q0 -124 -72.5 -216.5t-192 -138.5t-267.5 -46t-267.5 46t-191.5 138.5t-72 216.5q0 129 77.5 214.5t205.5 127.5q-113 43 -181.5 127t-68.5 209
q0 121 68 211.5t180 135.5t250 45zM645 1305q-142 0 -236.5 -67t-94.5 -186q0 -124 94 -192t237 -68t237 68t94 192q0 119 -94.5 186t-236.5 67zM645 653q-158 0 -261 -69t-103 -193q0 -125 103.5 -194t260.5 -69t260.5 69t103.5 194q0 124 -103.5 193t-260.5 69z" />
    <glyph glyph-name="nine" unicode="9" horiz-adv-x="1184" 
d="M728 542q-71 -23 -147 -23q-213 0 -353.5 133t-140.5 334q0 200 144.5 333t363.5 133t364 -133t145 -333q0 -150 -107 -317l-427 -669h-192zM595 666q150 0 247.5 90t97.5 230q0 139 -97.5 229.5t-247.5 90.5q-149 0 -247 -90.5t-98 -229.5t97.5 -229.5t247.5 -90.5z" />
    <glyph glyph-name="colon" unicode=":" horiz-adv-x="535" 
d="M268 989q52 0 90 -38t38 -90t-38 -90.5t-90 -38.5t-90 38.5t-38 90.5t38 90t90 38zM268 239q52 0 90 -38t38 -90t-38 -90.5t-90 -38.5t-90 38.5t-38 90.5t38 90t90 38z" />
    <glyph glyph-name="semicolon" unicode=";" horiz-adv-x="505" 
d="M263 989q52 0 90 -38t38 -90t-38 -90.5t-90 -38.5t-90 38.5t-38 90.5t38 90t90 38zM370 254l-108 -519h-132l61 519h179z" />
    <glyph glyph-name="less" unicode="&#x3c;" horiz-adv-x="1228" 
d="M1018 86l-806 381v150l806 381v-162l-651 -293l651 -294v-163z" />
    <glyph glyph-name="equal" unicode="=" horiz-adv-x="1228" 
d="M1060 662h-891v139h891v-139zM1060 283h-891v139h891v-139z" />
    <glyph glyph-name="greater" unicode="&#x3e;" horiz-adv-x="1228" 
d="M212 998l806 -381v-150l-806 -381v163l651 293l-651 294v162z" />
    <glyph glyph-name="question" unicode="?" horiz-adv-x="884" 
d="M215 456v321h66q175 0 273.5 70.5t98.5 196.5q0 118 -98.5 185.5t-267.5 67.5q-50 0 -141 -7l-13 157q83 11 162 11q243 0 385.5 -110.5t142.5 -295.5q0 -177 -120.5 -285.5t-341.5 -131.5l-8 -179h-138zM285 238q51 0 89 -38t38 -90t-38 -90.5t-89 -38.5
q-52 0 -90.5 38.5t-38.5 90.5t38.5 90t90.5 38z" />
    <glyph glyph-name="at" unicode="@" horiz-adv-x="2023" 
d="M1398 432q0 -110 30 -161t92 -51q86 0 138 84.5t52 242.5q0 194 -91.5 347t-250.5 236.5t-357 83.5q-197 0 -356.5 -90t-251 -251t-91.5 -361q0 -203 91.5 -365.5t251 -253.5t356.5 -91q238 0 442 140l72 -99q-223 -164 -514 -164q-178 0 -334 64t-266.5 174.5t-174 265
t-63.5 329.5q0 173 63.5 326t174 262.5t266.5 173t334 63.5t334 -60t266.5 -164t174 -251t63.5 -315q0 -196 -91 -322t-246 -126q-92 0 -149.5 41t-80.5 112q-105 -149 -302 -149q-167 0 -280 116.5t-113 292.5t113 292.5t280 116.5q185 0 288 -138v122h130v-473zM997 797
q-121 0 -198 -81.5t-77 -203.5t77 -203.5t198 -81.5t199 81t78 204t-78 204t-199 81z" />
    <glyph glyph-name="A" unicode="A" horiz-adv-x="1455" 
d="M1418 0h-176l-163 399h-709l-162 -399h-171l589 1434h203zM433 555h584l-292 716z" />
    <glyph glyph-name="B" unicode="B" horiz-adv-x="1435" 
d="M762 1434q116 0 208.5 -21t163 -65.5t108.5 -118t38 -173.5q0 -118 -58 -200.5t-158 -117.5q112 -37 179.5 -124t67.5 -216q0 -202 -138 -300t-385 -98h-581v1434h555zM372 1279v-475h385q80 0 139.5 10.5t109 36t75.5 74t26 118.5q0 55 -18 96.5t-48.5 67.5t-76 42.5
t-95.5 23t-113 6.5h-384zM372 650v-495h409q174 0 265.5 55.5t91.5 192.5q0 135 -92 191t-265 56h-409z" />
    <glyph glyph-name="C" unicode="C" horiz-adv-x="1566" 
d="M864 1454q187 0 343.5 -79.5t241.5 -217.5l-137 -92q-71 107 -189 168.5t-259 61.5q-160 0 -289 -72t-203.5 -204.5t-74.5 -301.5t74.5 -302t203.5 -205t289 -72q141 0 258 61t190 169l133 -99q-90 -135 -243.5 -212t-337.5 -77q-158 0 -295 55t-235 151.5t-154 234
t-56 296.5t56 296.5t154 234t235 151.5t295 55z" />
    <glyph glyph-name="D" unicode="D" horiz-adv-x="1636" 
d="M746 1434q351 0 558 -194.5t207 -522.5t-207 -522.5t-558 -194.5h-539v1434h539zM372 1278v-1122h374q285 0 438.5 151.5t153.5 409.5q0 259 -153.5 410t-438.5 151h-374z" />
    <glyph glyph-name="E" unicode="E" horiz-adv-x="1380" 
d="M1215 0h-1008v1434h999v-155h-834v-480h809v-154h-809v-490h843v-155z" />
    <glyph glyph-name="F" unicode="F" horiz-adv-x="1323" 
d="M1160 644h-788v-644h-165v1434h992v-156h-827v-478h788v-156z" />
    <glyph glyph-name="G" unicode="G" horiz-adv-x="1678" 
d="M864 1454q168 0 312.5 -63.5t243.5 -177.5l-122 -116q-77 94 -189.5 146t-244.5 52q-160 0 -289 -72t-203.5 -204.5t-74.5 -301.5t74.5 -302t202 -205t283.5 -72q226 0 361 126t155 348h-446v154h624q2 -28 2 -42q0 -156 -48.5 -292t-137 -236t-220 -157.5t-290.5 -57.5
q-142 0 -273.5 50.5t-234 142.5t-164 233t-61.5 310q0 212 96.5 381t265.5 262.5t378 93.5z" />
    <glyph glyph-name="H" unicode="H" horiz-adv-x="1610" 
d="M372 800h867v634h165v-1434h-165v644h-867v-644h-165v1434h165v-634z" />
    <glyph glyph-name="I" unicode="I" horiz-adv-x="578" 
d="M372 0h-165v1434h165v-1434z" />
    <glyph glyph-name="J" unicode="J" horiz-adv-x="1177" 
d="M981 511q0 -125 -38 -226.5t-105 -167.5t-157.5 -101t-197.5 -35q-275 0 -442 201l111 113q126 -157 330 -157q155 0 245 100t90 289v907h164v-923z" />
    <glyph glyph-name="K" unicode="K" horiz-adv-x="1421" 
d="M542 643h-170v-643h-165v1434h165v-635h173l595 635h213l-674 -704l718 -730h-225z" />
    <glyph glyph-name="L" unicode="L" horiz-adv-x="1242" 
d="M1201 0h-994v1434h165v-1278h829v-156z" />
    <glyph glyph-name="M" unicode="M" horiz-adv-x="1914" 
d="M1708 0h-165v1249l-500 -1090h-173l-498 1082v-1241h-165v1434h250l500 -1084l500 1084h251v-1434z" />
    <glyph glyph-name="N" unicode="N" horiz-adv-x="1614" 
d="M1408 0h-148l-888 1151v-1151h-165v1434h148l888 -1151v1151h165v-1434z" />
    <glyph glyph-name="O" unicode="O" horiz-adv-x="1729" 
d="M864 1454q158 0 295.5 -55t235.5 -151.5t154 -234t56 -296.5t-56 -296.5t-154 -234t-235.5 -151.5t-295.5 -55t-295 55t-235 151.5t-154 234t-56 296.5t56 296.5t154 234t235 151.5t295 55zM864 1295q-160 0 -289 -72t-203.5 -204.5t-74.5 -301.5t74.5 -302t203.5 -205
t289 -72q120 0 225 42.5t181 117.5t119.5 183.5t43.5 235.5q0 169 -74.5 301.5t-204 204.5t-290.5 72z" />
    <glyph glyph-name="P" unicode="P" horiz-adv-x="1359" 
d="M372 577v-577h-165v1434h542q240 0 373 -113.5t133 -315.5t-132.5 -315t-373.5 -113h-377zM372 1278v-547h371q167 0 254 69t87 205t-87 204.5t-254 68.5h-371z" />
    <glyph glyph-name="Q" unicode="Q" horiz-adv-x="1729" 
d="M864 1454q158 0 295.5 -55t235.5 -151.5t154 -234t56 -296.5q0 -274 -160 -472l189 -245h-193l-108 134q-196 -154 -469 -154q-158 0 -295 55t-235 151.5t-154 234t-56 296.5t56 296.5t154 234t235 151.5t295 55zM864 1295q-160 0 -289 -72t-203.5 -204.5t-74.5 -301.5
t74.5 -302t203.5 -205t289 -72q217 0 368 126l-332 425h197l240 -307q96 146 96 335q0 169 -74.5 301.5t-204 204.5t-290.5 72z" />
    <glyph glyph-name="R" unicode="R" horiz-adv-x="1385" 
d="M769 1434q242 0 371.5 -105t129.5 -300q0 -186 -135 -295.5t-364 -109.5h-23l515 -624h-205l-505 624h-181v-624h-165v1434h562zM372 1279v-506h395q163 0 247.5 65.5t84.5 190.5q0 124 -85 187t-247 63h-395z" />
    <glyph glyph-name="S" unicode="S" horiz-adv-x="1378" 
d="M1143 1162q-197 134 -432 134q-165 0 -268 -69.5t-103 -189.5q0 -99 81.5 -155.5t249.5 -76.5l136 -17q74 -9 137.5 -26t122 -47.5t99 -71.5t64.5 -100t24 -131q0 -137 -78 -236.5t-204.5 -147t-284.5 -47.5q-155 0 -308 50t-255 134l90 131q79 -67 209 -113.5t263 -46.5
q174 0 285.5 68.5t111.5 192.5q0 102 -86.5 158.5t-260.5 76.5l-144 16q-195 22 -309 115.5t-114 263.5q0 132 73.5 230t195.5 146.5t274 48.5q290 0 515 -157z" />
    <glyph glyph-name="T" unicode="T" horiz-adv-x="1241" 
d="M1200 1278h-498v-1278h-163v1278h-498v156h1159v-156z" />
    <glyph glyph-name="U" unicode="U" horiz-adv-x="1553" 
d="M1367 561q0 -142 -46 -254t-127 -182.5t-187 -107t-231 -36.5t-231 36.5t-186.5 107t-126.5 182.5t-46 254v873h164v-861q0 -216 116.5 -325.5t309.5 -109.5t309.5 109.5t116.5 325.5v861h165v-873z" />
    <glyph glyph-name="V" unicode="V" horiz-adv-x="1427" 
d="M816 0h-204l-575 1434h175l504 -1270l505 1270h170z" />
    <glyph glyph-name="W" unicode="W" horiz-adv-x="2249" 
d="M1724 0h-202l-398 1214l-397 -1214h-202l-466 1434h172l397 -1248l405 1248h187l404 -1249l397 1249h169z" />
    <glyph glyph-name="X" unicode="X" horiz-adv-x="1399" 
d="M801 733l537 -733h-198l-442 607l-442 -607h-195l538 733l-513 701h199l416 -575l418 575h196z" />
    <glyph glyph-name="Y" unicode="Y" horiz-adv-x="1317" 
d="M742 601v-601h-163v603l-568 831h197l454 -680l453 680h192z" />
    <glyph glyph-name="Z" unicode="Z" horiz-adv-x="1345" 
d="M1219 1307l-876 -1151h879v-156h-1098v127l876 1151h-866v156h1085v-127z" />
    <glyph glyph-name="bracketleft" unicode="[" horiz-adv-x="770" 
d="M687 -269h-480v1703h480v-142h-322v-1420h322v-141z" />
    <glyph glyph-name="backslash" unicode="\" horiz-adv-x="1015" 
d="M-13 1577h169l869 -1782h-169z" />
    <glyph glyph-name="bracketright" unicode="]" horiz-adv-x="770" 
d="M83 1434h480v-1703h-480v141h323v1420h-323v142z" />
    <glyph glyph-name="asciicircum" unicode="^" horiz-adv-x="1228" 
d="M175 664l365 770h149l365 -770h-166l-276 610l-275 -610h-162z" />
    <glyph glyph-name="underscore" unicode="_" horiz-adv-x="959" 
d="M965 -279h-970v140h970v-140z" />
    <glyph glyph-name="grave" unicode="`" horiz-adv-x="961" 
d="M535 1118l-257 307h193l214 -307h-150z" />
    <glyph glyph-name="a" unicode="a" horiz-adv-x="1275" 
d="M1097 0h-153v144q-127 -163 -354 -163q-206 0 -345.5 143.5t-139.5 360.5t140 360.5t345 143.5q225 0 354 -164v145h153v-970zM608 846q-153 0 -250 -104t-97 -257t97.5 -257t249.5 -104q151 0 248 103t97 258t-97.5 258t-247.5 103z" />
    <glyph glyph-name="b" unicode="b" horiz-adv-x="1275" 
d="M686 989q205 0 344.5 -143.5t139.5 -360.5t-139.5 -360.5t-344.5 -143.5q-226 0 -353 162v-143h-154v1475h154v-649q128 163 353 163zM668 846q-151 0 -248 -103t-97 -258q0 -156 97 -258.5t248 -102.5q153 0 249.5 103.5t96.5 257.5q0 153 -97 257t-249 104z" />
    <glyph glyph-name="c" unicode="c" horiz-adv-x="1048" 
d="M607 989q108 0 201.5 -39t158.5 -113l-99 -104q-116 113 -265 113q-147 0 -244.5 -102.5t-97.5 -258.5q0 -157 97.5 -259t244.5 -102q151 0 268 114l96 -105q-66 -74 -159 -113t-201 -39q-222 0 -362 143t-140 361q0 217 140.5 360.5t361.5 143.5z" />
    <glyph glyph-name="d" unicode="d" horiz-adv-x="1275" 
d="M590 989q225 0 354 -164v650h153v-1475h-153v144q-127 -163 -354 -163q-206 0 -345.5 143.5t-139.5 360.5t140 360.5t345 143.5zM608 846q-153 0 -250 -104t-97 -257t97.5 -257t249.5 -104q151 0 248 103t97 258t-97.5 258t-247.5 103z" />
    <glyph glyph-name="e" unicode="e" horiz-adv-x="1147" 
d="M587 989q130 0 233.5 -63.5t162 -177.5t59.5 -260q0 -32 -3 -57h-777q16 -151 111 -233.5t232 -82.5q174 0 307 122l82 -105q-158 -151 -398 -151q-216 0 -353.5 139.5t-137.5 363.5q0 221 137 363t345 142zM584 853q-131 0 -216 -82t-104 -216h623q-14 136 -96.5 217
t-206.5 81z" />
    <glyph glyph-name="f" unicode="f" horiz-adv-x="883" 
d="M815 831h-386v-831h-154v831h-221v139h221v166q0 164 79.5 261t243.5 97q145 0 265 -73l-55 -128q-97 58 -200 58q-179 0 -179 -215v-166h386v-139z" />
    <glyph glyph-name="g" unicode="g" horiz-adv-x="1264" 
d="M586 989q224 0 346 -165v146h153v-903q0 -232 -141.5 -362t-371.5 -130q-117 0 -226 34.5t-182 95.5l67 123q150 -114 341 -114q162 0 261 90.5t99 255.5v100q-121 -165 -346 -165q-206 0 -343.5 140t-137.5 358t137.5 357t343.5 139zM603 846q-152 0 -247 -101.5
t-95 -251.5q0 -151 95 -253t247 -102q149 0 245.5 101.5t96.5 253.5q0 151 -96.5 252t-245.5 101z" />
    <glyph glyph-name="h" unicode="h" horiz-adv-x="1229" 
d="M333 835q57 80 142.5 117t181.5 37q181 0 293 -106.5t112 -281.5v-601h-153v551q0 138 -73.5 215.5t-205.5 77.5q-126 0 -211.5 -81.5t-85.5 -215.5v-547h-154v1475h154v-640z" />
    <glyph glyph-name="i" unicode="i" horiz-adv-x="512" 
d="M256 1422q45 0 77 -31.5t32 -76.5t-32 -76.5t-77 -31.5q-46 0 -77 31t-31 77t31 77t77 31zM333 0h-154v970h154v-970z" />
    <glyph glyph-name="j" unicode="j" horiz-adv-x="516" 
d="M259 1422q45 0 77 -31.5t32 -76.5t-32 -76.5t-77 -31.5q-46 0 -76.5 31t-30.5 77t30.5 77t76.5 31zM337 -160q0 -127 -65 -196t-177 -69q-78 0 -139 33l37 132q44 -21 89 -21q101 0 101 128v1123h154v-1130z" />
    <glyph glyph-name="k" unicode="k" horiz-adv-x="1083" 
d="M333 577h140l374 393h191l-440 -457l448 -513h-194l-380 437h-139v-437h-154v1475h154v-898z" />
    <glyph glyph-name="l" unicode="l" horiz-adv-x="512" 
d="M333 0h-154v1475h154v-1475z" />
    <glyph glyph-name="m" unicode="m" horiz-adv-x="1959" 
d="M1386 989q181 0 293.5 -106.5t112.5 -281.5v-601h-153v551q0 138 -73.5 215.5t-206.5 77.5q-126 0 -211.5 -81.5t-85.5 -215.5v-547h-153v551q0 138 -73.5 215.5t-205.5 77.5q-126 0 -211.5 -81.5t-85.5 -215.5v-547h-154v970h152v-139q56 82 142.5 120t183.5 38
q126 0 221.5 -54t142.5 -150q55 106 153.5 155t211.5 49z" />
    <glyph glyph-name="n" unicode="n" horiz-adv-x="1229" 
d="M657 989q181 0 293 -106.5t112 -281.5v-601h-153v551q0 138 -73.5 215.5t-205.5 77.5q-126 0 -211.5 -81.5t-85.5 -215.5v-547h-154v970h152v-139q56 82 142.5 120t183.5 38z" />
    <glyph glyph-name="o" unicode="o" horiz-adv-x="1231" 
d="M615 989q219 0 365 -144.5t146 -359.5q0 -216 -146 -360t-365 -144t-364.5 144t-145.5 360q0 106 39 199.5t106.5 160.5t162 105.5t202.5 38.5zM615 846q-152 0 -253 -102.5t-101 -258.5q0 -157 101 -259t253 -102t253.5 102t101.5 259q0 156 -101.5 258.5t-253.5 102.5z
" />
    <glyph glyph-name="p" unicode="p" horiz-adv-x="1275" 
d="M686 989q205 0 344.5 -143.5t139.5 -360.5t-139.5 -360.5t-344.5 -143.5q-226 0 -353 162v-553h-154v1380h154v-144q128 163 353 163zM668 846q-151 0 -248 -103t-97 -258q0 -156 97 -258.5t248 -102.5q153 0 249.5 103.5t96.5 257.5q0 153 -97 257t-249 104z" />
    <glyph glyph-name="q" unicode="q" horiz-adv-x="1275" 
d="M590 989q225 0 354 -164v145h153v-1380h-153v554q-127 -163 -354 -163q-206 0 -345.5 143.5t-139.5 360.5t140 360.5t345 143.5zM608 846q-153 0 -250 -104t-97 -257t97.5 -257t249.5 -104q151 0 248 103t97 258t-97.5 258t-247.5 103z" />
    <glyph glyph-name="r" unicode="r" horiz-adv-x="849" 
d="M618 989q109 0 179 -33l-37 -150q-71 39 -168 39q-115 0 -187.5 -83t-72.5 -219v-543h-153v970h152v-136q51 75 124.5 115t162.5 40z" />
    <glyph glyph-name="s" unicode="s" horiz-adv-x="1010" 
d="M830 764q-52 36 -139 63.5t-178 27.5q-104 0 -166.5 -41.5t-62.5 -111.5q0 -113 197 -136l115 -14q326 -43 326 -270q0 -138 -115.5 -219t-311.5 -81q-242 0 -405 123l71 115q136 -105 336 -105q125 0 196 40.5t71 115.5q0 118 -203 142l-116 13q-161 20 -240.5 89
t-79.5 179q0 136 105.5 215t281.5 79q111 0 212 -28.5t173 -76.5z" />
    <glyph glyph-name="t" unicode="t" horiz-adv-x="927" 
d="M838 831h-419v-489q0 -110 51.5 -164t140.5 -54q110 0 204 69l72 -116q-127 -96 -288 -96q-160 0 -246.5 89.5t-86.5 268.5v492h-212v139h212v308h153v-308h419v-139z" />
    <glyph glyph-name="u" unicode="u" horiz-adv-x="1216" 
d="M1049 404q0 -105 -36 -187t-97.5 -133t-140 -77t-167.5 -26q-90 0 -168 26t-139.5 77t-97 133t-35.5 187v566h153v-551q0 -145 78.5 -220t208.5 -75t208.5 75t78.5 220v551h154v-566z" />
    <glyph glyph-name="v" unicode="v" horiz-adv-x="1067" 
d="M624 -2h-180l-413 972h166l339 -816l338 816h162z" />
    <glyph glyph-name="w" unicode="w" horiz-adv-x="1746" 
d="M1250 159l292 811h159l-359 -970h-181l-290 806l-288 -806h-179l-358 970h163l290 -810l288 810h172z" />
    <glyph glyph-name="x" unicode="x" horiz-adv-x="1047" 
d="M622 497l390 -497h-188l-306 383l-303 -383h-179l389 496l-379 474h187l293 -368l294 368h180z" />
    <glyph glyph-name="y" unicode="y" horiz-adv-x="1079" 
d="M274 -414h-169l362 624l-445 760h171l361 -609l342 609h168z" />
    <glyph glyph-name="z" unicode="z" horiz-adv-x="1080" 
d="M946 858l-618 -720h627v-138h-830v111l625 720h-607v139h803v-112z" />
    <glyph glyph-name="braceleft" unicode="{" horiz-adv-x="874" 
d="M731 1292q-108 0 -169.5 -62t-54.5 -180l8 -138q7 -127 -47.5 -210.5t-161.5 -118.5q107 -35 161.5 -119t47.5 -211l-8 -137q-7 -118 55 -180.5t169 -62.5h61v-141h-61q-190 0 -290.5 104.5t-90.5 295.5l7 137q7 120 -56 181.5t-177 61.5v141q114 0 177 61.5t56 181.5
l-7 137q-10 191 90.5 296t290.5 105h61v-142h-61z" />
    <glyph glyph-name="bar" unicode="|" horiz-adv-x="732" 
d="M442 -271h-152v1705h152v-1705z" />
    <glyph glyph-name="braceright" unicode="}" horiz-adv-x="874" 
d="M143 -127q108 0 170 62.5t55 180.5l-9 137q-7 127 47.5 211t161.5 119q-107 35 -161.5 118.5t-47.5 210.5l9 138q7 118 -55 180t-170 62h-60v142h60q190 0 290.5 -105t90.5 -296l-7 -137q-7 -120 56.5 -181.5t177.5 -61.5v-141q-114 0 -177.5 -61.5t-56.5 -181.5l7 -137
q10 -191 -90.5 -295.5t-290.5 -104.5h-60v141h60z" />
    <glyph glyph-name="asciitilde" unicode="~" horiz-adv-x="1228" 
d="M1073 552q-58 -62 -121 -91.5t-149 -29.5q-80 0 -144.5 22t-122 44t-121.5 22q-48 0 -89 -20.5t-87 -64.5l-83 96q57 62 120 91.5t149 29.5q81 0 145 -22t121.5 -44t121.5 -22q48 0 89 20.5t87 64.5z" />
    <glyph glyph-name="uni00A0" unicode="&#xa0;" horiz-adv-x="546" 
 />
    <glyph glyph-name="exclamdown" unicode="&#xa1;" horiz-adv-x="536" 
d="M268 731q-52 0 -90 38t-38 90t38 90.5t90 38.5t90 -38.5t38 -90.5t-38 -90t-90 -38zM200 514h138l24 -978h-187z" />
    <glyph glyph-name="cent" unicode="&#xa2;" horiz-adv-x="1433" 
d="M837 1434v-216q202 -14 327 -150l-90 -99q-107 96 -237 109v-724q137 16 241 112l86 -100q-128 -137 -327 -151v-215h-142v221q-191 31 -307.5 167.5t-116.5 328.5t116 327.5t308 166.5v223h142zM422 717q0 -132 75.5 -227.5t197.5 -125.5v706q-122 -30 -197.5 -125.5
t-75.5 -227.5z" />
    <glyph glyph-name="sterling" unicode="&#xa3;" horiz-adv-x="1433" 
d="M1245 0h-1057v151h184v496h-184v139h184v141q0 128 38 229.5t104 165t152.5 97t186.5 33.5q240 0 376 -166l-116 -102q-93 118 -260 118q-145 0 -234.5 -98t-89.5 -289v-129h541v-139h-541v-496h716v-151z" />
    <glyph glyph-name="currency" unicode="&#xa4;" horiz-adv-x="1433" 
d="M299 1225l150 -149q121 89 270 89q150 0 269 -89l147 149l90 -90l-148 -148q91 -121 91 -270q0 -150 -90 -272l148 -146l-90 -90l-148 147q-119 -89 -269 -89q-151 0 -272 90l-147 -148l-89 90l147 147q-90 121 -90 271t89 269l-147 149zM719 392q134 0 228 94.5
t94 230.5q0 135 -94 229t-228 94q-136 0 -230 -94t-94 -229q0 -136 94 -230.5t230 -94.5z" />
    <glyph glyph-name="yen" unicode="&#xa5;" horiz-adv-x="1433" 
d="M1207 325h-406v-325h-158v325h-406v126h406v201h-406v126h337l-464 656h188l424 -608l418 608h185l-459 -656h341v-126h-406v-201h406v-126z" />
    <glyph glyph-name="brokenbar" unicode="&#xa6;" horiz-adv-x="732" 
d="M442 723h-152v711h152v-711zM442 -271h-152v710h152v-710z" />
    <glyph glyph-name="section" unicode="&#xa7;" horiz-adv-x="1340" 
d="M1082 1188q-179 122 -387 122q-149 0 -242.5 -57t-93.5 -154q0 -83 77.5 -128.5t232.5 -63.5l118 -13q85 -10 155 -32.5t127.5 -59.5t90 -95.5t32.5 -132.5q0 -168 -163 -263q141 -85 141 -239q0 -90 -41 -162t-112 -116.5t-162.5 -68t-196.5 -23.5q-144 0 -280 44
t-230 117l82 124q76 -60 189 -101t239 -41q157 0 256.5 55.5t100.5 158.5q0 157 -318 191l-129 14q-176 21 -281 100t-105 222q0 165 158 259q-137 85 -137 244q0 167 140 265t351 98q258 0 463 -139zM591 767q-50 5 -110 19q-68 -27 -105.5 -76t-37.5 -114
q0 -83 77.5 -128.5t231.5 -63.5l121 -13q68 -8 122 -22q69 27 107.5 76t38.5 117q0 154 -317 191z" />
    <glyph glyph-name="dieresis" unicode="&#xa8;" horiz-adv-x="975" 
d="M280 1375q45 0 76.5 -31.5t31.5 -77.5t-31.5 -77t-76.5 -31q-46 0 -77.5 31t-31.5 77t31.5 77.5t77.5 31.5zM695 1375q45 0 77 -31.5t32 -77.5q0 -45 -32 -76.5t-77 -31.5q-46 0 -76.5 31t-30.5 77t30.5 77.5t76.5 31.5z" />
    <glyph glyph-name="copyright" unicode="&#xa9;" horiz-adv-x="1948" 
d="M974 1544q168 0 321 -65t263 -174.5t175.5 -261t65.5 -318.5t-65.5 -319t-175.5 -262t-263 -175t-321 -65t-321 65t-263.5 175t-176 262t-65.5 319t65.5 318.5t176 261t263.5 174.5t321 65zM974 1409q-187 0 -345 -91.5t-249.5 -249t-91.5 -343.5q0 -140 54 -267
t146 -219t219 -146t267 -54q187 0 344.5 91.5t249.5 249.5t92 345q0 186 -92 343.5t-249.5 249t-344.5 91.5zM1232 905q-39 59 -101.5 92t-136.5 33q-124 0 -207.5 -86t-83.5 -219q0 -139 84 -222.5t207 -83.5q74 0 137 33t103 92l107 -84q-57 -82 -146.5 -128t-199.5 -46
q-188 0 -312 123.5t-124 315.5t124 315.5t312 123.5q110 0 203 -48t148 -134z" />
    <glyph glyph-name="ordfeminine" unicode="&#xaa;" horiz-adv-x="803" 
d="M382 1323q140 0 220.5 -72.5t80.5 -213.5v-405h-124v91q-95 -106 -238 -106q-110 0 -175 58.5t-65 151.5t74 147.5t205 54.5h196q-3 181 -188 181q-112 0 -202 -72l-50 97q116 88 266 88zM349 722q60 0 114.5 28t94.5 74v116h-179q-84 0 -125 -31t-41 -79q0 -46 36 -77
t100 -31z" />
    <glyph glyph-name="guillemotleft" unicode="&#xab;" horiz-adv-x="1045" 
d="M489 163h-163l-197 379l197 379h163l-195 -379zM895 163h-164l-196 379l196 379h164l-196 -379z" />
    <glyph glyph-name="logicalnot" unicode="&#xac;" horiz-adv-x="1228" 
d="M1060 151h-141v321h-750v139h891v-460z" />
    <glyph glyph-name="uni00AD" unicode="&#xad;" horiz-adv-x="858" 
d="M714 472h-570v139h570v-139z" />
    <glyph glyph-name="registered" unicode="&#xae;" horiz-adv-x="952" 
d="M477 1469q177 0 301 -122t124 -295q0 -171 -125 -294.5t-300 -123.5q-179 0 -303.5 123t-124.5 295q0 173 124 295t304 122zM477 726q134 0 228.5 95.5t94.5 230.5q0 136 -94 230t-229 94q-137 0 -231.5 -94t-94.5 -230t94.5 -231t231.5 -95zM502 1247q74 0 114.5 -33
t40.5 -91q0 -48 -32 -79t-91 -38l126 -147h-99l-118 146h-37v-146h-83v388h179zM406 1175v-104h95q71 0 71 52t-71 52h-95z" />
    <glyph glyph-name="macron" unicode="&#xaf;" horiz-adv-x="961" 
d="M175 1327h612v-124h-612v124z" />
    <glyph glyph-name="degree" unicode="&#xb0;" horiz-adv-x="814" 
d="M407 745q-149 0 -253.5 103.5t-104.5 251.5q0 147 104.5 250t253.5 103q148 0 252.5 -103t104.5 -250q0 -148 -104.5 -251.5t-252.5 -103.5zM407 870q92 0 158.5 67.5t66.5 162.5t-66.5 161.5t-158.5 66.5q-93 0 -160 -66.5t-67 -161.5q0 -96 67 -163t160 -67z" />
    <glyph glyph-name="plusminus" unicode="&#xb1;" horiz-adv-x="1228" 
d="M542 300v310h-373v139h373v356h142v-356h376v-139h-376v-310h-142zM1060 46h-891v139h891v-139z" />
    <glyph glyph-name="uni00B2" unicode="&#xb2;" horiz-adv-x="697" 
d="M67 1308q100 136 268 136q123 0 194.5 -69.5t71.5 -180.5q0 -68 -29.5 -123t-88.5 -114l-205 -207h348v-118h-530v99l298 298q76 76 76 155q0 61 -39.5 100t-106.5 39q-99 0 -176 -94z" />
    <glyph glyph-name="uni00B3" unicode="&#xb3;" horiz-adv-x="701" 
d="M315 1444q125 0 203 -61t78 -160q0 -67 -35 -115t-96 -73q69 -24 108.5 -72t39.5 -114q0 -74 -42 -127t-106.5 -77t-142.5 -24q-176 0 -271 108l74 84q76 -79 190 -79q72 0 119.5 32t47.5 93q0 56 -50 88.5t-125 32.5h-102v113h102q70 0 114 31t44 88q0 54 -43.5 86
t-112.5 32q-108 0 -178 -85l-76 81q92 118 260 118z" />
    <glyph glyph-name="acute" unicode="&#xb4;" horiz-adv-x="961" 
d="M278 1118l214 307h193l-257 -307h-150z" />
    <glyph glyph-name="uni00B5" unicode="&#xb5;" horiz-adv-x="1229" 
d="M168 -410v1380h153v-551q0 -138 73.5 -215.5t205.5 -77.5q126 0 211.5 81.5t85.5 215.5v547h154v-970h-152v138q-56 -82 -142.5 -119.5t-184.5 -37.5q-75 0 -143 25t-110 70v-486h-151z" />
    <glyph glyph-name="paragraph" unicode="&#xb6;" horiz-adv-x="1200" 
d="M560 722q-197 1 -305.5 95t-108.5 260t109 261.5t305 95.5h122v-1434h-122v722zM788 1434h122v-1434h-122v1434z" />
    <glyph glyph-name="periodcentered" unicode="&#xb7;" horiz-adv-x="732" 
d="M368 670q51 0 89 -37.5t38 -89.5t-38 -90.5t-89 -38.5q-52 0 -90.5 38.5t-38.5 90.5t38.5 89.5t90.5 37.5z" />
    <glyph glyph-name="cedilla" unicode="&#xb8;" horiz-adv-x="1011" 
d="M532 -331h-159l111 337l154 -1z" />
    <glyph glyph-name="uni00B9" unicode="&#xb9;" horiz-adv-x="563" 
d="M400 632h-127v635l-222 -89v125l349 140v-811z" />
    <glyph glyph-name="ordmasculine" unicode="&#xba;" horiz-adv-x="876" 
d="M438 1323q154 0 256 -100.5t102 -251.5q0 -152 -102 -253t-256 -101t-255.5 101t-101.5 253t101.5 252t255.5 100zM438 1205q-98 0 -163 -66t-65 -168t65 -168.5t163 -66.5t164 67t66 168t-66 167.5t-164 66.5z" />
    <glyph glyph-name="guillemotright" unicode="&#xbb;" horiz-adv-x="1045" 
d="M151 921h163l197 -379l-197 -379h-163l195 379zM556 921h164l196 -379l-196 -379h-164l196 379z" />
    <glyph glyph-name="onequarter" unicode="&#xbc;" horiz-adv-x="1665" 
d="M400 632h-127v635l-222 -89v125l349 140v-811zM435 0h-152l904 1434h152zM1500 271h124v-115h-124v-156h-127v156h-374v91l283 554h140l-273 -530h224v223h127v-223z" />
    <glyph glyph-name="onehalf" unicode="&#xbd;" horiz-adv-x="1731" 
d="M400 632h-127v635l-222 -89v125l349 140v-811zM435 0h-152l904 1434h152zM1101 676q100 136 268 136q123 0 194.5 -69.5t71.5 -180.5q0 -68 -29.5 -123t-87.5 -113l-206 -208h348v-118h-530v99l298 298q76 76 76 155q0 61 -39.5 100t-106.5 39q-98 0 -175 -94z" />
    <glyph glyph-name="threequarters" unicode="&#xbe;" horiz-adv-x="1777" 
d="M315 1444q125 0 203 -61t78 -160q0 -67 -35 -115t-96 -73q69 -24 108.5 -72t39.5 -114q0 -74 -42 -127t-106.5 -77t-142.5 -24q-176 0 -271 108l74 84q76 -79 190 -79q72 0 119.5 32t47.5 93q0 56 -50 88.5t-125 32.5h-102v113h102q70 0 114 31t44 88q0 54 -43.5 86
t-112.5 32q-108 0 -178 -85l-76 81q92 118 260 118zM549 0h-153l904 1434h153zM1613 271h124v-115h-124v-156h-127v156h-374v91l283 554h140l-273 -530h224v223h127v-223z" />
    <glyph glyph-name="questiondown" unicode="&#xbf;" horiz-adv-x="884" 
d="M600 732q-51 0 -89 38t-38 90t38 90.5t89 38.5q52 0 90.5 -38.5t38.5 -90.5t-38.5 -90t-90.5 -38zM670 514v-321h-66q-175 0 -274 -71t-99 -197q0 -118 99 -185.5t268 -67.5q49 0 140 7l14 -156q-83 -11 -162 -11q-243 0 -386 110.5t-143 295.5q0 177 120 285t341 131
l9 180h139z" />
    <glyph glyph-name="Agrave" unicode="&#xc0;" horiz-adv-x="1455" 
d="M481 1799h194l133 -256h-152zM1418 0h-176l-163 399h-709l-162 -399h-171l589 1434h203zM433 555h584l-292 716z" />
    <glyph glyph-name="Aacute" unicode="&#xc1;" horiz-adv-x="1455" 
d="M644 1543l132 256h195l-175 -256h-152zM1418 0h-176l-163 399h-709l-162 -399h-171l589 1434h203zM433 555h584l-292 716z" />
    <glyph glyph-name="Acircumflex" unicode="&#xc2;" horiz-adv-x="1455" 
d="M858 1574l-130 126l-131 -126h-175l208 242h196l207 -242h-175zM1418 0h-176l-163 399h-709l-162 -399h-171l589 1434h203zM433 555h584l-292 716z" />
    <glyph glyph-name="Atilde" unicode="&#xc3;" horiz-adv-x="1455" 
d="M368 1689q47 58 100 85.5t124 27.5q47 0 88.5 -12.5t67 -28t57 -28t59.5 -12.5q67 0 133 69l92 -87q-91 -114 -225 -114q-58 0 -107.5 20.5t-89.5 41t-75 20.5q-68 0 -134 -69zM1418 0h-176l-163 399h-709l-162 -399h-171l589 1434h203zM433 555h584l-292 716z" />
    <glyph glyph-name="Adieresis" unicode="&#xc4;" horiz-adv-x="1455" 
d="M520 1800q45 0 77 -31.5t32 -77.5q0 -45 -32 -76.5t-77 -31.5q-46 0 -77 31t-31 77t31 77.5t77 31.5zM936 1800q45 0 76.5 -31.5t31.5 -77.5t-31.5 -77t-76.5 -31q-46 0 -77 31t-31 77t31 77.5t77 31.5zM1418 0h-176l-163 399h-709l-162 -399h-171l589 1434h203zM433 555
h584l-292 716z" />
    <glyph glyph-name="Aring" unicode="&#xc5;" horiz-adv-x="1455" 
d="M728 1523q-95 0 -163.5 67.5t-68.5 162.5q0 94 68.5 161.5t163.5 67.5q96 0 165 -67.5t69 -161.5q0 -95 -69 -162.5t-165 -67.5zM728 1620q54 0 92.5 38.5t38.5 94.5q0 55 -38.5 93.5t-92.5 38.5t-92 -38.5t-38 -93.5q0 -56 38 -94.5t92 -38.5zM1418 0h-176l-163 399
h-709l-162 -399h-171l589 1434h203zM433 555h584l-292 716z" />
    <glyph glyph-name="AE" unicode="&#xc6;" horiz-adv-x="2337" 
d="M2173 0h-1009v374h-653l-283 -374h-198l1089 1434h1045v-155h-835v-480h809v-154h-809v-490h844v-155zM1164 529v707l-535 -707h535z" />
    <glyph glyph-name="Ccedilla" unicode="&#xc7;" horiz-adv-x="1566" 
d="M864 1454q187 0 343.5 -79.5t241.5 -217.5l-137 -92q-71 107 -189 168.5t-259 61.5q-160 0 -289 -72t-203.5 -204.5t-74.5 -301.5t74.5 -302t203.5 -205t289 -72q141 0 258 61t190 169l133 -99q-79 -119 -209 -194t-289 -91l-98 -315h-167l105 315q-291 26 -477 229
t-186 504q0 159 56 296.5t154 234t235 151.5t295 55z" />
    <glyph glyph-name="Egrave" unicode="&#xc8;" horiz-adv-x="1380" 
d="M443 1799h194l133 -256h-152zM1215 0h-1008v1434h999v-155h-834v-480h809v-154h-809v-490h843v-155z" />
    <glyph glyph-name="Eacute" unicode="&#xc9;" horiz-adv-x="1380" 
d="M606 1543l132 256h195l-175 -256h-152zM1215 0h-1008v1434h999v-155h-834v-480h809v-154h-809v-490h843v-155z" />
    <glyph glyph-name="Ecircumflex" unicode="&#xca;" horiz-adv-x="1380" 
d="M820 1574l-130 126l-131 -126h-175l208 242h196l207 -242h-175zM1215 0h-1008v1434h999v-155h-834v-480h809v-154h-809v-490h843v-155z" />
    <glyph glyph-name="Edieresis" unicode="&#xcb;" horiz-adv-x="1380" 
d="M494 1800q45 0 76.5 -31.5t31.5 -77.5t-31.5 -77t-76.5 -31q-46 0 -77.5 31t-31.5 77t31.5 77.5t77.5 31.5zM909 1800q45 0 77 -31.5t32 -77.5q0 -45 -32 -76.5t-77 -31.5q-46 0 -76.5 31t-30.5 77t30.5 77.5t76.5 31.5zM1215 0h-1008v1434h999v-155h-834v-480h809v-154
h-809v-490h843v-155z" />
    <glyph glyph-name="Igrave" unicode="&#xcc;" horiz-adv-x="578" 
d="M43 1799h194l133 -256h-152zM372 0h-165v1434h165v-1434z" />
    <glyph glyph-name="Iacute" unicode="&#xcd;" horiz-adv-x="578" 
d="M206 1543l132 256h194l-175 -256h-151zM372 0h-165v1434h165v-1434z" />
    <glyph glyph-name="Icircumflex" unicode="&#xce;" horiz-adv-x="578" 
d="M467 1544l-178 194l-179 -194h-164l240 295h205l240 -295h-164zM372 0h-165v1434h165v-1434z" />
    <glyph glyph-name="Idieresis" unicode="&#xcf;" horiz-adv-x="578" 
d="M81 1800q45 0 76.5 -31.5t31.5 -77.5t-31.5 -77t-76.5 -31q-46 0 -77.5 31t-31.5 77t31.5 77.5t77.5 31.5zM497 1800q45 0 76.5 -31.5t31.5 -77.5t-31.5 -77t-76.5 -31q-46 0 -77 31t-31 77t31 77.5t77 31.5zM372 0h-165v1434h165v-1434z" />
    <glyph glyph-name="Eth" unicode="&#xd0;" horiz-adv-x="1790" 
d="M901 1434q351 0 558 -194.5t207 -522.5t-207 -522.5t-558 -194.5h-540v644h-237v156h237v634h540zM939 644h-413v-488h375q285 0 438.5 151.5t153.5 409.5q0 259 -153.5 410t-438.5 151h-375v-478h413v-156z" />
    <glyph glyph-name="Ntilde" unicode="&#xd1;" horiz-adv-x="1614" 
d="M446 1689q47 58 100.5 85.5t124.5 27.5q47 0 88.5 -12.5t67 -28t57 -28t59.5 -12.5q67 0 133 69l91 -87q-91 -114 -224 -114q-58 0 -107.5 20.5t-89.5 41t-75 20.5q-68 0 -134 -69zM1408 0h-148l-888 1151v-1151h-165v1434h148l888 -1151v1151h165v-1434z" />
    <glyph glyph-name="Ograve" unicode="&#xd2;" horiz-adv-x="1729" 
d="M618 1799h194l133 -256h-151zM864 1454q158 0 295.5 -55t235.5 -151.5t154 -234t56 -296.5t-56 -296.5t-154 -234t-235.5 -151.5t-295.5 -55t-295 55t-235 151.5t-154 234t-56 296.5t56 296.5t154 234t235 151.5t295 55zM864 1295q-160 0 -289 -72t-203.5 -204.5
t-74.5 -301.5t74.5 -302t203.5 -205t289 -72q120 0 225 42.5t181 117.5t119.5 183.5t43.5 235.5q0 169 -74.5 301.5t-204 204.5t-290.5 72z" />
    <glyph glyph-name="Oacute" unicode="&#xd3;" horiz-adv-x="1729" 
d="M781 1543l132 256h195l-175 -256h-152zM864 1454q158 0 295.5 -55t235.5 -151.5t154 -234t56 -296.5t-56 -296.5t-154 -234t-235.5 -151.5t-295.5 -55t-295 55t-235 151.5t-154 234t-56 296.5t56 296.5t154 234t235 151.5t295 55zM864 1295q-160 0 -289 -72
t-203.5 -204.5t-74.5 -301.5t74.5 -302t203.5 -205t289 -72q120 0 225 42.5t181 117.5t119.5 183.5t43.5 235.5q0 169 -74.5 301.5t-204 204.5t-290.5 72z" />
    <glyph glyph-name="Ocircumflex" unicode="&#xd4;" horiz-adv-x="1729" 
d="M995 1574l-130 126l-131 -126h-175l208 242h197l206 -242h-175zM864 1454q158 0 295.5 -55t235.5 -151.5t154 -234t56 -296.5t-56 -296.5t-154 -234t-235.5 -151.5t-295.5 -55t-295 55t-235 151.5t-154 234t-56 296.5t56 296.5t154 234t235 151.5t295 55zM864 1295
q-160 0 -289 -72t-203.5 -204.5t-74.5 -301.5t74.5 -302t203.5 -205t289 -72q120 0 225 42.5t181 117.5t119.5 183.5t43.5 235.5q0 169 -74.5 301.5t-204 204.5t-290.5 72z" />
    <glyph glyph-name="Otilde" unicode="&#xd5;" horiz-adv-x="1729" 
d="M505 1689q47 58 100 85.5t124 27.5q47 0 88.5 -12.5t67 -28t57 -28t59.5 -12.5q68 0 134 69l91 -87q-92 -114 -225 -114q-58 0 -107.5 20.5t-89.5 41t-75 20.5q-68 0 -134 -69zM864 1454q158 0 295.5 -55t235.5 -151.5t154 -234t56 -296.5t-56 -296.5t-154 -234
t-235.5 -151.5t-295.5 -55t-295 55t-235 151.5t-154 234t-56 296.5t56 296.5t154 234t235 151.5t295 55zM864 1295q-160 0 -289 -72t-203.5 -204.5t-74.5 -301.5t74.5 -302t203.5 -205t289 -72q120 0 225 42.5t181 117.5t119.5 183.5t43.5 235.5q0 169 -74.5 301.5
t-204 204.5t-290.5 72z" />
    <glyph glyph-name="Odieresis" unicode="&#xd6;" horiz-adv-x="1729" 
d="M656 1800q45 0 77 -31.5t32 -77.5q0 -45 -32 -76.5t-77 -31.5q-46 0 -77 31t-31 77t31 77.5t77 31.5zM1072 1800q45 0 77 -31.5t32 -77.5q0 -45 -32 -76.5t-77 -31.5q-46 0 -76.5 31t-30.5 77t30.5 77.5t76.5 31.5zM864 1454q158 0 295.5 -55t235.5 -151.5t154 -234
t56 -296.5t-56 -296.5t-154 -234t-235.5 -151.5t-295.5 -55t-295 55t-235 151.5t-154 234t-56 296.5t56 296.5t154 234t235 151.5t295 55zM864 1295q-160 0 -289 -72t-203.5 -204.5t-74.5 -301.5t74.5 -302t203.5 -205t289 -72q120 0 225 42.5t181 117.5t119.5 183.5
t43.5 235.5q0 169 -74.5 301.5t-204 204.5t-290.5 72z" />
    <glyph glyph-name="multiply" unicode="&#xd7;" horiz-adv-x="1228" 
d="M214 241l299 299l-300 301l101 101l300 -301l302 302l99 -98l-302 -302l303 -302l-102 -102l-303 302l-298 -299z" />
    <glyph glyph-name="Oslash" unicode="&#xd8;" horiz-adv-x="1729" 
d="M864 1454q272 0 472 -157l156 156l109 -108l-156 -156q160 -200 160 -472q0 -159 -56 -296.5t-154 -234t-235.5 -151.5t-295.5 -55q-273 0 -472 156l-154 -154l-110 107l155 155q-159 199 -159 473q0 159 56 296.5t154 234t235 151.5t295 55zM864 1295q-160 0 -289 -72
t-203.5 -204.5t-74.5 -301.5q0 -205 106 -352l816 815q-149 115 -355 115zM1433 717q0 203 -108 352l-815 -815q147 -116 354 -116q120 0 225 42.5t181 117.5t119.5 183.5t43.5 235.5z" />
    <glyph glyph-name="Ugrave" unicode="&#xd9;" horiz-adv-x="1553" 
d="M530 1799h194l133 -256h-151zM1367 561q0 -142 -46 -254t-127 -182.5t-187 -107t-231 -36.5t-231 36.5t-186.5 107t-126.5 182.5t-46 254v873h164v-861q0 -216 116.5 -325.5t309.5 -109.5t309.5 109.5t116.5 325.5v861h165v-873z" />
    <glyph glyph-name="Uacute" unicode="&#xda;" horiz-adv-x="1553" 
d="M693 1543l132 256h195l-175 -256h-152zM1367 561q0 -142 -46 -254t-127 -182.5t-187 -107t-231 -36.5t-231 36.5t-186.5 107t-126.5 182.5t-46 254v873h164v-861q0 -216 116.5 -325.5t309.5 -109.5t309.5 109.5t116.5 325.5v861h165v-873z" />
    <glyph glyph-name="Ucircumflex" unicode="&#xdb;" horiz-adv-x="1553" 
d="M954 1544l-178 194l-179 -194h-164l241 295h205l239 -295h-164zM1367 561q0 -142 -46 -254t-127 -182.5t-187 -107t-231 -36.5t-231 36.5t-186.5 107t-126.5 182.5t-46 254v873h164v-861q0 -216 116.5 -325.5t309.5 -109.5t309.5 109.5t116.5 325.5v861h165v-873z" />
    <glyph glyph-name="Udieresis" unicode="&#xdc;" horiz-adv-x="1553" 
d="M568 1800q45 0 77 -31.5t32 -77.5q0 -45 -32 -76.5t-77 -31.5q-46 0 -77 31t-31 77t31 77.5t77 31.5zM984 1800q45 0 77 -31.5t32 -77.5q0 -45 -32 -76.5t-77 -31.5q-46 0 -76.5 31t-30.5 77t30.5 77.5t76.5 31.5zM1367 561q0 -142 -46 -254t-127 -182.5t-187 -107
t-231 -36.5t-231 36.5t-186.5 107t-126.5 182.5t-46 254v873h164v-861q0 -216 116.5 -325.5t309.5 -109.5t309.5 109.5t116.5 325.5v861h165v-873z" />
    <glyph glyph-name="Yacute" unicode="&#xdd;" horiz-adv-x="1317" 
d="M575 1543l133 256h194l-175 -256h-152zM742 601v-601h-163v603l-568 831h197l454 -680l453 680h192z" />
    <glyph glyph-name="Thorn" unicode="&#xde;" horiz-adv-x="1359" 
d="M372 1161h377q240 0 373 -113.5t133 -315.5t-133 -315.5t-373 -113.5h-377v-303h-165v1434h165v-273zM372 1006v-547h371q167 0 254 68.5t87 204.5t-87 205t-254 69h-371z" />
    <glyph glyph-name="germandbls" unicode="&#xdf;" horiz-adv-x="1254" 
d="M170 1046q0 95 30 175.5t87 141.5t148 96t206 35q198 0 332 -109.5t134 -283.5q0 -127 -61.5 -217t-158.5 -130q112 -35 187 -131t75 -225q0 -190 -124 -303.5t-308 -113.5q-142 0 -242 43l37 138q84 -39 181 -39q137 0 218 72.5t81 207.5t-93.5 203.5t-255.5 68.5h-57
v139h31q69 0 125.5 13t105 42t75.5 82t27 127q0 130 -88.5 201.5t-223.5 71.5q-146 0 -230.5 -85.5t-84.5 -229.5v-1036h-153v1046z" />
    <glyph glyph-name="agrave" unicode="&#xe0;" horiz-adv-x="1275" 
d="M402 1374h194l113 -256h-152zM1097 0h-153v144q-127 -163 -354 -163q-206 0 -345.5 143.5t-139.5 360.5t140 360.5t345 143.5q225 0 354 -164v145h153v-970zM608 846q-153 0 -250 -104t-97 -257t97.5 -257t249.5 -104q151 0 248 103t97 258t-97.5 258t-247.5 103z" />
    <glyph glyph-name="aacute" unicode="&#xe1;" horiz-adv-x="1275" 
d="M556 1118l132 256h195l-175 -256h-152zM1097 0h-153v144q-127 -163 -354 -163q-206 0 -345.5 143.5t-139.5 360.5t140 360.5t345 143.5q225 0 354 -164v145h153v-970zM608 846q-153 0 -250 -104t-97 -257t97.5 -257t249.5 -104q151 0 248 103t97 258t-97.5 258
t-247.5 103z" />
    <glyph glyph-name="acircumflex" unicode="&#xe2;" horiz-adv-x="1275" 
d="M768 1110l-130 126l-131 -126h-175l208 242h196l207 -242h-175zM1097 0h-153v144q-127 -163 -354 -163q-206 0 -345.5 143.5t-139.5 360.5t140 360.5t345 143.5q225 0 354 -164v145h153v-970zM608 846q-153 0 -250 -104t-97 -257t97.5 -257t249.5 -104q151 0 248 103
t97 258t-97.5 258t-247.5 103z" />
    <glyph glyph-name="atilde" unicode="&#xe3;" horiz-adv-x="1275" 
d="M310 1244q84 104 204 104q54 0 99 -18.5t81 -37t68 -18.5q62 0 121 62l83 -80q-84 -103 -204 -103q-53 0 -98 18.5t-81.5 37.5t-68.5 19q-61 0 -122 -64zM1097 0h-153v144q-127 -163 -354 -163q-206 0 -345.5 143.5t-139.5 360.5t140 360.5t345 143.5q225 0 354 -164v145
h153v-970zM608 846q-153 0 -250 -104t-97 -257t97.5 -257t249.5 -104q151 0 248 103t97 258t-97.5 258t-247.5 103z" />
    <glyph glyph-name="adieresis" unicode="&#xe4;" horiz-adv-x="1275" 
d="M418 1375q45 0 76.5 -31.5t31.5 -77.5t-31.5 -77t-76.5 -31q-46 0 -77.5 31t-31.5 77t31.5 77.5t77.5 31.5zM834 1375q45 0 76.5 -31.5t31.5 -77.5t-31.5 -77t-76.5 -31q-46 0 -77 31t-31 77t31 77.5t77 31.5zM1097 0h-153v144q-127 -163 -354 -163q-206 0 -345.5 143.5
t-139.5 360.5t140 360.5t345 143.5q225 0 354 -164v145h153v-970zM608 846q-153 0 -250 -104t-97 -257t97.5 -257t249.5 -104q151 0 248 103t97 258t-97.5 258t-247.5 103z" />
    <glyph glyph-name="aring" unicode="&#xe5;" horiz-adv-x="1275" 
d="M625 1098q-96 0 -164.5 67.5t-68.5 162.5q0 94 69 162t164 68q96 0 164.5 -67.5t68.5 -162.5t-68.5 -162.5t-164.5 -67.5zM625 1195q54 0 92.5 38.5t38.5 94.5q0 55 -38.5 93.5t-92.5 38.5t-92 -38.5t-38 -93.5q0 -56 38 -94.5t92 -38.5zM1097 0h-153v144
q-127 -163 -354 -163q-206 0 -345.5 143.5t-139.5 360.5t140 360.5t345 143.5q225 0 354 -164v145h153v-970zM608 846q-153 0 -250 -104t-97 -257t97.5 -257t249.5 -104q151 0 248 103t97 258t-97.5 258t-247.5 103z" />
    <glyph glyph-name="ae" unicode="&#xe6;" horiz-adv-x="1843" 
d="M1282 988q198 0 326 -139.5t130 -360.5q0 -6 -3 -57h-778q16 -152 111 -234t232 -82q175 0 308 122l81 -105q-156 -151 -398 -151q-126 0 -228.5 49.5t-168.5 140.5q-71 -87 -175.5 -138.5t-237.5 -51.5q-174 0 -275 80.5t-101 210.5q0 129 105 207.5t295 78.5h297v7
q0 144 -74.5 215t-214.5 71q-148 0 -281 -97l-71 113q162 122 371 122q283 0 369 -204q59 94 160 148.5t221 54.5zM1279 853q-131 0 -216 -82t-104 -216h622q-13 135 -96 216.5t-206 81.5zM505 116q91 0 180.5 45t149.5 122q-26 69 -33 148h-281q-131 0 -192 -44t-61 -115
q0 -68 62 -112t175 -44z" />
    <glyph glyph-name="ccedilla" unicode="&#xe7;" horiz-adv-x="1048" 
d="M607 989q108 0 201.5 -39t158.5 -113l-99 -104q-116 113 -265 113q-147 0 -244.5 -102.5t-97.5 -258.5q0 -157 97.5 -259t244.5 -102q151 0 268 114l96 -105q-113 -128 -297 -148l-99 -316h-159l105 319q-186 28 -299 165.5t-113 331.5q0 217 140.5 360.5t361.5 143.5z
" />
    <glyph glyph-name="egrave" unicode="&#xe8;" horiz-adv-x="1147" 
d="M339 1374h193l113 -256h-151zM587 989q130 0 233.5 -63.5t162 -177.5t59.5 -260q0 -32 -3 -57h-777q16 -151 111 -233.5t232 -82.5q174 0 307 122l82 -105q-158 -151 -398 -151q-216 0 -353.5 139.5t-137.5 363.5q0 221 137 363t345 142zM584 853q-131 0 -216 -82
t-104 -216h623q-14 136 -96.5 217t-206.5 81z" />
    <glyph glyph-name="eacute" unicode="&#xe9;" horiz-adv-x="1147" 
d="M493 1118l132 256h194l-175 -256h-151zM587 989q130 0 233.5 -63.5t162 -177.5t59.5 -260q0 -32 -3 -57h-777q16 -151 111 -233.5t232 -82.5q174 0 307 122l82 -105q-158 -151 -398 -151q-216 0 -353.5 139.5t-137.5 363.5q0 221 137 363t345 142zM584 853
q-131 0 -216 -82t-104 -216h623q-14 136 -96.5 217t-206.5 81z" />
    <glyph glyph-name="ecircumflex" unicode="&#xea;" horiz-adv-x="1147" 
d="M705 1110l-131 126l-131 -126h-175l208 242h197l207 -242h-175zM587 989q130 0 233.5 -63.5t162 -177.5t59.5 -260q0 -32 -3 -57h-777q16 -151 111 -233.5t232 -82.5q174 0 307 122l82 -105q-158 -151 -398 -151q-216 0 -353.5 139.5t-137.5 363.5q0 221 137 363t345 142
zM584 853q-131 0 -216 -82t-104 -216h623q-14 136 -96.5 217t-206.5 81z" />
    <glyph glyph-name="edieresis" unicode="&#xeb;" horiz-adv-x="1147" 
d="M375 1375q45 0 76.5 -31.5t31.5 -77.5t-31.5 -77t-76.5 -31q-46 0 -77.5 31t-31.5 77t31.5 77.5t77.5 31.5zM791 1375q45 0 76.5 -31.5t31.5 -77.5t-31.5 -77t-76.5 -31q-46 0 -77 31t-31 77t31 77.5t77 31.5zM587 989q130 0 233.5 -63.5t162 -177.5t59.5 -260
q0 -32 -3 -57h-777q16 -151 111 -233.5t232 -82.5q174 0 307 122l82 -105q-158 -151 -398 -151q-216 0 -353.5 139.5t-137.5 363.5q0 221 137 363t345 142zM584 853q-131 0 -216 -82t-104 -216h623q-14 136 -96.5 217t-206.5 81z" />
    <glyph glyph-name="igrave" unicode="&#xec;" horiz-adv-x="512" 
d="M20 1374h194l113 -256h-152zM333 0h-154v970h154v-970z" />
    <glyph glyph-name="iacute" unicode="&#xed;" horiz-adv-x="512" 
d="M174 1118l132 256h195l-175 -256h-152zM333 0h-154v970h154v-970z" />
    <glyph glyph-name="icircumflex" unicode="&#xee;" horiz-adv-x="512" 
d="M434 1119l-178 194l-179 -194h-164l241 295h204l240 -295h-164zM333 0h-154v970h154v-970z" />
    <glyph glyph-name="idieresis" unicode="&#xef;" horiz-adv-x="512" 
d="M48 1375q45 0 77 -31.5t32 -77.5q0 -45 -32 -76.5t-77 -31.5q-46 0 -77 31t-31 77t31 77.5t77 31.5zM464 1375q45 0 76.5 -31.5t31.5 -77.5t-31.5 -77t-76.5 -31q-46 0 -77 31t-31 77t31 77.5t77 31.5zM333 0h-154v970h154v-970z" />
    <glyph glyph-name="eth" unicode="&#xf0;" horiz-adv-x="1227" 
d="M950 1375l-201 -120q169 -146 271 -344.5t102 -415.5q0 -220 -145.5 -367t-361.5 -147q-219 0 -364.5 141t-145.5 352q0 213 139 355.5t343 142.5q190 0 313 -128q-90 188 -280 335l-258 -153l-57 93l216 128q-108 67 -219 115l69 123q150 -61 285 -157l237 140zM615 827
q-153 0 -253.5 -99t-100.5 -253q0 -153 101 -252t253 -99t253.5 99t101.5 252q0 154 -101.5 253t-253.5 99z" />
    <glyph glyph-name="ntilde" unicode="&#xf1;" horiz-adv-x="1229" 
d="M280 1264q47 58 100 85.5t124 27.5q59 0 108.5 -20.5t89 -40.5t74.5 -20q67 0 133 69l91 -87q-47 -58 -100 -86t-124 -28q-58 0 -107.5 20.5t-89.5 41t-75 20.5q-68 0 -134 -69zM657 989q181 0 293 -106.5t112 -281.5v-601h-153v551q0 138 -73.5 215.5t-205.5 77.5
q-126 0 -211.5 -81.5t-85.5 -215.5v-547h-154v970h152v-139q56 82 142.5 120t183.5 38z" />
    <glyph glyph-name="ograve" unicode="&#xf2;" horiz-adv-x="1231" 
d="M381 1374h193l113 -256h-151zM615 989q219 0 365 -144.5t146 -359.5q0 -216 -146 -360t-365 -144t-364.5 144t-145.5 360q0 106 39 199.5t106.5 160.5t162 105.5t202.5 38.5zM615 846q-152 0 -253 -102.5t-101 -258.5q0 -157 101 -259t253 -102t253.5 102t101.5 259
q0 156 -101.5 258.5t-253.5 102.5z" />
    <glyph glyph-name="oacute" unicode="&#xf3;" horiz-adv-x="1231" 
d="M535 1118l132 256h194l-175 -256h-151zM615 989q219 0 365 -144.5t146 -359.5q0 -216 -146 -360t-365 -144t-364.5 144t-145.5 360q0 106 39 199.5t106.5 160.5t162 105.5t202.5 38.5zM615 846q-152 0 -253 -102.5t-101 -258.5q0 -157 101 -259t253 -102t253.5 102
t101.5 259q0 156 -101.5 258.5t-253.5 102.5z" />
    <glyph glyph-name="ocircumflex" unicode="&#xf4;" horiz-adv-x="1231" 
d="M746 1110l-130 126l-131 -126h-175l208 242h197l207 -242h-176zM615 989q219 0 365 -144.5t146 -359.5q0 -216 -146 -360t-365 -144t-364.5 144t-145.5 360q0 106 39 199.5t106.5 160.5t162 105.5t202.5 38.5zM615 846q-152 0 -253 -102.5t-101 -258.5q0 -157 101 -259
t253 -102t253.5 102t101.5 259q0 156 -101.5 258.5t-253.5 102.5z" />
    <glyph glyph-name="otilde" unicode="&#xf5;" horiz-adv-x="1231" 
d="M289 1244q84 104 204 104q54 0 99 -18.5t80.5 -37t67.5 -18.5q62 0 121 62l83 -80q-84 -103 -204 -103q-42 0 -80 11.5t-60.5 26t-51.5 26t-55 11.5q-61 0 -122 -64zM615 989q219 0 365 -144.5t146 -359.5q0 -216 -146 -360t-365 -144t-364.5 144t-145.5 360
q0 106 39 199.5t106.5 160.5t162 105.5t202.5 38.5zM615 846q-152 0 -253 -102.5t-101 -258.5q0 -157 101 -259t253 -102t253.5 102t101.5 259q0 156 -101.5 258.5t-253.5 102.5z" />
    <glyph glyph-name="odieresis" unicode="&#xf6;" horiz-adv-x="1231" 
d="M408 1375q45 0 76.5 -31.5t31.5 -77.5t-31.5 -77t-76.5 -31q-46 0 -77.5 31t-31.5 77t31.5 77.5t77.5 31.5zM823 1375q45 0 77 -31.5t32 -77.5q0 -45 -32 -76.5t-77 -31.5q-46 0 -76.5 31t-30.5 77t30.5 77.5t76.5 31.5zM615 989q219 0 365 -144.5t146 -359.5
q0 -216 -146 -360t-365 -144t-364.5 144t-145.5 360q0 106 39 199.5t106.5 160.5t162 105.5t202.5 38.5zM615 846q-152 0 -253 -102.5t-101 -258.5q0 -157 101 -259t253 -102t253.5 102t101.5 259q0 156 -101.5 258.5t-253.5 102.5z" />
    <glyph glyph-name="divide" unicode="&#xf7;" horiz-adv-x="1228" 
d="M615 976q42 0 74 -32t32 -75q0 -42 -32 -74t-74 -32q-43 0 -75 32t-32 74q0 43 32 75t75 32zM1060 472h-891v139h891v-139zM615 321q42 0 74 -31.5t32 -74.5t-32 -75t-74 -32q-43 0 -75 32t-32 75t32 74.5t75 31.5z" />
    <glyph glyph-name="oslash" unicode="&#xf8;" horiz-adv-x="1231" 
d="M615 989q177 0 314 -100l113 113l93 -92l-113 -112q104 -134 104 -313q0 -216 -146 -360t-365 -144q-177 0 -311 99l-114 -114l-93 91l113 113q-105 133 -105 315q0 106 39 199.5t106.5 160.5t162 105.5t202.5 38.5zM615 846q-152 0 -253 -102.5t-101 -258.5
q0 -116 58 -205l503 502q-93 64 -207 64zM970 485q0 111 -58 203l-502 -503q89 -61 205 -61q152 0 253.5 102t101.5 259z" />
    <glyph glyph-name="ugrave" unicode="&#xf9;" horiz-adv-x="1216" 
d="M373 1374h193l113 -256h-152zM1049 404q0 -105 -36 -187t-97.5 -133t-140 -77t-167.5 -26q-90 0 -168 26t-139.5 77t-97 133t-35.5 187v566h153v-551q0 -145 78.5 -220t208.5 -75t208.5 75t78.5 220v551h154v-566z" />
    <glyph glyph-name="uacute" unicode="&#xfa;" horiz-adv-x="1216" 
d="M526 1118l132 256h195l-175 -256h-152zM1049 404q0 -105 -36 -187t-97.5 -133t-140 -77t-167.5 -26q-90 0 -168 26t-139.5 77t-97 133t-35.5 187v566h153v-551q0 -145 78.5 -220t208.5 -75t208.5 75t78.5 220v551h154v-566z" />
    <glyph glyph-name="ucircumflex" unicode="&#xfb;" horiz-adv-x="1216" 
d="M786 1119l-178 194l-179 -194h-164l241 295h205l239 -295h-164zM1049 404q0 -105 -36 -187t-97.5 -133t-140 -77t-167.5 -26q-90 0 -168 26t-139.5 77t-97 133t-35.5 187v566h153v-551q0 -145 78.5 -220t208.5 -75t208.5 75t78.5 220v551h154v-566z" />
    <glyph glyph-name="udieresis" unicode="&#xfc;" horiz-adv-x="1216" 
d="M400 1375q45 0 77 -31.5t32 -77.5q0 -45 -32 -76.5t-77 -31.5q-46 0 -77 31t-31 77t31 77.5t77 31.5zM816 1375q45 0 77 -31.5t32 -77.5q0 -45 -32 -76.5t-77 -31.5q-46 0 -76.5 31t-30.5 77t30.5 77.5t76.5 31.5zM1049 404q0 -105 -36 -187t-97.5 -133t-140 -77
t-167.5 -26q-90 0 -168 26t-139.5 77t-97 133t-35.5 187v566h153v-551q0 -145 78.5 -220t208.5 -75t208.5 75t78.5 220v551h154v-566z" />
    <glyph glyph-name="yacute" unicode="&#xfd;" horiz-adv-x="1079" 
d="M458 1118l132 256h194l-175 -256h-151zM274 -414h-169l362 624l-445 760h171l361 -609l342 609h168z" />
    <glyph glyph-name="thorn" unicode="&#xfe;" horiz-adv-x="1275" 
d="M686 989q205 0 344.5 -143.5t139.5 -360.5t-139.5 -360.5t-344.5 -143.5q-226 0 -353 162v-553h-154v1885h154v-649q128 163 353 163zM668 846q-150 0 -247.5 -103t-97.5 -258t97 -258t248 -103q153 0 249.5 103.5t96.5 257.5q0 152 -97.5 256.5t-248.5 104.5z" />
    <glyph glyph-name="ydieresis" unicode="&#xff;" horiz-adv-x="1079" 
d="M337 1375q45 0 76.5 -31.5t31.5 -77.5t-31.5 -77t-76.5 -31q-46 0 -77.5 31t-31.5 77t31.5 77.5t77.5 31.5zM753 1375q45 0 76.5 -31.5t31.5 -77.5t-31.5 -77t-76.5 -31q-46 0 -77 31t-31 77t31 77.5t77 31.5zM274 -414h-169l362 624l-445 760h171l361 -609l342 609h168z
" />
    <glyph glyph-name="Amacron" unicode="&#x100;" horiz-adv-x="1455" 
d="M422 1752h612v-124h-612v124zM1418 0h-176l-163 399h-709l-162 -399h-171l589 1434h203zM433 555h584l-292 716z" />
    <glyph glyph-name="amacron" unicode="&#x101;" horiz-adv-x="1275" 
d="M319 1327h613v-124h-613v124zM1097 0h-153v144q-127 -163 -354 -163q-206 0 -345.5 143.5t-139.5 360.5t140 360.5t345 143.5q225 0 354 -164v145h153v-970zM608 846q-153 0 -250 -104t-97 -257t97.5 -257t249.5 -104q151 0 248 103t97 258t-97.5 258t-247.5 103z" />
    <glyph glyph-name="Abreve" unicode="&#x102;" horiz-adv-x="1455" 
d="M564 1857q22 -82 58.5 -115t104.5 -33q69 0 105 32.5t59 115.5l121 -37q-31 -122 -100.5 -180t-184.5 -58t-183.5 58t-100.5 180zM1418 0h-176l-163 399h-709l-162 -399h-171l589 1434h203zM433 555h584l-292 716z" />
    <glyph glyph-name="abreve" unicode="&#x103;" horiz-adv-x="1275" 
d="M474 1393q22 -82 58.5 -115t104.5 -33q69 0 105 32.5t59 115.5l121 -37q-31 -122 -100.5 -180t-184.5 -58t-183.5 58t-100.5 180zM1097 0h-153v144q-127 -163 -354 -163q-206 0 -345.5 143.5t-139.5 360.5t140 360.5t345 143.5q225 0 354 -164v145h153v-970zM608 846
q-153 0 -250 -104t-97 -257t97.5 -257t249.5 -104q151 0 248 103t97 258t-97.5 258t-247.5 103z" />
    <glyph glyph-name="Aogonek" unicode="&#x104;" horiz-adv-x="1455" 
d="M1421 -340q-85 -85 -198 -85q-97 0 -157.5 49t-60.5 131q0 78 57 138t175 119l-158 387h-709l-162 -399h-171l589 1436h203l589 -1436h-45q-116 -56 -170 -107.5t-54 -106.5q0 -36 24 -57.5t63 -21.5q56 0 104 51zM433 555h584l-292 718z" />
    <glyph glyph-name="aogonek" unicode="&#x105;" horiz-adv-x="1275" 
d="M1145 -340q-85 -85 -199 -85q-97 0 -157.5 49t-60.5 131q0 75 53.5 134t162.5 115v140q-127 -163 -354 -163q-206 0 -345.5 143.5t-139.5 360.5t140 360.5t345 143.5q225 0 354 -164v145h153v-970q-116 -57 -170.5 -108.5t-54.5 -105.5q0 -36 24 -57.5t63 -21.5
q57 0 105 51zM608 846q-153 0 -250 -104t-97 -257t97.5 -257t249.5 -104q151 0 248 103t97 258t-97.5 258t-247.5 103z" />
    <glyph glyph-name="Cacute" unicode="&#x106;" horiz-adv-x="1566" 
d="M714 1543l214 307h194l-257 -307h-151zM864 1454q187 0 343.5 -79.5t241.5 -217.5l-137 -92q-71 107 -189 168.5t-259 61.5q-160 0 -289 -72t-203.5 -204.5t-74.5 -301.5t74.5 -302t203.5 -205t289 -72q141 0 258 61t190 169l133 -99q-90 -135 -243.5 -212t-337.5 -77
q-158 0 -295 55t-235 151.5t-154 234t-56 296.5t56 296.5t154 234t235 151.5t295 55z" />
    <glyph glyph-name="cacute" unicode="&#x107;" horiz-adv-x="1048" 
d="M464 1118l214 307h194l-257 -307h-151zM607 989q108 0 201.5 -39t158.5 -113l-99 -104q-116 113 -265 113q-147 0 -244.5 -102.5t-97.5 -258.5q0 -157 97.5 -259t244.5 -102q151 0 268 114l96 -105q-66 -74 -159 -113t-201 -39q-222 0 -362 143t-140 361
q0 217 140.5 360.5t361.5 143.5z" />
    <glyph glyph-name="Ccircumflex" unicode="&#x108;" horiz-adv-x="1566" 
d="M1036 1544l-178 194l-179 -194h-164l241 295h205l239 -295h-164zM864 1454q187 0 343.5 -79.5t241.5 -217.5l-137 -92q-71 107 -189 168.5t-259 61.5q-160 0 -289 -72t-203.5 -204.5t-74.5 -301.5t74.5 -302t203.5 -205t289 -72q141 0 258 61t190 169l133 -99
q-90 -135 -243.5 -212t-337.5 -77q-158 0 -295 55t-235 151.5t-154 234t-56 296.5t56 296.5t154 234t235 151.5t295 55z" />
    <glyph glyph-name="ccircumflex" unicode="&#x109;" horiz-adv-x="1048" 
d="M775 1119l-178 194l-179 -194h-164l241 295h204l240 -295h-164zM607 989q108 0 201.5 -39t158.5 -113l-99 -104q-116 113 -265 113q-147 0 -244.5 -102.5t-97.5 -258.5q0 -157 97.5 -259t244.5 -102q151 0 268 114l96 -105q-66 -74 -159 -113t-201 -39q-222 0 -362 143
t-140 361q0 217 140.5 360.5t361.5 143.5z" />
    <glyph glyph-name="Cdotaccent" unicode="&#x10a;" horiz-adv-x="1566" 
d="M844 1806q47 0 79.5 -32t32.5 -79t-32.5 -79.5t-79.5 -32.5t-79.5 32.5t-32.5 79.5t32.5 79t79.5 32zM864 1454q187 0 343.5 -79.5t241.5 -217.5l-137 -92q-71 107 -189 168.5t-259 61.5q-160 0 -289 -72t-203.5 -204.5t-74.5 -301.5t74.5 -302t203.5 -205t289 -72
q141 0 258 61t190 169l133 -99q-90 -135 -243.5 -212t-337.5 -77q-158 0 -295 55t-235 151.5t-154 234t-56 296.5t56 296.5t154 234t235 151.5t295 55z" />
    <glyph glyph-name="cdotaccent" unicode="&#x10b;" horiz-adv-x="1048" 
d="M597 1422q45 0 77 -31.5t32 -76.5t-32 -76.5t-77 -31.5q-46 0 -77 31t-31 77t31 77t77 31zM607 989q108 0 201.5 -39t158.5 -113l-99 -104q-116 113 -265 113q-147 0 -244.5 -102.5t-97.5 -258.5q0 -157 97.5 -259t244.5 -102q151 0 268 114l96 -105q-66 -74 -159 -113
t-201 -39q-222 0 -362 143t-140 361q0 217 140.5 360.5t361.5 143.5z" />
    <glyph glyph-name="Ccaron" unicode="&#x10c;" horiz-adv-x="1566" 
d="M679 1837l179 -193l178 193h164l-239 -295h-205l-241 295h164zM864 1454q187 0 343.5 -79.5t241.5 -217.5l-137 -92q-71 107 -189 168.5t-259 61.5q-160 0 -289 -72t-203.5 -204.5t-74.5 -301.5t74.5 -302t203.5 -205t289 -72q141 0 258 61t190 169l133 -99
q-90 -135 -243.5 -212t-337.5 -77q-158 0 -295 55t-235 151.5t-154 234t-56 296.5t56 296.5t154 234t235 151.5t295 55z" />
    <glyph glyph-name="ccaron" unicode="&#x10d;" horiz-adv-x="1048" 
d="M418 1412l179 -193l178 193h164l-240 -295h-204l-241 295h164zM607 989q108 0 201.5 -39t158.5 -113l-99 -104q-116 113 -265 113q-147 0 -244.5 -102.5t-97.5 -258.5q0 -157 97.5 -259t244.5 -102q151 0 268 114l96 -105q-66 -74 -159 -113t-201 -39q-222 0 -362 143
t-140 361q0 217 140.5 360.5t361.5 143.5z" />
    <glyph glyph-name="Dcaron" unicode="&#x10e;" horiz-adv-x="1636" 
d="M577 1837l179 -193l178 193h164l-240 -295h-205l-240 295h164zM746 1434q351 0 558 -194.5t207 -522.5t-207 -522.5t-558 -194.5h-539v1434h539zM372 1278v-1122h374q285 0 438.5 151.5t153.5 409.5q0 259 -153.5 410t-438.5 151h-374z" />
    <glyph glyph-name="dcaron" unicode="&#x10f;" horiz-adv-x="1327" 
d="M590 989q225 0 354 -164v650h153v-1475h-153v144q-127 -163 -354 -163q-206 0 -345.5 143.5t-139.5 360.5t140 360.5t345 143.5zM1218 1076l7 399h156l-34 -399h-129zM608 846q-153 0 -250 -104t-97 -257t97.5 -257t249.5 -104q151 0 248 103t97 258t-97.5 258
t-247.5 103z" />
    <glyph glyph-name="Dcroat" unicode="&#x110;" horiz-adv-x="1790" 
d="M901 1434q351 0 558 -194.5t207 -522.5t-207 -522.5t-558 -194.5h-540v644h-237v156h237v634h540zM939 644h-413v-488h375q285 0 438.5 151.5t153.5 409.5q0 259 -153.5 410t-438.5 151h-375v-478h413v-156z" />
    <glyph glyph-name="dcroat" unicode="&#x111;" horiz-adv-x="1275" 
d="M1250 1142h-153v-1142h-153v144q-127 -163 -354 -163q-206 0 -345.5 143.5t-139.5 360.5t140 360.5t345 143.5q225 0 354 -164v317h-429v139h429v194h153v-194h153v-139zM608 846q-153 0 -250 -104t-97 -257t97.5 -257t249.5 -104q151 0 248 103t97 258t-97.5 258
t-247.5 103z" />
    <glyph glyph-name="Emacron" unicode="&#x112;" horiz-adv-x="1380" 
d="M395 1752h613v-124h-613v124zM1215 0h-1008v1434h999v-155h-834v-480h809v-154h-809v-490h843v-155z" />
    <glyph glyph-name="emacron" unicode="&#x113;" horiz-adv-x="1147" 
d="M276 1327h613v-124h-613v124zM587 989q130 0 233.5 -63.5t162 -177.5t59.5 -260q0 -32 -3 -57h-777q16 -151 111 -233.5t232 -82.5q174 0 307 122l82 -105q-158 -151 -398 -151q-216 0 -353.5 139.5t-137.5 363.5q0 221 137 363t345 142zM584 853q-131 0 -216 -82
t-104 -216h623q-14 136 -96.5 217t-206.5 81z" />
    <glyph glyph-name="Ebreve" unicode="&#x114;" horiz-adv-x="1380" 
d="M475 1862q58 -196 226 -196q170 0 228 196l123 -38q-39 -140 -130 -213.5t-221 -73.5q-129 0 -219.5 73.5t-129.5 213.5zM1215 0h-1008v1434h999v-155h-834v-480h809v-154h-809v-490h843v-155z" />
    <glyph glyph-name="ebreve" unicode="&#x115;" horiz-adv-x="1147" 
d="M356 1437q58 -196 227 -196t227 196l123 -38q-39 -140 -130 -213.5t-220 -73.5t-220 73.5t-130 213.5zM587 989q130 0 233.5 -63.5t162 -177.5t59.5 -260q0 -32 -3 -57h-777q16 -151 111 -233.5t232 -82.5q174 0 307 122l82 -105q-158 -151 -398 -151
q-216 0 -353.5 139.5t-137.5 363.5q0 221 137 363t345 142zM584 853q-131 0 -216 -82t-104 -216h623q-14 136 -96.5 217t-206.5 81z" />
    <glyph glyph-name="Edotaccent" unicode="&#x116;" horiz-adv-x="1380" 
d="M687 1806q47 0 80 -32t33 -79t-33 -79.5t-80 -32.5t-79.5 32.5t-32.5 79.5t32.5 79t79.5 32zM1215 0h-1008v1434h999v-155h-834v-480h809v-154h-809v-490h843v-155z" />
    <glyph glyph-name="edotaccent" unicode="&#x117;" horiz-adv-x="1147" 
d="M583 1422q45 0 76.5 -31t31.5 -77t-31.5 -77t-76.5 -31q-46 0 -77 31t-31 77t31 77t77 31zM587 989q130 0 233.5 -63.5t162 -177.5t59.5 -260q0 -32 -3 -57h-777q16 -151 111 -233.5t232 -82.5q174 0 307 122l82 -105q-158 -151 -398 -151q-216 0 -353.5 139.5
t-137.5 363.5q0 221 137 363t345 142zM584 853q-131 0 -216 -82t-104 -216h623q-14 136 -96.5 217t-206.5 81z" />
    <glyph glyph-name="Eogonek" unicode="&#x118;" horiz-adv-x="1380" 
d="M1215 0h-188q-151 -81 -151 -186q0 -47 34 -77t92 -30q82 0 147 60l82 -100q-97 -92 -238 -92q-119 0 -193 59.5t-74 151.5q0 130 143 214h-662v1434h999v-155h-834v-480h809v-154h-809v-490h843v-155z" />
    <glyph glyph-name="eogonek" unicode="&#x119;" horiz-adv-x="1147" 
d="M990 -333q-97 -92 -237 -92q-119 0 -193.5 59.5t-74.5 151.5q0 116 110 195q-216 0 -353 139.5t-137 363.5q0 221 137 363t345 142q130 0 233.5 -63.5t162 -177.5t59.5 -260q0 -32 -3 -57h-777q16 -151 111 -233.5t232 -82.5q174 0 307 122l82 -105q-67 -65 -175 -115
q-184 -83 -184 -203q0 -47 34.5 -77t92.5 -30q81 0 146 60zM584 853q-131 0 -216 -82t-104 -216h623q-14 136 -96.5 217t-206.5 81z" />
    <glyph glyph-name="Ecaron" unicode="&#x11a;" horiz-adv-x="1380" 
d="M522 1837l179 -193l179 193h163l-239 -295h-205l-241 295h164zM1215 0h-1008v1434h999v-155h-834v-480h809v-154h-809v-490h843v-155z" />
    <glyph glyph-name="ecaron" unicode="&#x11b;" horiz-adv-x="1147" 
d="M403 1412l180 -193l178 193h164l-240 -295h-205l-240 295h163zM587 989q130 0 233.5 -63.5t162 -177.5t59.5 -260q0 -32 -3 -57h-777q16 -151 111 -233.5t232 -82.5q174 0 307 122l82 -105q-158 -151 -398 -151q-216 0 -353.5 139.5t-137.5 363.5q0 221 137 363t345 142z
M584 853q-131 0 -216 -82t-104 -216h623q-14 136 -96.5 217t-206.5 81z" />
    <glyph glyph-name="Gcircumflex" unicode="&#x11c;" horiz-adv-x="1678" 
d="M1020 1544l-178 194l-179 -194h-164l240 295h205l240 -295h-164zM864 1454q168 0 312.5 -63.5t243.5 -177.5l-122 -116q-77 94 -189.5 146t-244.5 52q-160 0 -289 -72t-203.5 -204.5t-74.5 -301.5t74.5 -302t202 -205t283.5 -72q226 0 361 126t155 348h-446v154h624
q2 -28 2 -42q0 -156 -48.5 -292t-137 -236t-220 -157.5t-290.5 -57.5q-142 0 -273.5 50.5t-234 142.5t-164 233t-61.5 310q0 212 96.5 381t265.5 262.5t378 93.5z" />
    <glyph glyph-name="gcircumflex" unicode="&#x11d;" horiz-adv-x="1264" 
d="M797 1119l-179 194l-179 -194h-164l241 295h205l240 -295h-164zM586 989q224 0 346 -165v146h153v-903q0 -232 -141.5 -362t-371.5 -130q-117 0 -226 34.5t-182 95.5l67 123q150 -114 341 -114q162 0 261 90.5t99 255.5v100q-121 -165 -346 -165q-206 0 -343.5 140
t-137.5 358t137.5 357t343.5 139zM603 846q-152 0 -247 -101.5t-95 -251.5q0 -151 95 -253t247 -102q149 0 245.5 101.5t96.5 253.5q0 151 -96.5 252t-245.5 101z" />
    <glyph glyph-name="Gbreve" unicode="&#x11e;" horiz-adv-x="1678" 
d="M615 1862q58 -196 227 -196t227 196l123 -38q-39 -140 -130 -213.5t-220 -73.5t-219.5 73.5t-129.5 213.5zM864 1454q168 0 312.5 -63.5t243.5 -177.5l-122 -116q-77 94 -189.5 146t-244.5 52q-160 0 -289 -72t-203.5 -204.5t-74.5 -301.5t74.5 -302t202 -205t283.5 -72
q226 0 361 126t155 348h-446v154h624q2 -28 2 -42q0 -156 -48.5 -292t-137 -236t-220 -157.5t-290.5 -57.5q-142 0 -273.5 50.5t-234 142.5t-164 233t-61.5 310q0 212 96.5 381t265.5 262.5t378 93.5z" />
    <glyph glyph-name="gbreve" unicode="&#x11f;" horiz-adv-x="1264" 
d="M392 1437q58 -196 226 -196q170 0 228 196l123 -38q-39 -140 -130 -213.5t-221 -73.5q-129 0 -219.5 73.5t-129.5 213.5zM586 989q224 0 346 -165v146h153v-903q0 -232 -141.5 -362t-371.5 -130q-117 0 -226 34.5t-182 95.5l67 123q150 -114 341 -114q162 0 261 90.5
t99 255.5v100q-121 -165 -346 -165q-206 0 -343.5 140t-137.5 358t137.5 357t343.5 139zM603 846q-152 0 -247 -101.5t-95 -251.5q0 -151 95 -253t247 -102q149 0 245.5 101.5t96.5 253.5q0 151 -96.5 252t-245.5 101z" />
    <glyph glyph-name="Gdotaccent" unicode="&#x120;" horiz-adv-x="1678" 
d="M827 1806q47 0 80 -32t33 -79t-33 -79.5t-80 -32.5t-79 32.5t-32 79.5t32 79t79 32zM864 1454q168 0 312.5 -63.5t243.5 -177.5l-122 -116q-77 94 -189.5 146t-244.5 52q-160 0 -289 -72t-203.5 -204.5t-74.5 -301.5t74.5 -302t202 -205t283.5 -72q226 0 361 126t155 348
h-446v154h624q2 -28 2 -42q0 -156 -48.5 -292t-137 -236t-220 -157.5t-290.5 -57.5q-142 0 -273.5 50.5t-234 142.5t-164 233t-61.5 310q0 212 96.5 381t265.5 262.5t378 93.5z" />
    <glyph glyph-name="gdotaccent" unicode="&#x121;" horiz-adv-x="1264" 
d="M618 1422q45 0 77 -31.5t32 -76.5t-32 -76.5t-77 -31.5q-46 0 -76.5 31t-30.5 77t30.5 77t76.5 31zM586 989q224 0 346 -165v146h153v-903q0 -232 -141.5 -362t-371.5 -130q-117 0 -226 34.5t-182 95.5l67 123q150 -114 341 -114q162 0 261 90.5t99 255.5v100
q-121 -165 -346 -165q-206 0 -343.5 140t-137.5 358t137.5 357t343.5 139zM603 846q-152 0 -247 -101.5t-95 -251.5q0 -151 95 -253t247 -102q149 0 245.5 101.5t96.5 253.5q0 151 -96.5 252t-245.5 101z" />
    <glyph glyph-name="Gcommaaccent" unicode="&#x122;" horiz-adv-x="1678" 
d="M864 1454q168 0 312.5 -63.5t243.5 -177.5l-122 -116q-77 94 -189.5 146t-244.5 52q-160 0 -289 -72t-203.5 -204.5t-74.5 -301.5t74.5 -302t202 -205t283.5 -72q226 0 361 126t155 348h-446v154h624q2 -28 2 -42q0 -156 -48.5 -292t-137 -236t-220 -157.5t-290.5 -57.5
q-142 0 -273.5 50.5t-234 142.5t-164 233t-61.5 310q0 212 96.5 381t265.5 262.5t378 93.5zM944 -90l-76 -359h-135l43 359h168z" />
    <glyph glyph-name="gcommaaccent" unicode="&#x123;" horiz-adv-x="1264" 
d="M525 1118l76 360h135l-43 -360h-168zM586 989q224 0 346 -165v146h153v-903q0 -232 -141.5 -362t-371.5 -130q-117 0 -226 34.5t-182 95.5l67 123q150 -114 341 -114q162 0 261 90.5t99 255.5v100q-121 -165 -346 -165q-206 0 -343.5 140t-137.5 358t137.5 357t343.5 139
zM603 846q-152 0 -247 -101.5t-95 -251.5q0 -151 95 -253t247 -102q149 0 245.5 101.5t96.5 253.5q0 151 -96.5 252t-245.5 101z" />
    <glyph glyph-name="Hcircumflex" unicode="&#x124;" horiz-adv-x="1610" 
d="M983 1544l-178 194l-179 -194h-164l240 295h205l240 -295h-164zM372 800h867v634h165v-1434h-165v644h-867v-644h-165v1434h165v-634z" />
    <glyph glyph-name="hcircumflex" unicode="&#x125;" horiz-adv-x="1229" 
d="M802 1583l-178 194l-180 -194h-163l240 295h205l240 -295h-164zM333 835q57 80 142.5 117t181.5 37q181 0 293 -106.5t112 -281.5v-601h-153v551q0 138 -73.5 215.5t-205.5 77.5q-126 0 -211.5 -81.5t-85.5 -215.5v-547h-154v1475h154v-640z" />
    <glyph glyph-name="Hbar" unicode="&#x126;" horiz-adv-x="1657" 
d="M1595 1034h-167v-1034h-164v644h-868v-644h-165v1034h-169v140h169v260h165v-260h868v260h164v-260h167v-140zM1264 800v234h-868v-234h868z" />
    <glyph glyph-name="hbar" unicode="&#x127;" horiz-adv-x="1229" 
d="M734 1142h-401v-307q57 80 142.5 117t181.5 37q181 0 293 -106.5t112 -281.5v-601h-153v551q0 138 -73.5 215.5t-205.5 77.5q-126 0 -211.5 -81.5t-85.5 -215.5v-547h-154v1142h-180v139h180v194h154v-194h401v-139z" />
    <glyph glyph-name="Itilde" unicode="&#x128;" horiz-adv-x="578" 
d="M-71 1689q47 58 100.5 85.5t124.5 27.5q47 0 88.5 -12.5t67 -28t57 -28t59.5 -12.5q67 0 133 69l91 -87q-47 -58 -100 -86t-124 -28q-58 0 -107.5 20.5t-89.5 41t-75 20.5q-69 0 -135 -69zM372 0h-165v1434h165v-1434z" />
    <glyph glyph-name="itilde" unicode="&#x129;" horiz-adv-x="512" 
d="M-72 1244q84 104 204 104q54 0 99 -18.5t81 -37t68 -18.5q62 0 121 62l83 -80q-84 -103 -204 -103q-53 0 -98 18.5t-81.5 37.5t-68.5 19q-61 0 -122 -64zM333 0h-154v970h154v-970z" />
    <glyph glyph-name="Imacron" unicode="&#x12a;" horiz-adv-x="578" 
d="M-17 1752h612v-124h-612v124zM372 0h-165v1434h165v-1434z" />
    <glyph glyph-name="imacron" unicode="&#x12b;" horiz-adv-x="512" 
d="M-50 1327h612v-124h-612v124zM333 0h-154v970h154v-970z" />
    <glyph glyph-name="Ibreve" unicode="&#x12c;" horiz-adv-x="578" 
d="M62 1862q58 -196 227 -196t227 196l123 -38q-39 -140 -130 -213.5t-220 -73.5t-219.5 73.5t-129.5 213.5zM372 0h-165v1434h165v-1434z" />
    <glyph glyph-name="ibreve" unicode="&#x12d;" horiz-adv-x="512" 
d="M30 1437q58 -196 226 -196q169 0 227 196l123 -38q-39 -140 -130 -213.5t-220 -73.5t-219.5 73.5t-129.5 213.5zM333 0h-154v970h154v-970z" />
    <glyph glyph-name="Iogonek" unicode="&#x12e;" horiz-adv-x="578" 
d="M500 -340q-85 -85 -200 -85q-97 0 -157.5 49t-60.5 131q0 68 40.5 127t120.5 118h-36v1434h165v-1434h-1q-145 -119 -145 -214q0 -36 24 -57.5t63 -21.5q59 0 105 51z" />
    <glyph glyph-name="iogonek" unicode="&#x12f;" horiz-adv-x="512" 
d="M256 1422q45 0 77 -31.5t32 -76.5t-32 -76.5t-77 -31.5q-46 0 -77 31t-31 77t31 77t77 31zM333 0h-1q-145 -119 -145 -214q0 -36 24 -57.5t63 -21.5q59 0 105 51l82 -98q-85 -85 -200 -85q-97 0 -157.5 49t-60.5 131q0 68 40.5 127t120.5 118h-25v970h154v-970z" />
    <glyph glyph-name="Idotaccent" unicode="&#x130;" horiz-adv-x="578" 
d="M274 1806q47 0 80 -32t33 -79t-33 -79.5t-80 -32.5t-79 32.5t-32 79.5t32 79t79 32zM372 0h-165v1434h165v-1434z" />
    <glyph glyph-name="dotlessi" unicode="&#x131;" horiz-adv-x="512" 
d="M333 0h-154v970h154v-970z" />
    <glyph glyph-name="IJ" unicode="&#x132;" horiz-adv-x="1756" 
d="M372 0h-165v1434h165v-1434zM1560 511q0 -125 -38 -226.5t-105 -167.5t-157.5 -101t-197.5 -35q-275 0 -442 201l110 113q126 -157 331 -157q155 0 245 100t90 289v907h164v-923z" />
    <glyph glyph-name="ij" unicode="&#x133;" horiz-adv-x="1028" 
d="M256 1422q45 0 77 -31.5t32 -76.5t-32 -76.5t-77 -31.5q-46 0 -77 31t-31 77t31 77t77 31zM771 1422q45 0 77 -31.5t32 -76.5t-32 -76.5t-77 -31.5q-46 0 -76.5 31t-30.5 77t30.5 77t76.5 31zM333 0h-154v970h154v-970zM849 -160q0 -127 -65 -196t-177 -69q-78 0 -139 33
l37 132q44 -21 89 -21q101 0 101 128v1123h154v-1130z" />
    <glyph glyph-name="Jcircumflex" unicode="&#x134;" horiz-adv-x="1177" 
d="M1077 1544l-178 194l-179 -194h-164l241 295h204l240 -295h-164zM981 511q0 -125 -38 -226.5t-105 -167.5t-157.5 -101t-197.5 -35q-275 0 -442 201l111 113q126 -157 330 -157q155 0 245 100t90 289v907h164v-923z" />
    <glyph glyph-name="jcircumflex" unicode="&#x135;" horiz-adv-x="516" 
d="M437 1119l-178 194l-179 -194h-164l241 295h204l240 -295h-164zM337 -160q0 -127 -65 -196t-177 -69q-78 0 -139 33l37 132q44 -21 89 -21q101 0 101 128v1123h154v-1130z" />
    <glyph glyph-name="Kcommaaccent" unicode="&#x136;" horiz-adv-x="1421" 
d="M542 643h-170v-643h-165v1434h165v-635h173l595 635h213l-674 -704l718 -730h-225zM816 -90l-76 -359h-135l43 359h168z" />
    <glyph glyph-name="kcommaaccent" unicode="&#x137;" horiz-adv-x="1083" 
d="M333 577h140l374 393h191l-440 -457l448 -513h-194l-380 437h-139v-437h-154v1475h154v-898zM670 -90l-76 -359h-135l43 359h168z" />
    <glyph glyph-name="kgreenlandic" unicode="&#x138;" horiz-adv-x="1074" 
d="M333 577h136l368 393h192l-435 -457l442 -513h-193l-375 437h-135v-437h-154v970h154v-393z" />
    <glyph glyph-name="Lacute" unicode="&#x139;" horiz-adv-x="1242" 
d="M144 1543l214 307h195l-257 -307h-152zM1201 0h-994v1434h165v-1278h829v-156z" />
    <glyph glyph-name="lacute" unicode="&#x13a;" horiz-adv-x="512" 
d="M86 1582l214 307h195l-257 -307h-152zM333 0h-154v1475h154v-1475z" />
    <glyph glyph-name="Lcommaaccent" unicode="&#x13b;" horiz-adv-x="1242" 
d="M1201 0h-994v1434h165v-1278h829v-156zM800 -90l-76 -359h-135l43 359h168z" />
    <glyph glyph-name="lcommaaccent" unicode="&#x13c;" horiz-adv-x="512" 
d="M333 0h-154v1475h154v-1475zM353 -90l-75 -359h-136l43 359h168z" />
    <glyph glyph-name="Lcaron" unicode="&#x13d;" horiz-adv-x="1242" 
d="M1201 0h-994v1434h165v-1278h829v-156zM615 1035l8 399h156l-35 -399h-129z" />
    <glyph glyph-name="lcaron" unicode="&#x13e;" horiz-adv-x="556" 
d="M333 0h-154v1475h154v-1475zM442 1076l8 399h156l-35 -399h-129z" />
    <glyph glyph-name="Ldot" unicode="&#x13f;" horiz-adv-x="1242" 
d="M1201 0h-994v1434h165v-1278h829v-156zM878 834q47 0 79.5 -32.5t32.5 -79.5t-32.5 -79.5t-79.5 -32.5t-79.5 32.5t-32.5 79.5t32.5 79.5t79.5 32.5z" />
    <glyph glyph-name="ldot" unicode="&#x140;" horiz-adv-x="627" 
d="M333 0h-154v1475h154v-1475zM565 856q45 0 77 -31.5t32 -76.5t-32 -76.5t-77 -31.5q-46 0 -76.5 31t-30.5 77t30.5 77t76.5 31z" />
    <glyph glyph-name="Lslash" unicode="&#x141;" horiz-adv-x="1378" 
d="M1337 0h-994v515l-219 -123v176l219 123v743h165v-651l529 297v-176l-529 -297v-451h829v-156z" />
    <glyph glyph-name="lslash" unicode="&#x142;" horiz-adv-x="686" 
d="M419 898l213 152v-159l-213 -152v-739h-154v631l-211 -150v159l211 150v685h154v-577z" />
    <glyph glyph-name="Nacute" unicode="&#x143;" horiz-adv-x="1614" 
d="M663 1543l214 307h194l-257 -307h-151zM1408 0h-148l-888 1151v-1151h-165v1434h148l888 -1151v1151h165v-1434z" />
    <glyph glyph-name="nacute" unicode="&#x144;" horiz-adv-x="1229" 
d="M499 1118l214 307h194l-257 -307h-151zM657 989q181 0 293 -106.5t112 -281.5v-601h-153v551q0 138 -73.5 215.5t-205.5 77.5q-126 0 -211.5 -81.5t-85.5 -215.5v-547h-154v970h152v-139q56 82 142.5 120t183.5 38z" />
    <glyph glyph-name="Ncommaaccent" unicode="&#x145;" horiz-adv-x="1614" 
d="M1408 0h-148l-888 1151v-1151h-165v1434h148l888 -1151v1151h165v-1434zM907 -90l-76 -359h-135l43 359h168z" />
    <glyph glyph-name="ncommaaccent" unicode="&#x146;" horiz-adv-x="1229" 
d="M657 989q181 0 293 -106.5t112 -281.5v-601h-153v551q0 138 -73.5 215.5t-205.5 77.5q-126 0 -211.5 -81.5t-85.5 -215.5v-547h-154v970h152v-139q56 82 142.5 120t183.5 38zM717 -90l-76 -359h-135l43 359h168z" />
    <glyph glyph-name="Ncaron" unicode="&#x147;" horiz-adv-x="1614" 
d="M628 1837l179 -193l178 193h164l-240 -295h-204l-241 295h164zM1408 0h-148l-888 1151v-1151h-165v1434h148l888 -1151v1151h165v-1434z" />
    <glyph glyph-name="ncaron" unicode="&#x148;" horiz-adv-x="1229" 
d="M453 1412l179 -193l178 193h164l-240 -295h-205l-240 295h164zM657 989q181 0 293 -106.5t112 -281.5v-601h-153v551q0 138 -73.5 215.5t-205.5 77.5q-126 0 -211.5 -81.5t-85.5 -215.5v-547h-154v970h152v-139q56 82 142.5 120t183.5 38z" />
    <glyph glyph-name="napostrophe" unicode="&#x149;" horiz-adv-x="1511" 
d="M370 1475l-108 -520h-132l61 520h179zM939 989q181 0 292.5 -106.5t111.5 -281.5v-601h-152v551q0 138 -73.5 215.5t-206.5 77.5q-126 0 -211.5 -81.5t-85.5 -215.5v-547h-153v970h151v-139q56 82 142.5 120t184.5 38z" />
    <glyph glyph-name="Eng" unicode="&#x14a;" horiz-adv-x="1614" 
d="M1408 -38q0 -174 -86 -280.5t-262 -106.5q-148 0 -268 66l60 143q91 -50 190 -50q103 0 152 62t49 173v51l-871 1131v-1151h-165v1434h148l888 -1151v1151h165v-1472z" />
    <glyph glyph-name="eng" unicode="&#x14b;" horiz-adv-x="1229" 
d="M657 989q181 0 293 -106.5t112 -281.5v-680q0 -127 -65 -196t-176 -69q-78 0 -139 33l37 132q44 -21 88 -21q102 0 102 128v623q0 138 -73.5 215.5t-205.5 77.5q-126 0 -211.5 -81.5t-85.5 -215.5v-547h-154v970h152v-139q56 82 142.5 120t183.5 38z" />
    <glyph glyph-name="Omacron" unicode="&#x14c;" horiz-adv-x="1729" 
d="M558 1752h612v-124h-612v124zM864 1454q158 0 295.5 -55t235.5 -151.5t154 -234t56 -296.5t-56 -296.5t-154 -234t-235.5 -151.5t-295.5 -55t-295 55t-235 151.5t-154 234t-56 296.5t56 296.5t154 234t235 151.5t295 55zM864 1295q-160 0 -289 -72t-203.5 -204.5
t-74.5 -301.5t74.5 -302t203.5 -205t289 -72q120 0 225 42.5t181 117.5t119.5 183.5t43.5 235.5q0 169 -74.5 301.5t-204 204.5t-290.5 72z" />
    <glyph glyph-name="omacron" unicode="&#x14d;" horiz-adv-x="1231" 
d="M309 1327h613v-124h-613v124zM615 989q219 0 365 -144.5t146 -359.5q0 -216 -146 -360t-365 -144t-364.5 144t-145.5 360q0 106 39 199.5t106.5 160.5t162 105.5t202.5 38.5zM615 846q-152 0 -253 -102.5t-101 -258.5q0 -157 101 -259t253 -102t253.5 102t101.5 259
q0 156 -101.5 258.5t-253.5 102.5z" />
    <glyph glyph-name="Obreve" unicode="&#x14e;" horiz-adv-x="1729" 
d="M638 1862q58 -196 226 -196q170 0 228 196l122 -38q-39 -140 -130 -213.5t-220 -73.5t-219.5 73.5t-129.5 213.5zM864 1454q158 0 295.5 -55t235.5 -151.5t154 -234t56 -296.5t-56 -296.5t-154 -234t-235.5 -151.5t-295.5 -55t-295 55t-235 151.5t-154 234t-56 296.5
t56 296.5t154 234t235 151.5t295 55zM864 1295q-160 0 -289 -72t-203.5 -204.5t-74.5 -301.5t74.5 -302t203.5 -205t289 -72q120 0 225 42.5t181 117.5t119.5 183.5t43.5 235.5q0 169 -74.5 301.5t-204 204.5t-290.5 72z" />
    <glyph glyph-name="obreve" unicode="&#x14f;" horiz-adv-x="1231" 
d="M389 1437q58 -196 226 -196q170 0 228 196l123 -38q-39 -140 -130 -213.5t-221 -73.5q-129 0 -219.5 73.5t-129.5 213.5zM615 989q219 0 365 -144.5t146 -359.5q0 -216 -146 -360t-365 -144t-364.5 144t-145.5 360q0 106 39 199.5t106.5 160.5t162 105.5t202.5 38.5z
M615 846q-152 0 -253 -102.5t-101 -258.5q0 -157 101 -259t253 -102t253.5 102t101.5 259q0 156 -101.5 258.5t-253.5 102.5z" />
    <glyph glyph-name="Ohungarumlaut" unicode="&#x150;" horiz-adv-x="1729" 
d="M582 1543l204 307h173l-221 -307h-156zM934 1543l220 307h179l-246 -307h-153zM864 1454q158 0 295.5 -55t235.5 -151.5t154 -234t56 -296.5t-56 -296.5t-154 -234t-235.5 -151.5t-295.5 -55t-295 55t-235 151.5t-154 234t-56 296.5t56 296.5t154 234t235 151.5t295 55z
M864 1295q-160 0 -289 -72t-203.5 -204.5t-74.5 -301.5t74.5 -302t203.5 -205t289 -72q120 0 225 42.5t181 117.5t119.5 183.5t43.5 235.5q0 169 -74.5 301.5t-204 204.5t-290.5 72z" />
    <glyph glyph-name="ohungarumlaut" unicode="&#x151;" horiz-adv-x="1231" 
d="M348 1118l205 307h173l-221 -307h-157zM700 1118l221 307h179l-246 -307h-154zM615 989q219 0 365 -144.5t146 -359.5q0 -216 -146 -360t-365 -144t-364.5 144t-145.5 360q0 106 39 199.5t106.5 160.5t162 105.5t202.5 38.5zM615 846q-152 0 -253 -102.5t-101 -258.5
q0 -157 101 -259t253 -102t253.5 102t101.5 259q0 156 -101.5 258.5t-253.5 102.5z" />
    <glyph glyph-name="OE" unicode="&#x152;" horiz-adv-x="2311" 
d="M2146 0h-1257q-351 0 -558 194.5t-207 522.5t207 522.5t558 194.5h1248v-155h-834v-480h808v-154h-808v-490h843v-155zM297 717q0 -259 153.5 -410t438.5 -151h249v1122h-249q-285 0 -438.5 -151.5t-153.5 -409.5z" />
    <glyph glyph-name="oe" unicode="&#x153;" horiz-adv-x="2012" 
d="M1451 989q198 0 326 -140t130 -361q0 -6 -3 -57h-778q16 -151 111 -233.5t232 -82.5q175 0 308 122l82 -105q-158 -151 -399 -151q-142 0 -251.5 62.5t-169.5 175.5q-65 -110 -176.5 -174t-247.5 -64q-219 0 -364.5 144t-145.5 360q0 106 39 199.5t106.5 160.5t162 105.5
t202.5 38.5q137 0 249 -65t176 -176q60 113 168 177t243 64zM1448 853q-131 0 -216 -82t-104 -216h623q-14 135 -96.5 216.5t-206.5 81.5zM615 846q-152 0 -253 -102.5t-101 -258.5q0 -157 101 -259t253 -102t253.5 102t101.5 259q0 156 -101.5 258.5t-253.5 102.5z" />
    <glyph glyph-name="Racute" unicode="&#x154;" horiz-adv-x="1385" 
d="M535 1543l214 307h194l-257 -307h-151zM769 1434q242 0 371.5 -105t129.5 -300q0 -186 -135 -295.5t-364 -109.5h-23l515 -624h-205l-505 624h-181v-624h-165v1434h562zM372 1279v-506h395q163 0 247.5 65.5t84.5 190.5q0 124 -85 187t-247 63h-395z" />
    <glyph glyph-name="racute" unicode="&#x155;" horiz-adv-x="849" 
d="M353 1118l214 307h195l-257 -307h-152zM618 989q109 0 179 -33l-37 -150q-71 39 -168 39q-115 0 -187.5 -83t-72.5 -219v-543h-153v970h152v-136q51 75 124.5 115t162.5 40z" />
    <glyph glyph-name="Rcommaaccent" unicode="&#x156;" horiz-adv-x="1385" 
d="M769 1434q242 0 371.5 -105t129.5 -300q0 -186 -135 -295.5t-364 -109.5h-23l515 -624h-205l-505 624h-181v-624h-165v1434h562zM372 1279v-506h395q163 0 247.5 65.5t84.5 190.5q0 124 -85 187t-247 63h-395zM787 -90l-75 -359h-135l43 359h167z" />
    <glyph glyph-name="rcommaaccent" unicode="&#x157;" horiz-adv-x="849" 
d="M618 989q109 0 179 -33l-37 -150q-71 39 -168 39q-115 0 -187.5 -83t-72.5 -219v-543h-153v970h152v-136q51 75 124.5 115t162.5 40zM354 -90l-75 -359h-136l43 359h168z" />
    <glyph glyph-name="Rcaron" unicode="&#x158;" horiz-adv-x="1385" 
d="M500 1837l179 -193l178 193h164l-240 -295h-204l-241 295h164zM769 1434q242 0 371.5 -105t129.5 -300q0 -186 -135 -295.5t-364 -109.5h-23l515 -624h-205l-505 624h-181v-624h-165v1434h562zM372 1279v-506h395q163 0 247.5 65.5t84.5 190.5q0 124 -85 187t-247 63
h-395z" />
    <glyph glyph-name="rcaron" unicode="&#x159;" horiz-adv-x="849" 
d="M307 1412l179 -193l179 193h163l-239 -295h-205l-241 295h164zM618 989q109 0 179 -33l-37 -150q-71 39 -168 39q-115 0 -187.5 -83t-72.5 -219v-543h-153v970h152v-136q51 75 124.5 115t162.5 40z" />
    <glyph glyph-name="Sacute" unicode="&#x15a;" horiz-adv-x="1378" 
d="M586 1543l214 307h194l-257 -307h-151zM1143 1162q-197 134 -432 134q-165 0 -268 -69.5t-103 -189.5q0 -99 81.5 -155.5t249.5 -76.5l136 -17q74 -9 137.5 -26t122 -47.5t99 -71.5t64.5 -100t24 -131q0 -137 -78 -236.5t-204.5 -147t-284.5 -47.5q-155 0 -308 50
t-255 134l90 131q79 -67 209 -113.5t263 -46.5q174 0 285.5 68.5t111.5 192.5q0 102 -86.5 158.5t-260.5 76.5l-144 16q-195 22 -309 115.5t-114 263.5q0 132 73.5 230t195.5 146.5t274 48.5q290 0 515 -157z" />
    <glyph glyph-name="sacute" unicode="&#x15b;" horiz-adv-x="1010" 
d="M393 1118l214 307h195l-257 -307h-152zM830 764q-52 36 -139 63.5t-178 27.5q-104 0 -166.5 -41.5t-62.5 -111.5q0 -113 197 -136l115 -14q326 -43 326 -270q0 -138 -115.5 -219t-311.5 -81q-242 0 -405 123l71 115q136 -105 336 -105q125 0 196 40.5t71 115.5
q0 118 -203 142l-116 13q-161 20 -240.5 89t-79.5 179q0 136 105.5 215t281.5 79q111 0 212 -28.5t173 -76.5z" />
    <glyph glyph-name="Scircumflex" unicode="&#x15c;" horiz-adv-x="1378" 
d="M908 1544l-178 194l-179 -194h-164l241 295h205l239 -295h-164zM1143 1162q-197 134 -432 134q-165 0 -268 -69.5t-103 -189.5q0 -99 81.5 -155.5t249.5 -76.5l136 -17q74 -9 137.5 -26t122 -47.5t99 -71.5t64.5 -100t24 -131q0 -137 -78 -236.5t-204.5 -147
t-284.5 -47.5q-155 0 -308 50t-255 134l90 131q79 -67 209 -113.5t263 -46.5q174 0 285.5 68.5t111.5 192.5q0 102 -86.5 158.5t-260.5 76.5l-144 16q-195 22 -309 115.5t-114 263.5q0 132 73.5 230t195.5 146.5t274 48.5q290 0 515 -157z" />
    <glyph glyph-name="scircumflex" unicode="&#x15d;" horiz-adv-x="1010" 
d="M705 1119l-179 194l-179 -194h-164l241 295h205l239 -295h-163zM830 764q-52 36 -139 63.5t-178 27.5q-104 0 -166.5 -41.5t-62.5 -111.5q0 -113 197 -136l115 -14q326 -43 326 -270q0 -138 -115.5 -219t-311.5 -81q-242 0 -405 123l71 115q136 -105 336 -105
q125 0 196 40.5t71 115.5q0 118 -203 142l-116 13q-161 20 -240.5 89t-79.5 179q0 136 105.5 215t281.5 79q111 0 212 -28.5t173 -76.5z" />
    <glyph glyph-name="Scedilla" unicode="&#x15e;" horiz-adv-x="1378" 
d="M1143 1162q-197 134 -432 134q-165 0 -268 -69.5t-103 -189.5q0 -99 81.5 -155.5t249.5 -76.5l136 -17q74 -9 137.5 -26t122 -47.5t99 -71.5t64.5 -100t24 -131q0 -182 -130 -292t-336 -133l-99 -318h-167l106 314q-142 9 -277 58t-227 124l90 131q79 -67 209 -113.5
t263 -46.5q174 0 285.5 68.5t111.5 192.5q0 102 -86.5 158.5t-260.5 76.5l-144 16q-195 22 -309 115.5t-114 263.5q0 132 73.5 230t195.5 146.5t274 48.5q290 0 515 -157z" />
    <glyph glyph-name="scedilla" unicode="&#x15f;" horiz-adv-x="1010" 
d="M830 764q-52 36 -139 63.5t-178 27.5q-104 0 -166.5 -41.5t-62.5 -111.5q0 -113 197 -136l115 -14q326 -43 326 -270q0 -117 -84.5 -194t-232.5 -98l-100 -321h-160l104 315q-215 11 -359 121l71 115q136 -105 336 -105q125 0 196 40.5t71 115.5q0 118 -203 142l-116 13
q-161 20 -240.5 89t-79.5 179q0 136 105.5 215t281.5 79q111 0 212 -28.5t173 -76.5z" />
    <glyph glyph-name="Scaron" unicode="&#x160;" horiz-adv-x="1378" 
d="M551 1837l179 -193l178 193h164l-239 -295h-205l-241 295h164zM1143 1162q-197 134 -432 134q-165 0 -268 -69.5t-103 -189.5q0 -99 81.5 -155.5t249.5 -76.5l136 -17q74 -9 137.5 -26t122 -47.5t99 -71.5t64.5 -100t24 -131q0 -137 -78 -236.5t-204.5 -147t-284.5 -47.5
q-155 0 -308 50t-255 134l90 131q79 -67 209 -113.5t263 -46.5q174 0 285.5 68.5t111.5 192.5q0 102 -86.5 158.5t-260.5 76.5l-144 16q-195 22 -309 115.5t-114 263.5q0 132 73.5 230t195.5 146.5t274 48.5q290 0 515 -157z" />
    <glyph glyph-name="scaron" unicode="&#x161;" horiz-adv-x="1010" 
d="M347 1412l179 -193l179 193h163l-239 -295h-205l-241 295h164zM830 764q-52 36 -139 63.5t-178 27.5q-104 0 -166.5 -41.5t-62.5 -111.5q0 -113 197 -136l115 -14q326 -43 326 -270q0 -138 -115.5 -219t-311.5 -81q-242 0 -405 123l71 115q136 -105 336 -105
q125 0 196 40.5t71 115.5q0 118 -203 142l-116 13q-161 20 -240.5 89t-79.5 179q0 136 105.5 215t281.5 79q111 0 212 -28.5t173 -76.5z" />
    <glyph glyph-name="uni0162" unicode="&#x162;" horiz-adv-x="1241" 
d="M1200 1278h-498v-1278h-3l-103 -331h-167l112 331h-2v1278h-498v156h1159v-156z" />
    <glyph glyph-name="uni0163" unicode="&#x163;" horiz-adv-x="927" 
d="M838 831h-419v-489q0 -110 51.5 -164t140.5 -54q110 0 204 69l72 -116q-104 -80 -239 -93l-98 -315h-160l107 323q-112 25 -171.5 112t-59.5 235v492h-212v139h212v308h153v-308h419v-139z" />
    <glyph glyph-name="Tcaron" unicode="&#x164;" horiz-adv-x="1241" 
d="M441 1837l180 -193l178 193h164l-240 -295h-205l-240 295h163zM1200 1278h-498v-1278h-163v1278h-498v156h1159v-156z" />
    <glyph glyph-name="tcaron" unicode="&#x165;" horiz-adv-x="927" 
d="M548 1076l7 399h157l-35 -399h-129zM838 831h-419v-489q0 -110 51.5 -164t140.5 -54q110 0 204 69l72 -116q-127 -96 -288 -96q-160 0 -246.5 89.5t-86.5 268.5v492h-212v139h212v308h153v-308h419v-139z" />
    <glyph glyph-name="Tbar" unicode="&#x166;" horiz-adv-x="1241" 
d="M1028 644h-326v-644h-163v644h-326v156h326v478h-498v156h1159v-156h-498v-478h326v-156z" />
    <glyph glyph-name="tbar" unicode="&#x167;" horiz-adv-x="927" 
d="M838 831h-419v-227h314v-139h-314v-123q0 -110 51.5 -164t140.5 -54q110 0 204 69l72 -116q-127 -96 -288 -96q-160 0 -246.5 89.5t-86.5 268.5v126h-204v139h204v227h-212v139h212v308h153v-308h419v-139z" />
    <glyph glyph-name="Utilde" unicode="&#x168;" horiz-adv-x="1553" 
d="M417 1689q47 58 100 85.5t124 27.5q47 0 88.5 -12.5t67 -28t57 -28t59.5 -12.5q68 0 134 69l91 -87q-92 -114 -225 -114q-58 0 -107.5 20.5t-89.5 41t-75 20.5q-68 0 -134 -69zM1367 561q0 -142 -46 -254t-127 -182.5t-187 -107t-231 -36.5t-231 36.5t-186.5 107
t-126.5 182.5t-46 254v873h164v-861q0 -216 116.5 -325.5t309.5 -109.5t309.5 109.5t116.5 325.5v861h165v-873z" />
    <glyph glyph-name="utilde" unicode="&#x169;" horiz-adv-x="1216" 
d="M281 1244q43 53 91 78.5t112 25.5q54 0 99 -18.5t81 -37t68 -18.5q62 0 121 62l83 -80q-84 -103 -204 -103q-53 0 -98 18.5t-81.5 37.5t-68.5 19q-61 0 -122 -64zM1049 404q0 -105 -36 -187t-97.5 -133t-140 -77t-167.5 -26q-90 0 -168 26t-139.5 77t-97 133t-35.5 187
v566h153v-551q0 -145 78.5 -220t208.5 -75t208.5 75t78.5 220v551h154v-566z" />
    <glyph glyph-name="Umacron" unicode="&#x16a;" horiz-adv-x="1553" 
d="M470 1752h612v-124h-612v124zM1367 561q0 -142 -46 -254t-127 -182.5t-187 -107t-231 -36.5t-231 36.5t-186.5 107t-126.5 182.5t-46 254v873h164v-861q0 -216 116.5 -325.5t309.5 -109.5t309.5 109.5t116.5 325.5v861h165v-873z" />
    <glyph glyph-name="umacron" unicode="&#x16b;" horiz-adv-x="1216" 
d="M302 1327h612v-124h-612v124zM1049 404q0 -105 -36 -187t-97.5 -133t-140 -77t-167.5 -26q-90 0 -168 26t-139.5 77t-97 133t-35.5 187v566h153v-551q0 -145 78.5 -220t208.5 -75t208.5 75t78.5 220v551h154v-566z" />
    <glyph glyph-name="Ubreve" unicode="&#x16c;" horiz-adv-x="1553" 
d="M550 1862q58 -196 226 -196q170 0 228 196l122 -38q-39 -140 -130 -213.5t-220 -73.5t-219.5 73.5t-129.5 213.5zM1367 561q0 -142 -46 -254t-127 -182.5t-187 -107t-231 -36.5t-231 36.5t-186.5 107t-126.5 182.5t-46 254v873h164v-861q0 -216 116.5 -325.5
t309.5 -109.5t309.5 109.5t116.5 325.5v861h165v-873z" />
    <glyph glyph-name="ubreve" unicode="&#x16d;" horiz-adv-x="1216" 
d="M382 1437q58 -196 226 -196q170 0 228 196l122 -38q-39 -140 -130 -213.5t-220 -73.5t-219.5 73.5t-129.5 213.5zM1049 404q0 -105 -36 -187t-97.5 -133t-140 -77t-167.5 -26q-90 0 -168 26t-139.5 77t-97 133t-35.5 187v566h153v-551q0 -145 78.5 -220t208.5 -75
t208.5 75t78.5 220v551h154v-566z" />
    <glyph glyph-name="Uring" unicode="&#x16e;" horiz-adv-x="1553" 
d="M776 1523q-95 0 -163.5 67.5t-68.5 162.5q0 94 68.5 161.5t163.5 67.5q96 0 165 -67.5t69 -161.5q0 -95 -69 -162.5t-165 -67.5zM776 1620q54 0 92.5 38.5t38.5 94.5q0 55 -38.5 93.5t-92.5 38.5t-92 -38.5t-38 -93.5q0 -56 38 -94.5t92 -38.5zM1367 561q0 -142 -46 -254
t-127 -182.5t-187 -107t-231 -36.5t-231 36.5t-186.5 107t-126.5 182.5t-46 254v873h164v-861q0 -216 116.5 -325.5t309.5 -109.5t309.5 109.5t116.5 325.5v861h165v-873z" />
    <glyph glyph-name="uring" unicode="&#x16f;" horiz-adv-x="1216" 
d="M607 1098q-95 0 -163.5 67.5t-68.5 162.5q0 94 68.5 162t163.5 68q96 0 165 -68t69 -162q0 -95 -69 -162.5t-165 -67.5zM607 1195q54 0 92.5 38.5t38.5 94.5q0 55 -38.5 93.5t-92.5 38.5t-92 -38.5t-38 -93.5q0 -56 38 -94.5t92 -38.5zM1049 404q0 -105 -36 -187
t-97.5 -133t-140 -77t-167.5 -26q-90 0 -168 26t-139.5 77t-97 133t-35.5 187v566h153v-551q0 -145 78.5 -220t208.5 -75t208.5 75t78.5 220v551h154v-566z" />
    <glyph glyph-name="Uhungarumlaut" unicode="&#x170;" horiz-adv-x="1553" 
d="M494 1543l204 307h173l-221 -307h-156zM846 1543l220 307h179l-246 -307h-153zM1367 561q0 -142 -46 -254t-127 -182.5t-187 -107t-231 -36.5t-231 36.5t-186.5 107t-126.5 182.5t-46 254v873h164v-861q0 -216 116.5 -325.5t309.5 -109.5t309.5 109.5t116.5 325.5v861
h165v-873z" />
    <glyph glyph-name="uhungarumlaut" unicode="&#x171;" horiz-adv-x="1216" 
d="M341 1118l205 307h173l-221 -307h-157zM693 1118l220 307h180l-246 -307h-154zM1049 404q0 -105 -36 -187t-97.5 -133t-140 -77t-167.5 -26q-90 0 -168 26t-139.5 77t-97 133t-35.5 187v566h153v-551q0 -145 78.5 -220t208.5 -75t208.5 75t78.5 220v551h154v-566z" />
    <glyph glyph-name="Uogonek" unicode="&#x172;" horiz-adv-x="1553" 
d="M1228 -333q-97 -92 -238 -92q-119 0 -193 59.5t-74 151.5q0 117 114 197q-44 -2 -61 -2q-125 0 -231 36.5t-186.5 107t-126.5 182.5t-46 254v873h164v-861q0 -216 116.5 -325.5t309.5 -109.5t309.5 109.5t116.5 325.5v861h165v-873q0 -186 -76 -315.5t-209 -199.5
q-108 -57 -159 -111t-51 -121q0 -47 34.5 -77t92.5 -30q82 0 147 60z" />
    <glyph glyph-name="uogonek" unicode="&#x173;" horiz-adv-x="1216" 
d="M1011 -333q-97 -92 -238 -92q-119 0 -193 59.5t-74 151.5q0 117 109 195h-7q-90 0 -168 26t-139.5 77t-97 133t-35.5 187v566h153v-551q0 -145 78.5 -220t208.5 -75t208.5 75t78.5 220v551h154v-566q0 -261 -216 -376q-178 -94 -178 -214q0 -47 34.5 -77t92.5 -30
q82 0 147 60z" />
    <glyph glyph-name="Wcircumflex" unicode="&#x174;" horiz-adv-x="2249" 
d="M1303 1544l-179 194l-179 -194h-164l241 295h205l239 -295h-163zM1724 0h-202l-398 1214l-397 -1214h-202l-466 1434h172l397 -1248l405 1248h187l404 -1249l397 1249h169z" />
    <glyph glyph-name="wcircumflex" unicode="&#x175;" horiz-adv-x="1746" 
d="M1052 1119l-179 194l-179 -194h-164l241 295h205l239 -295h-163zM1250 159l292 811h159l-359 -970h-181l-290 806l-288 -806h-179l-358 970h163l290 -810l288 810h172z" />
    <glyph glyph-name="Ycircumflex" unicode="&#x176;" horiz-adv-x="1317" 
d="M840 1544l-178 194l-180 -194h-164l241 295h205l240 -295h-164zM742 601v-601h-163v603l-568 831h197l454 -680l453 680h192z" />
    <glyph glyph-name="ycircumflex" unicode="&#x177;" horiz-adv-x="1079" 
d="M723 1119l-178 194l-179 -194h-164l240 295h205l240 -295h-164zM274 -414h-169l362 624l-445 760h171l361 -609l342 609h168z" />
    <glyph glyph-name="Ydieresis" unicode="&#x178;" horiz-adv-x="1317" 
d="M454 1800q45 0 76.5 -31.5t31.5 -77.5t-31.5 -77t-76.5 -31q-46 0 -77.5 31t-31.5 77t31.5 77.5t77.5 31.5zM869 1800q45 0 77 -31.5t32 -77.5q0 -45 -32 -76.5t-77 -31.5q-46 0 -76.5 31t-30.5 77t30.5 77.5t76.5 31.5zM742 601v-601h-163v603l-568 831h197l454 -680
l453 680h192z" />
    <glyph glyph-name="Zacute" unicode="&#x179;" horiz-adv-x="1345" 
d="M532 1543l214 307h195l-257 -307h-152zM1219 1307l-876 -1151h879v-156h-1098v127l876 1151h-866v156h1085v-127z" />
    <glyph glyph-name="zacute" unicode="&#x17a;" horiz-adv-x="1080" 
d="M412 1118l214 307h194l-257 -307h-151zM946 858l-618 -720h627v-138h-830v111l625 720h-607v139h803v-112z" />
    <glyph glyph-name="Zdotaccent" unicode="&#x17b;" horiz-adv-x="1345" 
d="M663 1806q47 0 79.5 -32t32.5 -79t-32.5 -79.5t-79.5 -32.5t-79.5 32.5t-32.5 79.5t32.5 79t79.5 32zM1219 1307l-876 -1151h879v-156h-1098v127l876 1151h-866v156h1085v-127z" />
    <glyph glyph-name="zdotaccent" unicode="&#x17c;" horiz-adv-x="1080" 
d="M545 1422q45 0 76.5 -31t31.5 -77t-31.5 -77t-76.5 -31q-46 0 -77 31t-31 77t31 77t77 31zM946 858l-618 -720h627v-138h-830v111l625 720h-607v139h803v-112z" />
    <glyph glyph-name="Zcaron" unicode="&#x17d;" horiz-adv-x="1345" 
d="M498 1837l179 -193l178 193h164l-240 -295h-205l-240 295h164zM1219 1307l-876 -1151h879v-156h-1098v127l876 1151h-866v156h1085v-127z" />
    <glyph glyph-name="zcaron" unicode="&#x17e;" horiz-adv-x="1080" 
d="M366 1412l179 -193l178 193h164l-240 -295h-205l-240 295h164zM946 858l-618 -720h627v-138h-830v111l625 720h-607v139h803v-112z" />
    <glyph glyph-name="longs" unicode="&#x17f;" horiz-adv-x="660" 
d="M493 1494q145 0 265 -73l-55 -128q-99 58 -200 58q-179 0 -179 -215v-1136h-154v1136q0 164 79.5 261t243.5 97z" />
    <glyph glyph-name="uni018F" unicode="&#x18f;" horiz-adv-x="1660" 
d="M813 1453q151 0 285 -55.5t230 -152t152 -234t56 -294.5t-55 -294.5t-149 -234t-225 -152t-279 -55.5q-204 0 -364.5 93t-250 258.5t-89.5 374.5q0 13 0.5 27t1.5 31t1 27h1236q-17 146 -92.5 261t-195 178.5t-261.5 63.5q-277 0 -469 -223l-115 113q237 268 583 268z
M829 138q208 0 358 139.5t175 360.5h-1058q12 -218 159.5 -359t365.5 -141z" />
    <glyph glyph-name="florin" unicode="&#x192;" horiz-adv-x="1433" 
d="M1106 673h-319l-34 -357q-33 -334 -299 -334q-136 0 -239 66l52 123q81 -51 177 -51q140 0 159 196l36 357h-267v139h281l31 305q33 335 298 335q133 0 240 -67l-54 -122q-81 51 -177 51q-139 0 -158 -197l-31 -305h304v-139z" />
    <glyph glyph-name="Ohorn" unicode="&#x1a0;" horiz-adv-x="1729" 
d="M1238 1363q171 -93 269 -262t98 -384q0 -159 -56 -296.5t-154 -234t-235.5 -151.5t-295.5 -55t-295 55t-235 151.5t-154 234t-56 296.5t56 296.5t154 234t235 151.5t295 55q97 0 186 -20q83 1 122.5 30.5t66.5 123.5h123q-18 -149 -124 -225zM864 138q120 0 225 42.5
t181 117.5t119.5 183.5t43.5 235.5q0 169 -74.5 301.5t-204 204.5t-290.5 72q-160 0 -289 -72t-203.5 -204.5t-74.5 -301.5t74.5 -302t203.5 -205t289 -72z" />
    <glyph glyph-name="ohorn" unicode="&#x1a1;" horiz-adv-x="1231" 
d="M931 888q92 -69 143.5 -174t51.5 -229q0 -216 -146 -360t-365 -144t-364.5 144t-145.5 360q0 106 39 199.5t106.5 160.5t162 105.5t202.5 38.5q74 0 147 -19q82 1 121.5 31t66.5 123h123q-19 -161 -142 -236zM615 124q152 0 253.5 102t101.5 259q0 156 -101.5 258.5
t-253.5 102.5t-253 -102.5t-101 -258.5q0 -157 101 -259t253 -102z" />
    <glyph glyph-name="Uhorn" unicode="&#x1af;" horiz-adv-x="1553" 
d="M1572 1588q-13 -101 -66.5 -169.5t-138.5 -96.5v-761q0 -142 -46 -254t-127 -182.5t-187 -107t-231 -36.5t-231 36.5t-186.5 107t-126.5 182.5t-46 254v873h164v-861q0 -216 116.5 -325.5t309.5 -109.5t309.5 109.5t116.5 325.5v861h51q87 0 127.5 29.5t68.5 124.5h123z
" />
    <glyph glyph-name="uhorn" unicode="&#x1b0;" horiz-adv-x="1216" 
d="M1251 1124q-13 -100 -65.5 -168.5t-136.5 -96.5v-455q0 -105 -36 -187t-97.5 -133t-140 -77t-167.5 -26q-90 0 -168 26t-139.5 77t-97 133t-35.5 187v566h153v-551q0 -145 78.5 -220t208.5 -75t208.5 75t78.5 220v551h38q86 0 126.5 29.5t68.5 124.5h123z" />
    <glyph glyph-name="uni01B5" unicode="&#x1b5;" horiz-adv-x="1345" 
d="M1082 640h-371l-368 -484h879v-156h-1098v127l394 518h-255v152h371l366 481h-866v156h1085v-127l-393 -515h256v-152z" />
    <glyph glyph-name="uni01B6" unicode="&#x1b6;" horiz-adv-x="1080" 
d="M873 432h-293l-252 -294h627v-138h-830v111l284 326h-196v118h296l242 276h-608v139h803v-112l-264 -308h191v-118z" />
    <glyph glyph-name="uni01CD" unicode="&#x1cd;" horiz-adv-x="1455" 
d="M549 1837l179 -193l178 193h164l-240 -295h-204l-241 295h164zM1418 0h-176l-163 399h-709l-162 -399h-171l589 1434h203zM433 555h584l-292 716z" />
    <glyph glyph-name="uni01CE" unicode="&#x1ce;" horiz-adv-x="1275" 
d="M446 1412l180 -193l178 193h164l-240 -295h-205l-240 295h163zM1097 0h-153v144q-127 -163 -354 -163q-206 0 -345.5 143.5t-139.5 360.5t140 360.5t345 143.5q225 0 354 -164v145h153v-970zM608 846q-153 0 -250 -104t-97 -257t97.5 -257t249.5 -104q151 0 248 103
t97 258t-97.5 258t-247.5 103z" />
    <glyph glyph-name="uni01CF" unicode="&#x1cf;" horiz-adv-x="578" 
d="M110 1837l179 -193l178 193h164l-240 -295h-205l-240 295h164zM372 0h-165v1434h165v-1434z" />
    <glyph glyph-name="uni01D0" unicode="&#x1d0;" horiz-adv-x="512" 
d="M77 1412l179 -193l178 193h164l-240 -295h-204l-241 295h164zM333 0h-154v970h154v-970z" />
    <glyph glyph-name="uni01D1" unicode="&#x1d1;" horiz-adv-x="1729" 
d="M685 1837l179 -193l178 193h164l-239 -295h-205l-241 295h164zM864 1454q158 0 295.5 -55t235.5 -151.5t154 -234t56 -296.5t-56 -296.5t-154 -234t-235.5 -151.5t-295.5 -55t-295 55t-235 151.5t-154 234t-56 296.5t56 296.5t154 234t235 151.5t295 55zM864 1295
q-160 0 -289 -72t-203.5 -204.5t-74.5 -301.5t74.5 -302t203.5 -205t289 -72q120 0 225 42.5t181 117.5t119.5 183.5t43.5 235.5q0 169 -74.5 301.5t-204 204.5t-290.5 72z" />
    <glyph glyph-name="uni01D2" unicode="&#x1d2;" horiz-adv-x="1231" 
d="M436 1412l179 -193l179 193h163l-239 -295h-205l-241 295h164zM615 989q219 0 365 -144.5t146 -359.5q0 -216 -146 -360t-365 -144t-364.5 144t-145.5 360q0 106 39 199.5t106.5 160.5t162 105.5t202.5 38.5zM615 846q-152 0 -253 -102.5t-101 -258.5q0 -157 101 -259
t253 -102t253.5 102t101.5 259q0 156 -101.5 258.5t-253.5 102.5z" />
    <glyph glyph-name="uni01D3" unicode="&#x1d3;" horiz-adv-x="1553" 
d="M597 1837l179 -193l178 193h164l-239 -295h-205l-241 295h164zM1367 561q0 -142 -46 -254t-127 -182.5t-187 -107t-231 -36.5t-231 36.5t-186.5 107t-126.5 182.5t-46 254v873h164v-861q0 -216 116.5 -325.5t309.5 -109.5t309.5 109.5t116.5 325.5v861h165v-873z" />
    <glyph glyph-name="uni01D4" unicode="&#x1d4;" horiz-adv-x="1216" 
d="M429 1412l179 -193l178 193h164l-239 -295h-205l-241 295h164zM1049 404q0 -105 -36 -187t-97.5 -133t-140 -77t-167.5 -26q-90 0 -168 26t-139.5 77t-97 133t-35.5 187v566h153v-551q0 -145 78.5 -220t208.5 -75t208.5 75t78.5 220v551h154v-566z" />
    <glyph glyph-name="uni01D5" unicode="&#x1d5;" horiz-adv-x="1553" 
d="M470 2094h612v-124h-612v124zM568 1800q45 0 77 -31.5t32 -77.5q0 -45 -32 -76.5t-77 -31.5q-46 0 -77 31t-31 77t31 77.5t77 31.5zM984 1800q45 0 77 -31.5t32 -77.5q0 -45 -32 -76.5t-77 -31.5q-46 0 -76.5 31t-30.5 77t30.5 77.5t76.5 31.5zM1367 561q0 -142 -46 -254
t-127 -182.5t-187 -107t-231 -36.5t-231 36.5t-186.5 107t-126.5 182.5t-46 254v873h164v-861q0 -216 116.5 -325.5t309.5 -109.5t309.5 109.5t116.5 325.5v861h165v-873z" />
    <glyph glyph-name="uni01D6" unicode="&#x1d6;" horiz-adv-x="1216" 
d="M302 1670h612v-124h-612v124zM400 1375q45 0 77 -31.5t32 -77.5q0 -45 -32 -76.5t-77 -31.5q-46 0 -77 31t-31 77t31 77.5t77 31.5zM816 1375q45 0 77 -31.5t32 -77.5q0 -45 -32 -76.5t-77 -31.5q-46 0 -76.5 31t-30.5 77t30.5 77.5t76.5 31.5zM1049 404q0 -105 -36 -187
t-97.5 -133t-140 -77t-167.5 -26q-90 0 -168 26t-139.5 77t-97 133t-35.5 187v566h153v-551q0 -145 78.5 -220t208.5 -75t208.5 75t78.5 220v551h154v-566z" />
    <glyph glyph-name="uni01D7" unicode="&#x1d7;" horiz-adv-x="1553" 
d="M632 1952l214 307h194l-257 -307h-151zM568 1800q45 0 77 -31.5t32 -77.5q0 -45 -32 -76.5t-77 -31.5q-46 0 -77 31t-31 77t31 77.5t77 31.5zM984 1800q45 0 77 -31.5t32 -77.5q0 -45 -32 -76.5t-77 -31.5q-46 0 -76.5 31t-30.5 77t30.5 77.5t76.5 31.5zM1367 561
q0 -142 -46 -254t-127 -182.5t-187 -107t-231 -36.5t-231 36.5t-186.5 107t-126.5 182.5t-46 254v873h164v-861q0 -216 116.5 -325.5t309.5 -109.5t309.5 109.5t116.5 325.5v861h165v-873z" />
    <glyph glyph-name="uni01D8" unicode="&#x1d8;" horiz-adv-x="1216" 
d="M464 1528l214 307h194l-257 -307h-151zM400 1375q45 0 77 -31.5t32 -77.5q0 -45 -32 -76.5t-77 -31.5q-46 0 -77 31t-31 77t31 77.5t77 31.5zM816 1375q45 0 77 -31.5t32 -77.5q0 -45 -32 -76.5t-77 -31.5q-46 0 -76.5 31t-30.5 77t30.5 77.5t76.5 31.5zM1049 404
q0 -105 -36 -187t-97.5 -133t-140 -77t-167.5 -26q-90 0 -168 26t-139.5 77t-97 133t-35.5 187v566h153v-551q0 -145 78.5 -220t208.5 -75t208.5 75t78.5 220v551h154v-566z" />
    <glyph glyph-name="uni01D9" unicode="&#x1d9;" horiz-adv-x="1553" 
d="M597 2246l179 -194l178 194h164l-239 -295h-205l-241 295h164zM568 1800q45 0 77 -31.5t32 -77.5q0 -45 -32 -76.5t-77 -31.5q-46 0 -77 31t-31 77t31 77.5t77 31.5zM984 1800q45 0 77 -31.5t32 -77.5q0 -45 -32 -76.5t-77 -31.5q-46 0 -76.5 31t-30.5 77t30.5 77.5
t76.5 31.5zM1367 561q0 -142 -46 -254t-127 -182.5t-187 -107t-231 -36.5t-231 36.5t-186.5 107t-126.5 182.5t-46 254v873h164v-861q0 -216 116.5 -325.5t309.5 -109.5t309.5 109.5t116.5 325.5v861h165v-873z" />
    <glyph glyph-name="uni01DA" unicode="&#x1da;" horiz-adv-x="1216" 
d="M429 1822l179 -194l178 194h164l-239 -295h-205l-241 295h164zM400 1375q45 0 77 -31.5t32 -77.5q0 -45 -32 -76.5t-77 -31.5q-46 0 -77 31t-31 77t31 77.5t77 31.5zM816 1375q45 0 77 -31.5t32 -77.5q0 -45 -32 -76.5t-77 -31.5q-46 0 -76.5 31t-30.5 77t30.5 77.5
t76.5 31.5zM1049 404q0 -105 -36 -187t-97.5 -133t-140 -77t-167.5 -26q-90 0 -168 26t-139.5 77t-97 133t-35.5 187v566h153v-551q0 -145 78.5 -220t208.5 -75t208.5 75t78.5 220v551h154v-566z" />
    <glyph glyph-name="uni01DB" unicode="&#x1db;" horiz-adv-x="1553" 
d="M502 2259h193l215 -307h-151zM568 1800q45 0 77 -31.5t32 -77.5q0 -45 -32 -76.5t-77 -31.5q-46 0 -77 31t-31 77t31 77.5t77 31.5zM984 1800q45 0 77 -31.5t32 -77.5q0 -45 -32 -76.5t-77 -31.5q-46 0 -76.5 31t-30.5 77t30.5 77.5t76.5 31.5zM1367 561q0 -142 -46 -254
t-127 -182.5t-187 -107t-231 -36.5t-231 36.5t-186.5 107t-126.5 182.5t-46 254v873h164v-861q0 -216 116.5 -325.5t309.5 -109.5t309.5 109.5t116.5 325.5v861h165v-873z" />
    <glyph glyph-name="uni01DC" unicode="&#x1dc;" horiz-adv-x="1216" 
d="M334 1835h193l215 -307h-151zM400 1375q45 0 77 -31.5t32 -77.5q0 -45 -32 -76.5t-77 -31.5q-46 0 -77 31t-31 77t31 77.5t77 31.5zM816 1375q45 0 77 -31.5t32 -77.5q0 -45 -32 -76.5t-77 -31.5q-46 0 -76.5 31t-30.5 77t30.5 77.5t76.5 31.5zM1049 404q0 -105 -36 -187
t-97.5 -133t-140 -77t-167.5 -26q-90 0 -168 26t-139.5 77t-97 133t-35.5 187v566h153v-551q0 -145 78.5 -220t208.5 -75t208.5 75t78.5 220v551h154v-566z" />
    <glyph glyph-name="uni01E2" unicode="&#x1e2;" horiz-adv-x="2337" 
d="M1255 1752h613v-124h-613v124zM2173 0h-1009v374h-653l-283 -374h-198l1089 1434h1045v-155h-835v-480h809v-154h-809v-490h844v-155zM1164 529v707l-535 -707h535z" />
    <glyph glyph-name="uni01E3" unicode="&#x1e3;" horiz-adv-x="1843" 
d="M610 1327h613v-124h-613v124zM1282 988q198 0 326 -139.5t130 -360.5q0 -6 -3 -57h-778q16 -152 111 -234t232 -82q175 0 308 122l81 -105q-156 -151 -398 -151q-126 0 -228.5 49.5t-168.5 140.5q-71 -87 -175.5 -138.5t-237.5 -51.5q-174 0 -275 80.5t-101 210.5
q0 129 105 207.5t295 78.5h297v7q0 144 -74.5 215t-214.5 71q-148 0 -281 -97l-71 113q162 122 371 122q283 0 369 -204q59 94 160 148.5t221 54.5zM1279 853q-131 0 -216 -82t-104 -216h622q-13 135 -96 216.5t-206 81.5zM505 116q91 0 180.5 45t149.5 122q-26 69 -33 148
h-281q-131 0 -192 -44t-61 -115q0 -68 62 -112t175 -44z" />
    <glyph glyph-name="Gcaron" unicode="&#x1e6;" horiz-adv-x="1678" 
d="M663 1837l179 -193l178 193h164l-240 -295h-205l-240 295h164zM864 1454q168 0 312.5 -63.5t243.5 -177.5l-122 -116q-77 94 -189.5 146t-244.5 52q-160 0 -289 -72t-203.5 -204.5t-74.5 -301.5t74.5 -302t202 -205t283.5 -72q226 0 361 126t155 348h-446v154h624
q2 -28 2 -42q0 -156 -48.5 -292t-137 -236t-220 -157.5t-290.5 -57.5q-142 0 -273.5 50.5t-234 142.5t-164 233t-61.5 310q0 212 96.5 381t265.5 262.5t378 93.5z" />
    <glyph glyph-name="gcaron" unicode="&#x1e7;" horiz-adv-x="1264" 
d="M439 1412l179 -193l179 193h164l-240 -295h-205l-241 295h164zM586 989q224 0 346 -165v146h153v-903q0 -232 -141.5 -362t-371.5 -130q-117 0 -226 34.5t-182 95.5l67 123q150 -114 341 -114q162 0 261 90.5t99 255.5v100q-121 -165 -346 -165q-206 0 -343.5 140
t-137.5 358t137.5 357t343.5 139zM603 846q-152 0 -247 -101.5t-95 -251.5q0 -151 95 -253t247 -102q149 0 245.5 101.5t96.5 253.5q0 151 -96.5 252t-245.5 101z" />
    <glyph glyph-name="Aringacute" unicode="&#x1fa;" horiz-adv-x="1455" 
d="M581 1867l214 307h194l-257 -307h-151zM37 0l566 1380q-51 30 -80.5 82t-29.5 114q0 94 68.5 161.5t163.5 67.5q96 0 164.5 -67.5t68.5 -161.5q0 -60 -29 -111.5t-78 -82.5l567 -1382h-176l-163 399h-709l-162 -399h-171zM725 1443q54 0 92.5 38.5t38.5 94.5
q0 55 -38.5 93.5t-92.5 38.5t-92 -38.5t-38 -93.5q0 -56 38 -94.5t92 -38.5zM433 555h584l-292 718z" />
    <glyph glyph-name="aringacute" unicode="&#x1fb;" horiz-adv-x="1275" 
d="M466 1582l214 307h194l-257 -307h-151zM609 1063q-95 0 -163.5 67.5t-68.5 162.5q0 94 68.5 162t163.5 68q96 0 165 -68t69 -162q0 -95 -69 -162.5t-165 -67.5zM609 1160q54 0 92.5 38.5t38.5 94.5q0 55 -38.5 93.5t-92.5 38.5t-92 -38.5t-38 -93.5q0 -56 38 -94.5
t92 -38.5zM1097 0h-153v144q-127 -163 -354 -163q-206 0 -345.5 143.5t-139.5 360.5t140 360.5t345 143.5q225 0 354 -164v145h153v-970zM608 846q-153 0 -250 -104t-97 -257t97.5 -257t249.5 -104q151 0 248 103t97 258t-97.5 258t-247.5 103z" />
    <glyph glyph-name="AEacute" unicode="&#x1fc;" horiz-adv-x="2337" 
d="M1417 1543l214 307h195l-257 -307h-152zM2173 0h-1009v374h-653l-283 -374h-198l1089 1434h1045v-155h-835v-480h809v-154h-809v-490h844v-155zM1164 529v707l-535 -707h535z" />
    <glyph glyph-name="aeacute" unicode="&#x1fd;" horiz-adv-x="1843" 
d="M783 1118l214 307h195l-257 -307h-152zM1282 988q198 0 326 -139.5t130 -360.5q0 -6 -3 -57h-778q16 -152 111 -234t232 -82q175 0 308 122l81 -105q-156 -151 -398 -151q-126 0 -228.5 49.5t-168.5 140.5q-71 -87 -175.5 -138.5t-237.5 -51.5q-174 0 -275 80.5
t-101 210.5q0 129 105 207.5t295 78.5h297v7q0 144 -74.5 215t-214.5 71q-148 0 -281 -97l-71 113q162 122 371 122q283 0 369 -204q59 94 160 148.5t221 54.5zM1279 853q-131 0 -216 -82t-104 -216h622q-13 135 -96 216.5t-206 81.5zM505 116q91 0 180.5 45t149.5 122
q-26 69 -33 148h-281q-131 0 -192 -44t-61 -115q0 -68 62 -112t175 -44z" />
    <glyph glyph-name="Oslashacute" unicode="&#x1fe;" horiz-adv-x="1729" 
d="M720 1543l214 307h194l-257 -307h-151zM864 1454q272 0 472 -157l156 156l109 -108l-156 -156q160 -200 160 -472q0 -159 -56 -296.5t-154 -234t-235.5 -151.5t-295.5 -55q-273 0 -472 156l-154 -154l-110 107l155 155q-159 199 -159 473q0 159 56 296.5t154 234
t235 151.5t295 55zM864 1295q-160 0 -289 -72t-203.5 -204.5t-74.5 -301.5q0 -205 106 -352l816 815q-149 115 -355 115zM1433 717q0 203 -108 352l-815 -815q147 -116 354 -116q120 0 225 42.5t181 117.5t119.5 183.5t43.5 235.5z" />
    <glyph glyph-name="oslashacute" unicode="&#x1ff;" horiz-adv-x="1231" 
d="M482 1118l214 307h195l-257 -307h-152zM615 989q177 0 314 -100l113 113l93 -92l-113 -112q104 -134 104 -313q0 -216 -146 -360t-365 -144q-177 0 -311 99l-114 -114l-93 91l113 113q-105 133 -105 315q0 106 39 199.5t106.5 160.5t162 105.5t202.5 38.5zM615 846
q-152 0 -253 -102.5t-101 -258.5q0 -116 58 -205l503 502q-93 64 -207 64zM970 485q0 111 -58 203l-502 -503q89 -61 205 -61q152 0 253.5 102t101.5 259z" />
    <glyph glyph-name="Scommaaccent" unicode="&#x218;" horiz-adv-x="1378" 
d="M1143 1162q-197 134 -432 134q-165 0 -268 -69.5t-103 -189.5q0 -99 81.5 -155.5t249.5 -76.5l136 -17q74 -9 137.5 -26t122 -47.5t99 -71.5t64.5 -100t24 -131q0 -137 -78 -236.5t-204.5 -147t-284.5 -47.5q-155 0 -308 50t-255 134l90 131q79 -67 209 -113.5t263 -46.5
q174 0 285.5 68.5t111.5 192.5q0 102 -86.5 158.5t-260.5 76.5l-144 16q-195 22 -309 115.5t-114 263.5q0 132 73.5 230t195.5 146.5t274 48.5q290 0 515 -157zM819 -90l-76 -359h-135l43 359h168z" />
    <glyph glyph-name="scommaaccent" unicode="&#x219;" horiz-adv-x="1010" 
d="M830 764q-52 36 -139 63.5t-178 27.5q-104 0 -166.5 -41.5t-62.5 -111.5q0 -113 197 -136l115 -14q326 -43 326 -270q0 -138 -115.5 -219t-311.5 -81q-242 0 -405 123l71 115q136 -105 336 -105q125 0 196 40.5t71 115.5q0 118 -203 142l-116 13q-161 20 -240.5 89
t-79.5 179q0 136 105.5 215t281.5 79q111 0 212 -28.5t173 -76.5zM616 -90l-75 -359h-135l43 359h167z" />
    <glyph glyph-name="uni021A" unicode="&#x21a;" horiz-adv-x="1241" 
d="M1200 1278h-498v-1278h-163v1278h-498v156h1159v-156zM726 -90l-76 -359h-135l43 359h168z" />
    <glyph glyph-name="uni021B" unicode="&#x21b;" horiz-adv-x="927" 
d="M838 831h-419v-489q0 -110 51.5 -164t140.5 -54q110 0 204 69l72 -116q-127 -96 -288 -96q-160 0 -246.5 89.5t-86.5 268.5v492h-212v139h212v308h153v-308h419v-139zM662 -90l-76 -359h-135l43 359h168z" />
    <glyph glyph-name="uni0232" unicode="&#x232;" horiz-adv-x="1317" 
d="M355 1752h613v-124h-613v124zM742 601v-601h-163v603l-568 831h197l454 -680l453 680h192z" />
    <glyph glyph-name="uni0233" unicode="&#x233;" horiz-adv-x="1079" 
d="M239 1327h612v-124h-612v124zM274 -414h-169l362 624l-445 760h171l361 -609l342 609h168z" />
    <glyph glyph-name="uni0237" unicode="&#x237;" horiz-adv-x="516" 
d="M337 -160q0 -127 -65 -196t-177 -69q-78 0 -139 33l37 132q44 -21 89 -21q101 0 101 128v1123h154v-1130z" />
    <glyph glyph-name="uni0259" unicode="&#x259;" horiz-adv-x="1147" 
d="M561 -19q-198 0 -326.5 140t-129.5 360q0 24 4 58h777q-16 151 -111 233.5t-232 82.5q-177 0 -313 -126l-76 109q158 151 398 151q216 0 353 -140t137 -364q0 -221 -136.5 -362.5t-344.5 -141.5zM564 117q131 0 216 82t104 216h-623q14 -136 96.5 -217t206.5 -81z" />
    <glyph glyph-name="uni02BB" unicode="&#x2bb;" horiz-adv-x="505" 
d="M136 955l108 520h132l-62 -520h-178z" />
    <glyph glyph-name="uni02BC" unicode="&#x2bc;" horiz-adv-x="505" 
d="M370 1475l-108 -520h-132l61 520h179z" />
    <glyph glyph-name="uni02BE" unicode="&#x2be;" horiz-adv-x="552" 
d="M145 905q87 0 148.5 64.5t61.5 155.5q0 93 -61.5 157.5t-148.5 64.5v141q149 0 254 -106t105 -257q0 -150 -105 -255.5t-254 -105.5v141z" />
    <glyph glyph-name="uni02BF" unicode="&#x2bf;" horiz-adv-x="552" 
d="M408 1347q-86 0 -148 -65t-62 -156q0 -92 61.5 -156.5t148.5 -64.5v-141q-149 0 -254 105.5t-105 256.5q0 150 105 256t254 106v-141z" />
    <glyph glyph-name="circumflex" unicode="&#x2c6;" horiz-adv-x="961" 
d="M659 1119l-179 194l-178 -194h-164l240 295h205l240 -295h-164z" />
    <glyph glyph-name="caron" unicode="&#x2c7;" horiz-adv-x="961" 
d="M302 1412l179 -193l178 193h164l-239 -295h-205l-241 295h164z" />
    <glyph glyph-name="breve" unicode="&#x2d8;" horiz-adv-x="961" 
d="M254 1437q58 -196 227 -196t227 196l122 -38q-39 -139 -129.5 -213t-219.5 -74t-220 74t-130 213z" />
    <glyph glyph-name="dotaccent" unicode="&#x2d9;" horiz-adv-x="574" 
d="M287 1422q45 0 76.5 -31t31.5 -77t-31.5 -77t-76.5 -31q-46 0 -77 31t-31 77t31 77t77 31z" />
    <glyph glyph-name="ring" unicode="&#x2da;" horiz-adv-x="961" 
d="M481 1098q-96 0 -164 67.5t-68 162.5t68 162.5t164 67.5t165 -68t69 -162q0 -95 -69 -162.5t-165 -67.5zM481 1195q54 0 92.5 38.5t38.5 94.5q0 55 -38.5 93.5t-92.5 38.5t-92 -38.5t-38 -93.5q0 -56 38 -94.5t92 -38.5z" />
    <glyph glyph-name="ogonek" unicode="&#x2db;" horiz-adv-x="1114" 
d="M928 -333q-97 -92 -238 -92q-118 0 -190 61.5t-72 162.5t77.5 171.5t231.5 134.5l68 -86q-123 -51 -178 -98t-55 -107q0 -47 34.5 -77t92.5 -30q82 0 147 60z" />
    <glyph glyph-name="tilde" unicode="&#x2dc;" horiz-adv-x="961" 
d="M121 1264q47 58 100 85.5t124 27.5q59 0 108.5 -20.5t89 -40.5t74.5 -20q68 0 134 69l91 -87q-92 -114 -225 -114q-58 0 -107.5 20.5t-89.5 41t-75 20.5q-68 0 -134 -69z" />
    <glyph glyph-name="hungarumlaut" unicode="&#x2dd;" horiz-adv-x="961" 
d="M81 1118l214 307h193l-257 -307h-150zM473 1118l214 307h194l-257 -307h-151z" />
    <glyph glyph-name="gravecomb" unicode="&#x300;" 
d="M-409 1374h194l113 -256h-152z" />
    <glyph glyph-name="acutecomb" unicode="&#x301;" 
d="M-511 1118l132 256h195l-175 -256h-152z" />
    <glyph glyph-name="uni0302" unicode="&#x302;" 
d="M-314 1110l-130 126l-131 -126h-176l208 242h197l207 -242h-175z" />
    <glyph glyph-name="tildecomb" unicode="&#x303;" 
d="M-791 1244q84 104 204 104q54 0 99 -18.5t81 -37t68 -18.5q62 0 121 62l83 -80q-84 -103 -204 -103q-53 0 -98 18.5t-81.5 37.5t-68.5 19q-61 0 -122 -64z" />
    <glyph glyph-name="uni0304" unicode="&#x304;" 
d="M-924 1327h613v-124h-613v124z" />
    <glyph glyph-name="uni0306" unicode="&#x306;" 
d="M-615 1393q23 -83 58.5 -115.5t103.5 -32.5q69 0 105 32.5t59 115.5l121 -37q-31 -122 -100.5 -180t-184.5 -58t-183 58t-100 180z" />
    <glyph glyph-name="uni0307" unicode="&#x307;" 
d="M-617 1422q45 0 76.5 -31t31.5 -77t-31.5 -77t-76.5 -31q-46 0 -77 31t-31 77t31 77t77 31z" />
    <glyph glyph-name="uni0308" unicode="&#x308;" 
d="M-825 1375q45 0 76.5 -31.5t31.5 -77.5t-31.5 -77t-76.5 -31q-46 0 -77.5 31t-31.5 77t31.5 77.5t77.5 31.5zM-410 1375q45 0 77 -31.5t32 -77.5q0 -45 -32 -76.5t-77 -31.5q-46 0 -76.5 31t-30.5 77t30.5 77.5t76.5 31.5z" />
    <glyph glyph-name="hookabovecomb" unicode="&#x309;" 
d="M-361 1072q8 39 36 72t51 60t24 54q1 23 -13.5 37.5t-37.5 14.5q-57 0 -103 -77l-78 47q61 135 189 135q71 0 117.5 -41t47.5 -105q0 -31 -11 -57.5t-29 -46.5t-36.5 -38t-37.5 -39.5t-29 -43.5z" />
    <glyph glyph-name="uni030A" unicode="&#x30a;" 
d="M-618 1098q-96 0 -164.5 67.5t-68.5 162.5q0 94 69 162t164 68q96 0 164.5 -67.5t68.5 -162.5t-68.5 -162.5t-164.5 -67.5zM-618 1195q54 0 92.5 38.5t38.5 94.5q0 55 -38.5 93.5t-92.5 38.5t-92.5 -38.5t-38.5 -93.5q0 -56 38.5 -94.5t92.5 -38.5z" />
    <glyph glyph-name="uni030B" unicode="&#x30b;" 
d="M-885 1118l205 307h173l-221 -307h-157zM-532 1118l220 307h179l-246 -307h-153z" />
    <glyph glyph-name="uni030C" unicode="&#x30c;" 
d="M-797 1412l180 -193l178 193h164l-240 -295h-205l-241 295h164z" />
    <glyph glyph-name="uni0312" unicode="&#x312;" 
d="M-711 1118l76 360h135l-43 -360h-168z" />
    <glyph glyph-name="uni031B" unicode="&#x31b;" 
d="M-480 970q86 0 126.5 29.5t68.5 124.5h123q-17 -132 -103 -207.5t-215 -75.5v129z" />
    <glyph glyph-name="dotbelowcomb" unicode="&#x323;" 
d="M-211 -163q45 0 77 -31.5t32 -76.5t-32 -76.5t-77 -31.5q-46 0 -76.5 31t-30.5 77t30.5 77t76.5 31z" />
    <glyph glyph-name="uni0326" unicode="&#x326;" 
d="M-519 -90l-76 -359h-135l43 359h168z" />
    <glyph glyph-name="uni0327" unicode="&#x327;" 
d="M-589 -331h-160l112 337l154 -1z" />
    <glyph glyph-name="uni0328" unicode="&#x328;" 
d="M-364 -333q-97 -92 -237 -92q-119 0 -193 59.5t-74 151.5q0 105 84 174t259 133l14 -46q-108 -59 -158 -113t-50 -120q0 -47 34.5 -77t92.5 -30q82 0 147 60z" />
    <glyph glyph-name="uni032E" unicode="&#x32e;" 
d="M-844 -102q58 -196 228 -196q168 0 226 196l123 -37q-39 -140 -129.5 -214t-219.5 -74t-220.5 74t-130.5 214z" />
    <glyph glyph-name="uni0331" unicode="&#x331;" 
d="M-922 -207h613v-125h-613v125z" />
    <glyph glyph-name="uni0335" unicode="&#x335;" 
d="M-249 472h-735v139h735v-139z" />
    <glyph glyph-name="uni0336" unicode="&#x336;" 
d="M151 472h-1533v139h1533v-139z" />
    <glyph glyph-name="uni0394" unicode="&#x394;" horiz-adv-x="1445" 
d="M1363 127v-127h-1280v127l539 1309h202zM268 156h910l-455 1113z" />
    <glyph glyph-name="uni03A9" unicode="&#x3a9;" horiz-adv-x="1761" 
d="M433 156q-137 90 -215 234t-78 322q0 160 56 298t154 235.5t235.5 153t295.5 55.5t295 -55.5t235 -153t154 -235.5t56 -298q0 -178 -78.5 -322t-215.5 -234h351v-156h-616v134q175 56 281 208.5t106 362.5q0 130 -43.5 240.5t-119 187t-180.5 119.5t-225 43t-225 -43
t-181 -119.5t-119.5 -187t-43.5 -240.5q0 -210 106 -362.5t281 -208.5v-134h-616v156h350z" />
    <glyph glyph-name="uni03BC" unicode="&#x3bc;" horiz-adv-x="1229" 
d="M168 -410v1380h153v-551q0 -138 73.5 -215.5t205.5 -77.5q126 0 211.5 81.5t85.5 215.5v547h154v-970h-152v138q-56 -82 -142.5 -119.5t-184.5 -37.5q-75 0 -143 25t-110 70v-486h-151z" />
    <glyph glyph-name="pi" unicode="&#x3c0;" horiz-adv-x="1229" 
d="M1062 0h-154v831h-575v-831h-154v970h883v-970z" />
    <glyph glyph-name="uni1E0C" unicode="&#x1e0c;" horiz-adv-x="1636" 
d="M746 1434q351 0 558 -194.5t207 -522.5t-207 -522.5t-558 -194.5h-539v1434h539zM372 1278v-1122h374q285 0 438.5 151.5t153.5 409.5q0 259 -153.5 410t-438.5 151h-374zM779 -163q45 0 77 -31.5t32 -76.5t-32 -76.5t-77 -31.5q-46 0 -76.5 31t-30.5 77t30.5 77t76.5 31
z" />
    <glyph glyph-name="uni1E0D" unicode="&#x1e0d;" horiz-adv-x="1275" 
d="M590 989q225 0 354 -164v650h153v-1475h-153v144q-127 -163 -354 -163q-206 0 -345.5 143.5t-139.5 360.5t140 360.5t345 143.5zM608 846q-153 0 -250 -104t-97 -257t97.5 -257t249.5 -104q151 0 248 103t97 258t-97.5 258t-247.5 103zM632 -163q45 0 76.5 -31t31.5 -77
t-31.5 -77t-76.5 -31q-46 0 -77 31t-31 77t31 77t77 31z" />
    <glyph glyph-name="uni1E0E" unicode="&#x1e0e;" horiz-adv-x="1636" 
d="M746 1434q351 0 558 -194.5t207 -522.5t-207 -522.5t-558 -194.5h-539v1434h539zM372 1278v-1122h374q285 0 438.5 151.5t153.5 409.5q0 259 -153.5 410t-438.5 151h-374zM475 -207h612v-125h-612v125z" />
    <glyph glyph-name="uni1E0F" unicode="&#x1e0f;" horiz-adv-x="1275" 
d="M590 989q225 0 354 -164v650h153v-1475h-153v144q-127 -163 -354 -163q-206 0 -345.5 143.5t-139.5 360.5t140 360.5t345 143.5zM608 846q-153 0 -250 -104t-97 -257t97.5 -257t249.5 -104q151 0 248 103t97 258t-97.5 258t-247.5 103zM327 -207h612v-125h-612v125z" />
    <glyph glyph-name="uni1E24" unicode="&#x1e24;" horiz-adv-x="1610" 
d="M372 800h867v634h165v-1434h-165v644h-867v-644h-165v1434h165v-634zM804 -163q45 0 76.5 -31t31.5 -77t-31.5 -77t-76.5 -31q-46 0 -77 31t-31 77t31 77t77 31z" />
    <glyph glyph-name="uni1E25" unicode="&#x1e25;" horiz-adv-x="1229" 
d="M333 835q57 80 142.5 117t181.5 37q181 0 293 -106.5t112 -281.5v-601h-153v551q0 138 -73.5 215.5t-205.5 77.5q-126 0 -211.5 -81.5t-85.5 -215.5v-547h-154v1475h154v-640zM622 -163q45 0 76.5 -31t31.5 -77t-31.5 -77t-76.5 -31q-46 0 -77 31t-31 77t31 77t77 31z
" />
    <glyph glyph-name="uni1E28" unicode="&#x1e28;" horiz-adv-x="1610" 
d="M372 800h867v634h165v-1434h-165v644h-867v-644h-4l-104 -331h-167l112 331h-2v1434h165v-634z" />
    <glyph glyph-name="uni1E29" unicode="&#x1e29;" horiz-adv-x="1229" 
d="M333 835q57 80 142.5 117t181.5 37q181 0 293 -106.5t112 -281.5v-601h-153v551q0 138 -73.5 215.5t-205.5 77.5q-126 0 -211.5 -81.5t-85.5 -215.5v-547h-2l-104 -331h-159l113 331h-2v1475h154v-640z" />
    <glyph glyph-name="uni1E2A" unicode="&#x1e2a;" horiz-adv-x="1610" 
d="M372 800h867v634h165v-1434h-165v644h-867v-644h-165v1434h165v-634zM578 -102q58 -196 227 -196q168 0 226 196l123 -37q-39 -140 -129.5 -214t-219.5 -74t-220 74t-130 214z" />
    <glyph glyph-name="uni1E2B" unicode="&#x1e2b;" horiz-adv-x="1229" 
d="M333 835q57 80 142.5 117t181.5 37q181 0 293 -106.5t112 -281.5v-601h-153v551q0 138 -73.5 215.5t-205.5 77.5q-126 0 -211.5 -81.5t-85.5 -215.5v-547h-154v1475h154v-640zM394 -102q58 -196 228 -196q168 0 226 196l123 -37q-39 -140 -129.5 -214t-219.5 -74
t-220.5 74t-130.5 214z" />
    <glyph glyph-name="uni1E32" unicode="&#x1e32;" horiz-adv-x="1421" 
d="M542 643h-170v-643h-165v1434h165v-635h173l595 635h213l-674 -704l718 -730h-225zM710 -163q45 0 76.5 -31t31.5 -77t-31.5 -77t-76.5 -31q-46 0 -77 31t-31 77t31 77t77 31z" />
    <glyph glyph-name="uni1E33" unicode="&#x1e33;" horiz-adv-x="1083" 
d="M333 577h140l374 393h191l-440 -457l448 -513h-194l-380 437h-139v-437h-154v1475h154v-898zM572 -163q45 0 77 -31.5t32 -76.5t-32 -76.5t-77 -31.5q-46 0 -76.5 31t-30.5 77t30.5 77t76.5 31z" />
    <glyph glyph-name="uni1E36" unicode="&#x1e36;" horiz-adv-x="1242" 
d="M1201 0h-994v1434h165v-1278h829v-156zM693 -163q45 0 77 -31.5t32 -76.5t-32 -76.5t-77 -31.5q-46 0 -76.5 31t-30.5 77t30.5 77t76.5 31z" />
    <glyph glyph-name="uni1E37" unicode="&#x1e37;" horiz-adv-x="512" 
d="M333 0h-154v1475h154v-1475zM256 -163q45 0 77 -31.5t32 -76.5t-32 -76.5t-77 -31.5q-46 0 -77 31t-31 77t31 77t77 31z" />
    <glyph glyph-name="uni1E38" unicode="&#x1e38;" horiz-adv-x="1242" 
d="M-17 1752h612v-124h-612v124zM1201 0h-994v1434h165v-1278h829v-156zM693 -163q45 0 77 -31.5t32 -76.5t-32 -76.5t-77 -31.5q-46 0 -76.5 31t-30.5 77t30.5 77t76.5 31z" />
    <glyph glyph-name="uni1E39" unicode="&#x1e39;" horiz-adv-x="512" 
d="M-69 1773h613v-124h-613v124zM333 0h-154v1475h154v-1475zM256 -163q45 0 77 -31.5t32 -76.5t-32 -76.5t-77 -31.5q-46 0 -77 31t-31 77t31 77t77 31z" />
    <glyph glyph-name="uni1E3A" unicode="&#x1e3a;" horiz-adv-x="1242" 
d="M1201 0h-994v1434h165v-1278h829v-156zM389 -207h612v-125h-612v125z" />
    <glyph glyph-name="uni1E3B" unicode="&#x1e3b;" horiz-adv-x="512" 
d="M333 0h-154v1475h154v-1475zM-49 -207h612v-125h-612v125z" />
    <glyph glyph-name="uni1E40" unicode="&#x1e40;" horiz-adv-x="1914" 
d="M943 1806q47 0 80 -32t33 -79t-33 -79.5t-80 -32.5t-79.5 32.5t-32.5 79.5t32.5 79t79.5 32zM1708 0h-165v1249l-500 -1090h-173l-498 1082v-1241h-165v1434h250l500 -1084l500 1084h251v-1434z" />
    <glyph glyph-name="uni1E41" unicode="&#x1e41;" horiz-adv-x="1959" 
d="M986 1434q45 0 77 -31.5t32 -77.5q0 -45 -32 -76t-77 -31q-46 0 -76.5 30.5t-30.5 76.5t30.5 77.5t76.5 31.5zM1386 989q181 0 293.5 -106.5t112.5 -281.5v-601h-153v551q0 138 -73.5 215.5t-206.5 77.5q-126 0 -211.5 -81.5t-85.5 -215.5v-547h-153v551
q0 138 -73.5 215.5t-205.5 77.5q-126 0 -211.5 -81.5t-85.5 -215.5v-547h-154v970h152v-139q56 82 142.5 120t183.5 38q126 0 221.5 -54t142.5 -150q55 106 153.5 155t211.5 49z" />
    <glyph glyph-name="uni1E42" unicode="&#x1e42;" horiz-adv-x="1914" 
d="M1708 0h-165v1249l-500 -1090h-173l-498 1082v-1241h-165v1434h250l500 -1084l500 1084h251v-1434zM956 -163q45 0 77 -31.5t32 -76.5t-32 -76.5t-77 -31.5q-46 0 -76.5 31t-30.5 77t30.5 77t76.5 31z" />
    <glyph glyph-name="uni1E43" unicode="&#x1e43;" horiz-adv-x="1959" 
d="M1386 989q181 0 293.5 -106.5t112.5 -281.5v-601h-153v551q0 138 -73.5 215.5t-206.5 77.5q-126 0 -211.5 -81.5t-85.5 -215.5v-547h-153v551q0 138 -73.5 215.5t-205.5 77.5q-126 0 -211.5 -81.5t-85.5 -215.5v-547h-154v970h152v-139q56 82 142.5 120t183.5 38
q126 0 221.5 -54t142.5 -150q55 106 153.5 155t211.5 49zM986 -163q45 0 77 -31.5t32 -76.5t-32 -76.5t-77 -31.5q-46 0 -76.5 31t-30.5 77t30.5 77t76.5 31z" />
    <glyph glyph-name="uni1E44" unicode="&#x1e44;" horiz-adv-x="1614" 
d="M793 1806q47 0 79.5 -32t32.5 -79t-32.5 -79.5t-79.5 -32.5t-79.5 32.5t-32.5 79.5t32.5 79t79.5 32zM1408 0h-148l-888 1151v-1151h-165v1434h148l888 -1151v1151h165v-1434z" />
    <glyph glyph-name="uni1E45" unicode="&#x1e45;" horiz-adv-x="1229" 
d="M632 1422q45 0 76.5 -31t31.5 -77t-31.5 -77t-76.5 -31q-46 0 -77 31t-31 77t31 77t77 31zM657 989q181 0 293 -106.5t112 -281.5v-601h-153v551q0 138 -73.5 215.5t-205.5 77.5q-126 0 -211.5 -81.5t-85.5 -215.5v-547h-154v970h152v-139q56 82 142.5 120t183.5 38z" />
    <glyph glyph-name="uni1E46" unicode="&#x1e46;" horiz-adv-x="1614" 
d="M1408 0h-148l-888 1151v-1151h-165v1434h148l888 -1151v1151h165v-1434zM801 -163q45 0 76.5 -31t31.5 -77t-31.5 -77t-76.5 -31q-46 0 -77 31t-31 77t31 77t77 31z" />
    <glyph glyph-name="uni1E47" unicode="&#x1e47;" horiz-adv-x="1229" 
d="M657 989q181 0 293 -106.5t112 -281.5v-601h-153v551q0 138 -73.5 215.5t-205.5 77.5q-126 0 -211.5 -81.5t-85.5 -215.5v-547h-154v970h152v-139q56 82 142.5 120t183.5 38zM620 -163q45 0 76.5 -31t31.5 -77t-31.5 -77t-76.5 -31q-46 0 -77 31t-31 77t31 77t77 31z" />
    <glyph glyph-name="uni1E48" unicode="&#x1e48;" horiz-adv-x="1614" 
d="M1408 0h-148l-888 1151v-1151h-165v1434h148l888 -1151v1151h165v-1434zM497 -207h612v-125h-612v125z" />
    <glyph glyph-name="uni1E49" unicode="&#x1e49;" horiz-adv-x="1229" 
d="M657 989q181 0 293 -106.5t112 -281.5v-601h-153v551q0 138 -73.5 215.5t-205.5 77.5q-126 0 -211.5 -81.5t-85.5 -215.5v-547h-154v970h152v-139q56 82 142.5 120t183.5 38zM314 -207h613v-125h-613v125z" />
    <glyph glyph-name="uni1E58" unicode="&#x1e58;" horiz-adv-x="1385" 
d="M665 1806q47 0 79.5 -32t32.5 -79t-32.5 -79.5t-79.5 -32.5t-79.5 32.5t-32.5 79.5t32.5 79t79.5 32zM769 1434q242 0 371.5 -105t129.5 -300q0 -186 -135 -295.5t-364 -109.5h-23l515 -624h-205l-505 624h-181v-624h-165v1434h562zM372 1279v-506h395q163 0 247.5 65.5
t84.5 190.5q0 124 -85 187t-247 63h-395z" />
    <glyph glyph-name="uni1E59" unicode="&#x1e59;" horiz-adv-x="849" 
d="M486 1422q45 0 77 -31.5t32 -76.5t-32 -76.5t-77 -31.5q-46 0 -76.5 31t-30.5 77t30.5 77t76.5 31zM618 989q109 0 179 -33l-37 -150q-71 39 -168 39q-115 0 -187.5 -83t-72.5 -219v-543h-153v970h152v-136q51 75 124.5 115t162.5 40z" />
    <glyph glyph-name="uni1E5A" unicode="&#x1e5a;" horiz-adv-x="1385" 
d="M769 1434q242 0 371.5 -105t129.5 -300q0 -186 -135 -295.5t-364 -109.5h-23l515 -624h-205l-505 624h-181v-624h-165v1434h562zM372 1279v-506h395q163 0 247.5 65.5t84.5 190.5q0 124 -85 187t-247 63h-395zM681 -163q45 0 77 -31.5t32 -76.5t-32 -76.5t-77 -31.5
q-46 0 -77 31t-31 77t31 77t77 31z" />
    <glyph glyph-name="uni1E5B" unicode="&#x1e5b;" horiz-adv-x="849" 
d="M618 989q109 0 179 -33l-37 -150q-71 39 -168 39q-115 0 -187.5 -83t-72.5 -219v-543h-153v970h152v-136q51 75 124.5 115t162.5 40zM257 -163q45 0 77 -31.5t32 -76.5t-32 -76.5t-77 -31.5q-46 0 -76.5 31t-30.5 77t30.5 77t76.5 31z" />
    <glyph glyph-name="uni1E5C" unicode="&#x1e5c;" horiz-adv-x="1385" 
d="M373 1752h612v-124h-612v124zM769 1434q242 0 371.5 -105t129.5 -300q0 -186 -135 -295.5t-364 -109.5h-23l515 -624h-205l-505 624h-181v-624h-165v1434h562zM372 1279v-506h395q163 0 247.5 65.5t84.5 190.5q0 124 -85 187t-247 63h-395zM681 -163q45 0 77 -31.5
t32 -76.5t-32 -76.5t-77 -31.5q-46 0 -77 31t-31 77t31 77t77 31z" />
    <glyph glyph-name="uni1E5D" unicode="&#x1e5d;" horiz-adv-x="849" 
d="M180 1327h613v-124h-613v124zM618 989q109 0 179 -33l-37 -150q-71 39 -168 39q-115 0 -187.5 -83t-72.5 -219v-543h-153v970h152v-136q51 75 124.5 115t162.5 40zM257 -163q45 0 77 -31.5t32 -76.5t-32 -76.5t-77 -31.5q-46 0 -76.5 31t-30.5 77t30.5 77t76.5 31z" />
    <glyph glyph-name="uni1E5E" unicode="&#x1e5e;" horiz-adv-x="1385" 
d="M769 1434q242 0 371.5 -105t129.5 -300q0 -186 -135 -295.5t-364 -109.5h-23l515 -624h-205l-505 624h-181v-624h-165v1434h562zM372 1279v-506h395q163 0 247.5 65.5t84.5 190.5q0 124 -85 187t-247 63h-395zM377 -207h612v-125h-612v125z" />
    <glyph glyph-name="uni1E5F" unicode="&#x1e5f;" horiz-adv-x="849" 
d="M618 989q109 0 179 -33l-37 -150q-71 39 -168 39q-115 0 -187.5 -83t-72.5 -219v-543h-153v970h152v-136q51 75 124.5 115t162.5 40zM-48 -207h612v-125h-612v125z" />
    <glyph glyph-name="uni1E62" unicode="&#x1e62;" horiz-adv-x="1378" 
d="M1143 1162q-197 134 -432 134q-165 0 -268 -69.5t-103 -189.5q0 -99 81.5 -155.5t249.5 -76.5l136 -17q74 -9 137.5 -26t122 -47.5t99 -71.5t64.5 -100t24 -131q0 -137 -78 -236.5t-204.5 -147t-284.5 -47.5q-155 0 -308 50t-255 134l90 131q79 -67 209 -113.5t263 -46.5
q174 0 285.5 68.5t111.5 192.5q0 102 -86.5 158.5t-260.5 76.5l-144 16q-195 22 -309 115.5t-114 263.5q0 132 73.5 230t195.5 146.5t274 48.5q290 0 515 -157zM713 -163q45 0 76.5 -31t31.5 -77t-31.5 -77t-76.5 -31q-46 0 -77 31t-31 77t31 77t77 31z" />
    <glyph glyph-name="uni1E63" unicode="&#x1e63;" horiz-adv-x="1010" 
d="M830 764q-52 36 -139 63.5t-178 27.5q-104 0 -166.5 -41.5t-62.5 -111.5q0 -113 197 -136l115 -14q326 -43 326 -270q0 -138 -115.5 -219t-311.5 -81q-242 0 -405 123l71 115q136 -105 336 -105q125 0 196 40.5t71 115.5q0 118 -203 142l-116 13q-161 20 -240.5 89
t-79.5 179q0 136 105.5 215t281.5 79q111 0 212 -28.5t173 -76.5zM519 -163q45 0 77 -31.5t32 -76.5t-32 -76.5t-77 -31.5q-46 0 -76.5 31t-30.5 77t30.5 77t76.5 31z" />
    <glyph glyph-name="uni1E6C" unicode="&#x1e6c;" horiz-adv-x="1241" 
d="M1200 1278h-498v-1278h-163v1278h-498v156h1159v-156zM620 -163q45 0 76.5 -31t31.5 -77t-31.5 -77t-76.5 -31q-46 0 -77 31t-31 77t31 77t77 31z" />
    <glyph glyph-name="uni1E6D" unicode="&#x1e6d;" horiz-adv-x="927" 
d="M838 831h-419v-489q0 -110 51.5 -164t140.5 -54q110 0 204 69l72 -116q-127 -96 -288 -96q-160 0 -246.5 89.5t-86.5 268.5v492h-212v139h212v308h153v-308h419v-139zM564 -163q45 0 77 -31.5t32 -76.5t-32 -76.5t-77 -31.5q-46 0 -76.5 31t-30.5 77t30.5 77t76.5 31z
" />
    <glyph glyph-name="uni1E6E" unicode="&#x1e6e;" horiz-adv-x="1241" 
d="M1200 1278h-498v-1278h-163v1278h-498v156h1159v-156zM315 -207h613v-125h-613v125z" />
    <glyph glyph-name="uni1E6F" unicode="&#x1e6f;" horiz-adv-x="927" 
d="M838 831h-419v-489q0 -110 51.5 -164t140.5 -54q110 0 204 69l72 -116q-127 -96 -288 -96q-160 0 -246.5 89.5t-86.5 268.5v492h-212v139h212v308h153v-308h419v-139zM259 -207h612v-125h-612v125z" />
    <glyph glyph-name="Wgrave" unicode="&#x1e80;" horiz-adv-x="2249" 
d="M850 1850h193l215 -307h-151zM1724 0h-202l-398 1214l-397 -1214h-202l-466 1434h172l397 -1248l405 1248h187l404 -1249l397 1249h169z" />
    <glyph glyph-name="wgrave" unicode="&#x1e81;" horiz-adv-x="1746" 
d="M586 1425h193l215 -307h-151zM1250 159l292 811h159l-359 -970h-181l-290 806l-288 -806h-179l-358 970h163l290 -810l288 810h172z" />
    <glyph glyph-name="Wacute" unicode="&#x1e82;" horiz-adv-x="2249" 
d="M980 1543l214 307h195l-257 -307h-152zM1724 0h-202l-398 1214l-397 -1214h-202l-466 1434h172l397 -1248l405 1248h187l404 -1249l397 1249h169z" />
    <glyph glyph-name="wacute" unicode="&#x1e83;" horiz-adv-x="1746" 
d="M740 1118l214 307h195l-257 -307h-152zM1250 159l292 811h159l-359 -970h-181l-290 806l-288 -806h-179l-358 970h163l290 -810l288 810h172z" />
    <glyph glyph-name="Wdieresis" unicode="&#x1e84;" horiz-adv-x="2249" 
d="M916 1800q45 0 77 -31.5t32 -77.5q0 -45 -32 -76.5t-77 -31.5q-46 0 -77 31t-31 77t31 77.5t77 31.5zM1332 1800q45 0 77 -31.5t32 -77.5q0 -45 -32 -76.5t-77 -31.5q-46 0 -76.5 31t-30.5 77t30.5 77.5t76.5 31.5zM1724 0h-202l-398 1214l-397 -1214h-202l-466 1434h172
l397 -1248l405 1248h187l404 -1249l397 1249h169z" />
    <glyph glyph-name="wdieresis" unicode="&#x1e85;" horiz-adv-x="1746" 
d="M666 1375q45 0 76.5 -31.5t31.5 -77.5t-31.5 -77t-76.5 -31q-46 0 -77.5 31t-31.5 77t31.5 77.5t77.5 31.5zM1081 1375q45 0 77 -31.5t32 -77.5q0 -45 -32 -76.5t-77 -31.5q-46 0 -76.5 31t-30.5 77t30.5 77.5t76.5 31.5zM1250 159l292 811h159l-359 -970h-181l-290 806
l-288 -806h-179l-358 970h163l290 -810l288 810h172z" />
    <glyph glyph-name="uni1E88" unicode="&#x1e88;" horiz-adv-x="2249" 
d="M1724 0h-202l-398 1214l-397 -1214h-202l-466 1434h172l397 -1248l405 1248h187l404 -1249l397 1249h169zM1124 -163q45 0 77 -31.5t32 -76.5t-32 -76.5t-77 -31.5q-46 0 -76.5 31t-30.5 77t30.5 77t76.5 31z" />
    <glyph glyph-name="uni1E89" unicode="&#x1e89;" horiz-adv-x="1746" 
d="M1250 159l292 811h159l-359 -970h-181l-290 806l-288 -806h-179l-358 970h163l290 -810l288 810h172zM872 -163q45 0 77 -31.5t32 -76.5t-32 -76.5t-77 -31.5q-46 0 -76.5 31t-30.5 77t30.5 77t76.5 31z" />
    <glyph glyph-name="uni1E92" unicode="&#x1e92;" horiz-adv-x="1345" 
d="M1219 1307l-876 -1151h879v-156h-1098v127l876 1151h-866v156h1085v-127zM672 -163q45 0 76.5 -31t31.5 -77t-31.5 -77t-76.5 -31q-46 0 -77 31t-31 77t31 77t77 31z" />
    <glyph glyph-name="uni1E93" unicode="&#x1e93;" horiz-adv-x="1080" 
d="M946 858l-618 -720h627v-138h-830v111l625 720h-607v139h803v-112zM541 -163q45 0 76.5 -31t31.5 -77t-31.5 -77t-76.5 -31q-46 0 -77 31t-31 77t31 77t77 31z" />
    <glyph glyph-name="uni1E94" unicode="&#x1e94;" horiz-adv-x="1345" 
d="M1219 1307l-876 -1151h879v-156h-1098v127l876 1151h-866v156h1085v-127zM368 -207h612v-125h-612v125z" />
    <glyph glyph-name="uni1E95" unicode="&#x1e95;" horiz-adv-x="1080" 
d="M946 858l-618 -720h627v-138h-830v111l625 720h-607v139h803v-112zM236 -207h612v-125h-612v125z" />
    <glyph glyph-name="uni1E96" unicode="&#x1e96;" horiz-adv-x="1229" 
d="M333 835q57 80 142.5 117t181.5 37q181 0 293 -106.5t112 -281.5v-601h-153v551q0 138 -73.5 215.5t-205.5 77.5q-126 0 -211.5 -81.5t-85.5 -215.5v-547h-154v1475h154v-640zM316 -207h613v-125h-613v125z" />
    <glyph glyph-name="uni1E9E" unicode="&#x1e9e;" horiz-adv-x="1499" 
d="M722 768l372 410q-112 117 -339 117q-186 0 -295 -96.5t-109 -261.5v-937h-165v946q0 108 37 199.5t107 160.5t180 108t248 39q200 0 333.5 -64.5t227.5 -187.5l-382 -415q193 -23 315 -128t122 -270q0 -122 -71.5 -215.5t-189 -142t-260.5 -48.5q-173 0 -302 43l40 155
q108 -41 237 -41q171 0 271.5 66t100.5 183q0 121 -103 189t-282 68h-93v123z" />
    <glyph glyph-name="uni1EA0" unicode="&#x1ea0;" horiz-adv-x="1455" 
d="M1418 0h-176l-163 399h-709l-162 -399h-171l589 1434h203zM433 555h584l-292 716zM728 -163q45 0 77 -31.5t32 -76.5t-32 -76.5t-77 -31.5q-46 0 -76.5 31t-30.5 77t30.5 77t76.5 31z" />
    <glyph glyph-name="uni1EA1" unicode="&#x1ea1;" horiz-adv-x="1275" 
d="M1097 0h-153v144q-127 -163 -354 -163q-206 0 -345.5 143.5t-139.5 360.5t140 360.5t345 143.5q225 0 354 -164v145h153v-970zM608 846q-153 0 -250 -104t-97 -257t97.5 -257t249.5 -104q151 0 248 103t97 258t-97.5 258t-247.5 103zM637 -163q45 0 76.5 -31t31.5 -77
t-31.5 -77t-76.5 -31q-46 0 -77 31t-31 77t31 77t77 31z" />
    <glyph glyph-name="uni1EA2" unicode="&#x1ea2;" horiz-adv-x="1455" 
d="M670 1587q7 31 25.5 59t37 45t33 39t15.5 44q1 23 -13.5 37t-37.5 14q-57 0 -103 -77l-78 47q61 135 189 135q71 0 117.5 -41t47.5 -105q0 -38 -17.5 -70.5t-40 -52.5t-48.5 -47.5t-37 -53.5zM1418 0h-176l-163 399h-709l-162 -399h-171l589 1434h203zM433 555h584
l-292 716z" />
    <glyph glyph-name="uni1EA3" unicode="&#x1ea3;" horiz-adv-x="1275" 
d="M580 1123q7 31 25.5 59t37 45t33 39t15.5 44q1 23 -13.5 37t-37.5 14q-57 0 -103 -77l-78 47q61 135 189 135q71 0 117.5 -41t47.5 -105q0 -38 -17.5 -70.5t-40 -52.5t-48.5 -47.5t-37 -53.5zM1097 0h-153v144q-127 -163 -354 -163q-206 0 -345.5 143.5t-139.5 360.5
t140 360.5t345 143.5q225 0 354 -164v145h153v-970zM608 846q-153 0 -250 -104t-97 -257t97.5 -257t249.5 -104q151 0 248 103t97 258t-97.5 258t-247.5 103z" />
    <glyph glyph-name="uni1EA4" unicode="&#x1ea4;" horiz-adv-x="1455" 
d="M970 1747l132 256h194l-175 -256h-151zM858 1574l-130 126l-131 -126h-175l208 242h196l207 -242h-175zM1418 0h-176l-163 399h-709l-162 -399h-171l589 1434h203zM433 555h584l-292 716z" />
    <glyph glyph-name="uni1EA5" unicode="&#x1ea5;" horiz-adv-x="1275" 
d="M880 1283l132 256h194l-175 -256h-151zM768 1110l-130 126l-131 -126h-175l208 242h196l207 -242h-175zM1097 0h-153v144q-127 -163 -354 -163q-206 0 -345.5 143.5t-139.5 360.5t140 360.5t345 143.5q225 0 354 -164v145h153v-970zM608 846q-153 0 -250 -104t-97 -257
t97.5 -257t249.5 -104q151 0 248 103t97 258t-97.5 258t-247.5 103z" />
    <glyph glyph-name="uni1EA6" unicode="&#x1ea6;" horiz-adv-x="1455" 
d="M831 2035h194l113 -256h-152zM858 1574l-130 126l-131 -126h-175l208 242h196l207 -242h-175zM1418 0h-176l-163 399h-709l-162 -399h-171l589 1434h203zM433 555h584l-292 716z" />
    <glyph glyph-name="uni1EA7" unicode="&#x1ea7;" horiz-adv-x="1275" 
d="M741 1571h194l113 -256h-152zM768 1110l-130 126l-131 -126h-175l208 242h196l207 -242h-175zM1097 0h-153v144q-127 -163 -354 -163q-206 0 -345.5 143.5t-139.5 360.5t140 360.5t345 143.5q225 0 354 -164v145h153v-970zM608 846q-153 0 -250 -104t-97 -257t97.5 -257
t249.5 -104q151 0 248 103t97 258t-97.5 258t-247.5 103z" />
    <glyph glyph-name="uni1EA8" unicode="&#x1ea8;" horiz-adv-x="1455" 
d="M1006 1734q8 39 36 72t51 60t24 54q1 23 -13.5 37t-37.5 14q-57 0 -103 -77l-78 48q61 135 189 135q71 0 117.5 -41.5t47.5 -105.5q0 -38 -17.5 -70.5t-40 -52.5t-48.5 -47.5t-37 -53.5zM858 1574l-130 126l-131 -126h-175l208 242h196l207 -242h-175zM1418 0h-176
l-163 399h-709l-162 -399h-171l589 1434h203zM433 555h584l-292 716z" />
    <glyph glyph-name="uni1EA9" unicode="&#x1ea9;" horiz-adv-x="1275" 
d="M915 1270q7 31 25.5 59t37 44.5t33.5 38.5t16 44q1 23 -13.5 37t-37.5 14q-59 0 -104 -76l-77 47q61 135 189 135q71 0 117.5 -41.5t47.5 -105.5q0 -38 -17.5 -70.5t-40 -52.5t-48.5 -47.5t-37 -53.5zM768 1110l-130 126l-131 -126h-175l208 242h196l207 -242h-175z
M1097 0h-153v144q-127 -163 -354 -163q-206 0 -345.5 143.5t-139.5 360.5t140 360.5t345 143.5q225 0 354 -164v145h153v-970zM608 846q-153 0 -250 -104t-97 -257t97.5 -257t249.5 -104q151 0 248 103t97 258t-97.5 258t-247.5 103z" />
    <glyph glyph-name="uni1EAA" unicode="&#x1eaa;" horiz-adv-x="1455" 
d="M400 1961q43 53 91 78t113 25q54 0 99 -18t81 -36.5t68 -18.5q62 0 121 62l83 -80q-84 -103 -204 -103q-53 0 -98 19t-81.5 37.5t-68.5 18.5q-61 0 -122 -64zM858 1574l-130 126l-131 -126h-175l208 242h196l207 -242h-175zM1418 0h-176l-163 399h-709l-162 -399h-171
l589 1434h203zM433 555h584l-292 716z" />
    <glyph glyph-name="uni1EAB" unicode="&#x1eab;" horiz-adv-x="1275" 
d="M310 1497q84 104 204 104q54 0 99 -18.5t81 -37t68 -18.5q62 0 121 62l83 -80q-84 -103 -204 -103q-53 0 -98 19t-81.5 37.5t-68.5 18.5q-61 0 -122 -64zM768 1110l-130 126l-131 -126h-175l208 242h196l207 -242h-175zM1097 0h-153v144q-127 -163 -354 -163
q-206 0 -345.5 143.5t-139.5 360.5t140 360.5t345 143.5q225 0 354 -164v145h153v-970zM608 846q-153 0 -250 -104t-97 -257t97.5 -257t249.5 -104q151 0 248 103t97 258t-97.5 258t-247.5 103z" />
    <glyph glyph-name="uni1EAC" unicode="&#x1eac;" horiz-adv-x="1455" 
d="M858 1574l-130 126l-131 -126h-175l208 242h196l207 -242h-175zM1418 0h-176l-163 399h-709l-162 -399h-171l589 1434h203zM433 555h584l-292 716zM728 -163q45 0 77 -31.5t32 -76.5t-32 -76.5t-77 -31.5q-46 0 -76.5 31t-30.5 77t30.5 77t76.5 31z" />
    <glyph glyph-name="uni1EAD" unicode="&#x1ead;" horiz-adv-x="1275" 
d="M768 1110l-130 126l-131 -126h-175l208 242h196l207 -242h-175zM1097 0h-153v144q-127 -163 -354 -163q-206 0 -345.5 143.5t-139.5 360.5t140 360.5t345 143.5q225 0 354 -164v145h153v-970zM608 846q-153 0 -250 -104t-97 -257t97.5 -257t249.5 -104q151 0 248 103
t97 258t-97.5 258t-247.5 103zM637 -163q45 0 76.5 -31t31.5 -77t-31.5 -77t-76.5 -31q-46 0 -77 31t-31 77t31 77t77 31z" />
    <glyph glyph-name="uni1EAE" unicode="&#x1eae;" horiz-adv-x="1455" 
d="M652 1894l132 256h195l-175 -256h-152zM564 1857q22 -82 58.5 -115t104.5 -33q69 0 105 32.5t59 115.5l121 -37q-31 -122 -100.5 -180t-184.5 -58t-183.5 58t-100.5 180zM1418 0h-176l-163 399h-709l-162 -399h-171l589 1434h203zM433 555h584l-292 716z" />
    <glyph glyph-name="uni1EAF" unicode="&#x1eaf;" horiz-adv-x="1275" 
d="M562 1431l132 256h195l-175 -256h-152zM474 1393q22 -82 58.5 -115t104.5 -33q69 0 105 32.5t59 115.5l121 -37q-31 -122 -100.5 -180t-184.5 -58t-183.5 58t-100.5 180zM1097 0h-153v144q-127 -163 -354 -163q-206 0 -345.5 143.5t-139.5 360.5t140 360.5t345 143.5
q225 0 354 -164v145h153v-970zM608 846q-153 0 -250 -104t-97 -257t97.5 -257t249.5 -104q151 0 248 103t97 258t-97.5 258t-247.5 103z" />
    <glyph glyph-name="uni1EB0" unicode="&#x1eb0;" horiz-adv-x="1455" 
d="M497 2136h193l113 -256h-152zM564 1857q22 -82 58.5 -115t104.5 -33q69 0 105 32.5t59 115.5l121 -37q-31 -122 -100.5 -180t-184.5 -58t-183.5 58t-100.5 180zM1418 0h-176l-163 399h-709l-162 -399h-171l589 1434h203zM433 555h584l-292 716z" />
    <glyph glyph-name="uni1EB1" unicode="&#x1eb1;" horiz-adv-x="1275" 
d="M407 1672h193l113 -256h-152zM474 1393q22 -82 58.5 -115t104.5 -33q69 0 105 32.5t59 115.5l121 -37q-31 -122 -100.5 -180t-184.5 -58t-183.5 58t-100.5 180zM1097 0h-153v144q-127 -163 -354 -163q-206 0 -345.5 143.5t-139.5 360.5t140 360.5t345 143.5
q225 0 354 -164v145h153v-970zM608 846q-153 0 -250 -104t-97 -257t97.5 -257t249.5 -104q151 0 248 103t97 258t-97.5 258t-247.5 103z" />
    <glyph glyph-name="uni1EB2" unicode="&#x1eb2;" horiz-adv-x="1455" 
d="M658 1897q7 31 25.5 59t37 45t33.5 39t16 44q1 23 -13.5 37t-37.5 14q-58 0 -104 -77l-77 47q29 65 78 100.5t111 35.5q71 0 117.5 -41.5t47.5 -105.5q0 -38 -17.5 -70.5t-40 -52.5t-48.5 -47.5t-37 -53.5zM564 1857q22 -82 58.5 -115t104.5 -33q69 0 105 32.5t59 115.5
l121 -37q-31 -122 -100.5 -180t-184.5 -58t-183.5 58t-100.5 180zM1418 0h-176l-163 399h-709l-162 -399h-171l589 1434h203zM433 555h584l-292 716z" />
    <glyph glyph-name="uni1EB3" unicode="&#x1eb3;" horiz-adv-x="1275" 
d="M568 1434q7 31 25.5 59t37 44.5t33.5 38.5t16 44q1 23 -13.5 37t-37.5 14q-58 0 -104 -77l-78 47q29 65 78.5 100.5t111.5 35.5q71 0 117.5 -41.5t47.5 -105.5q0 -38 -17.5 -70.5t-40 -52.5t-49 -47.5t-37.5 -53.5zM474 1393q22 -82 58.5 -115t104.5 -33q69 0 105 32.5
t59 115.5l121 -37q-31 -122 -100.5 -180t-184.5 -58t-183.5 58t-100.5 180zM1097 0h-153v144q-127 -163 -354 -163q-206 0 -345.5 143.5t-139.5 360.5t140 360.5t345 143.5q225 0 354 -164v145h153v-970zM608 846q-153 0 -250 -104t-97 -257t97.5 -257t249.5 -104
q151 0 248 103t97 258t-97.5 258t-247.5 103z" />
    <glyph glyph-name="uni1EB4" unicode="&#x1eb4;" horiz-adv-x="1455" 
d="M419 2023q84 104 204 104q54 0 99 -18.5t80.5 -37t67.5 -18.5q61 0 121 63l83 -80q-84 -104 -204 -104q-53 0 -98 19t-81 37.5t-68 18.5q-62 0 -122 -63zM564 1857q22 -82 58.5 -115t104.5 -33q69 0 105 32.5t59 115.5l121 -37q-31 -122 -100.5 -180t-184.5 -58
t-183.5 58t-100.5 180zM1418 0h-176l-163 399h-709l-162 -399h-171l589 1434h203zM433 555h584l-292 716z" />
    <glyph glyph-name="uni1EB5" unicode="&#x1eb5;" horiz-adv-x="1275" 
d="M329 1560q43 53 91 78t112 25q54 0 99 -18.5t81 -37t68 -18.5q61 0 121 63l83 -80q-84 -104 -204 -104q-53 0 -98 19t-81.5 37.5t-68.5 18.5q-61 0 -121 -63zM474 1393q22 -82 58.5 -115t104.5 -33q69 0 105 32.5t59 115.5l121 -37q-31 -122 -100.5 -180t-184.5 -58
t-183.5 58t-100.5 180zM1097 0h-153v144q-127 -163 -354 -163q-206 0 -345.5 143.5t-139.5 360.5t140 360.5t345 143.5q225 0 354 -164v145h153v-970zM608 846q-153 0 -250 -104t-97 -257t97.5 -257t249.5 -104q151 0 248 103t97 258t-97.5 258t-247.5 103z" />
    <glyph glyph-name="uni1EB6" unicode="&#x1eb6;" horiz-adv-x="1455" 
d="M564 1857q22 -82 58.5 -115t104.5 -33q69 0 105 32.5t59 115.5l121 -37q-31 -122 -100.5 -180t-184.5 -58t-183.5 58t-100.5 180zM1418 0h-176l-163 399h-709l-162 -399h-171l589 1434h203zM433 555h584l-292 716zM728 -163q45 0 77 -31.5t32 -76.5t-32 -76.5t-77 -31.5
q-46 0 -76.5 31t-30.5 77t30.5 77t76.5 31z" />
    <glyph glyph-name="uni1EB7" unicode="&#x1eb7;" horiz-adv-x="1275" 
d="M474 1393q22 -82 58.5 -115t104.5 -33q69 0 105 32.5t59 115.5l121 -37q-31 -122 -100.5 -180t-184.5 -58t-183.5 58t-100.5 180zM1097 0h-153v144q-127 -163 -354 -163q-206 0 -345.5 143.5t-139.5 360.5t140 360.5t345 143.5q225 0 354 -164v145h153v-970zM608 846
q-153 0 -250 -104t-97 -257t97.5 -257t249.5 -104q151 0 248 103t97 258t-97.5 258t-247.5 103zM637 -163q45 0 76.5 -31t31.5 -77t-31.5 -77t-76.5 -31q-46 0 -77 31t-31 77t31 77t77 31z" />
    <glyph glyph-name="uni1EB8" unicode="&#x1eb8;" horiz-adv-x="1380" 
d="M1215 0h-1008v1434h999v-155h-834v-480h809v-154h-809v-490h843v-155zM690 -163q45 0 77 -31.5t32 -76.5t-32 -76.5t-77 -31.5q-46 0 -76.5 31t-30.5 77t30.5 77t76.5 31z" />
    <glyph glyph-name="uni1EB9" unicode="&#x1eb9;" horiz-adv-x="1147" 
d="M587 989q130 0 233.5 -63.5t162 -177.5t59.5 -260q0 -32 -3 -57h-777q16 -151 111 -233.5t232 -82.5q174 0 307 122l82 -105q-158 -151 -398 -151q-216 0 -353.5 139.5t-137.5 363.5q0 221 137 363t345 142zM584 853q-131 0 -216 -82t-104 -216h623q-14 136 -96.5 217
t-206.5 81zM573 -163q45 0 77 -31.5t32 -76.5t-32 -76.5t-77 -31.5q-46 0 -76.5 31t-30.5 77t30.5 77t76.5 31z" />
    <glyph glyph-name="uni1EBA" unicode="&#x1eba;" horiz-adv-x="1380" 
d="M632 1587q7 31 25.5 59t37 45t33 39t15.5 44q1 23 -13.5 37t-37.5 14q-57 0 -103 -77l-78 47q61 135 189 135q71 0 117.5 -41t47.5 -105q0 -38 -17.5 -70.5t-40 -52.5t-48.5 -47.5t-37 -53.5zM1215 0h-1008v1434h999v-155h-834v-480h809v-154h-809v-490h843v-155z" />
    <glyph glyph-name="uni1EBB" unicode="&#x1ebb;" horiz-adv-x="1147" 
d="M516 1123q7 31 25.5 59t37 45t33.5 39t16 44q1 23 -13.5 37t-37.5 14q-58 0 -104 -77l-78 47q61 135 190 135q71 0 117.5 -41t47.5 -105q0 -38 -17.5 -70.5t-40 -52.5t-49 -47.5t-37.5 -53.5zM587 989q130 0 233.5 -63.5t162 -177.5t59.5 -260q0 -32 -3 -57h-777
q16 -151 111 -233.5t232 -82.5q174 0 307 122l82 -105q-158 -151 -398 -151q-216 0 -353.5 139.5t-137.5 363.5q0 221 137 363t345 142zM584 853q-131 0 -216 -82t-104 -216h623q-14 136 -96.5 217t-206.5 81z" />
    <glyph glyph-name="uni1EBC" unicode="&#x1ebc;" horiz-adv-x="1380" 
d="M330 1689q47 58 100 85.5t124 27.5q47 0 88.5 -12.5t67 -28t57 -28t59.5 -12.5q67 0 133 69l92 -87q-91 -114 -225 -114q-58 0 -107.5 20.5t-89.5 41t-75 20.5q-68 0 -134 -69zM1215 0h-1008v1434h999v-155h-834v-480h809v-154h-809v-490h843v-155z" />
    <glyph glyph-name="uni1EBD" unicode="&#x1ebd;" horiz-adv-x="1147" 
d="M247 1244q84 104 204 104q54 0 99 -18.5t80.5 -37t67.5 -18.5q62 0 121 62l83 -80q-84 -103 -204 -103q-42 0 -80 11.5t-60.5 26t-51.5 26t-55 11.5q-61 0 -122 -64zM587 989q130 0 233.5 -63.5t162 -177.5t59.5 -260q0 -32 -3 -57h-777q16 -151 111 -233.5t232 -82.5
q174 0 307 122l82 -105q-158 -151 -398 -151q-216 0 -353.5 139.5t-137.5 363.5q0 221 137 363t345 142zM584 853q-131 0 -216 -82t-104 -216h623q-14 136 -96.5 217t-206.5 81z" />
    <glyph glyph-name="uni1EBE" unicode="&#x1ebe;" horiz-adv-x="1380" 
d="M932 1747l132 256h194l-175 -256h-151zM820 1574l-130 126l-131 -126h-175l208 242h196l207 -242h-175zM1215 0h-1008v1434h999v-155h-834v-480h809v-154h-809v-490h843v-155z" />
    <glyph glyph-name="uni1EBF" unicode="&#x1ebf;" horiz-adv-x="1147" 
d="M816 1283l132 256h195l-175 -256h-152zM705 1110l-131 126l-131 -126h-175l208 242h197l207 -242h-175zM587 989q130 0 233.5 -63.5t162 -177.5t59.5 -260q0 -32 -3 -57h-777q16 -151 111 -233.5t232 -82.5q174 0 307 122l82 -105q-158 -151 -398 -151
q-216 0 -353.5 139.5t-137.5 363.5q0 221 137 363t345 142zM584 853q-131 0 -216 -82t-104 -216h623q-14 136 -96.5 217t-206.5 81z" />
    <glyph glyph-name="uni1EC0" unicode="&#x1ec0;" horiz-adv-x="1380" 
d="M794 2035h193l113 -256h-152zM820 1574l-130 126l-131 -126h-175l208 242h196l207 -242h-175zM1215 0h-1008v1434h999v-155h-834v-480h809v-154h-809v-490h843v-155z" />
    <glyph glyph-name="uni1EC1" unicode="&#x1ec1;" horiz-adv-x="1147" 
d="M678 1571h193l113 -256h-151zM705 1110l-131 126l-131 -126h-175l208 242h197l207 -242h-175zM587 989q130 0 233.5 -63.5t162 -177.5t59.5 -260q0 -32 -3 -57h-777q16 -151 111 -233.5t232 -82.5q174 0 307 122l82 -105q-158 -151 -398 -151q-216 0 -353.5 139.5
t-137.5 363.5q0 221 137 363t345 142zM584 853q-131 0 -216 -82t-104 -216h623q-14 136 -96.5 217t-206.5 81z" />
    <glyph glyph-name="uni1EC2" unicode="&#x1ec2;" horiz-adv-x="1380" 
d="M968 1734q8 39 36 72t51 60t24 54q1 23 -13.5 37t-37.5 14q-57 0 -103 -77l-78 48q61 135 189 135q71 0 117.5 -41.5t47.5 -105.5q0 -38 -17.5 -70.5t-40 -52.5t-48.5 -47.5t-37 -53.5zM820 1574l-130 126l-131 -126h-175l208 242h196l207 -242h-175zM1215 0h-1008v1434
h999v-155h-834v-480h809v-154h-809v-490h843v-155z" />
    <glyph glyph-name="uni1EC3" unicode="&#x1ec3;" horiz-adv-x="1147" 
d="M852 1270q7 31 25.5 59t37 44.5t33.5 38.5t16 44q1 23 -13.5 37t-38.5 14q-58 0 -103 -76l-78 47q61 135 190 135q70 0 116.5 -41.5t47.5 -105.5q0 -38 -17.5 -70.5t-40 -52.5t-48.5 -47.5t-37 -53.5zM705 1110l-131 126l-131 -126h-175l208 242h197l207 -242h-175z
M587 989q130 0 233.5 -63.5t162 -177.5t59.5 -260q0 -32 -3 -57h-777q16 -151 111 -233.5t232 -82.5q174 0 307 122l82 -105q-158 -151 -398 -151q-216 0 -353.5 139.5t-137.5 363.5q0 221 137 363t345 142zM584 853q-131 0 -216 -82t-104 -216h623q-14 136 -96.5 217
t-206.5 81z" />
    <glyph glyph-name="uni1EC4" unicode="&#x1ec4;" horiz-adv-x="1380" 
d="M362 1961q43 53 91 78t113 25q54 0 99 -18t81 -36.5t68 -18.5q62 0 121 62l83 -80q-84 -103 -204 -103q-53 0 -98 19t-81.5 37.5t-68.5 18.5q-61 0 -122 -64zM820 1574l-130 126l-131 -126h-175l208 242h196l207 -242h-175zM1215 0h-1008v1434h999v-155h-834v-480h809
v-154h-809v-490h843v-155z" />
    <glyph glyph-name="uni1EC5" unicode="&#x1ec5;" horiz-adv-x="1147" 
d="M247 1497q84 104 204 104q54 0 99 -18.5t80.5 -37t67.5 -18.5q62 0 121 62l83 -80q-84 -103 -204 -103q-53 0 -98 19t-81 37.5t-68 18.5q-61 0 -122 -64zM705 1110l-131 126l-131 -126h-175l208 242h197l207 -242h-175zM587 989q130 0 233.5 -63.5t162 -177.5t59.5 -260
q0 -32 -3 -57h-777q16 -151 111 -233.5t232 -82.5q174 0 307 122l82 -105q-158 -151 -398 -151q-216 0 -353.5 139.5t-137.5 363.5q0 221 137 363t345 142zM584 853q-131 0 -216 -82t-104 -216h623q-14 136 -96.5 217t-206.5 81z" />
    <glyph glyph-name="uni1EC6" unicode="&#x1ec6;" horiz-adv-x="1380" 
d="M820 1574l-130 126l-131 -126h-175l208 242h196l207 -242h-175zM1215 0h-1008v1434h999v-155h-834v-480h809v-154h-809v-490h843v-155zM690 -163q45 0 77 -31.5t32 -76.5t-32 -76.5t-77 -31.5q-46 0 -76.5 31t-30.5 77t30.5 77t76.5 31z" />
    <glyph glyph-name="uni1EC7" unicode="&#x1ec7;" horiz-adv-x="1147" 
d="M705 1110l-131 126l-131 -126h-175l208 242h197l207 -242h-175zM587 989q130 0 233.5 -63.5t162 -177.5t59.5 -260q0 -32 -3 -57h-777q16 -151 111 -233.5t232 -82.5q174 0 307 122l82 -105q-158 -151 -398 -151q-216 0 -353.5 139.5t-137.5 363.5q0 221 137 363t345 142
zM584 853q-131 0 -216 -82t-104 -216h623q-14 136 -96.5 217t-206.5 81zM573 -163q45 0 77 -31.5t32 -76.5t-32 -76.5t-77 -31.5q-46 0 -76.5 31t-30.5 77t30.5 77t76.5 31z" />
    <glyph glyph-name="uni1EC8" unicode="&#x1ec8;" horiz-adv-x="578" 
d="M231 1587q7 31 25.5 59t37 45t33.5 39t16 44q1 23 -13.5 37t-37.5 14q-58 0 -104 -77l-77 47q61 135 189 135q71 0 117.5 -41t47.5 -105q0 -38 -17.5 -70.5t-40 -52.5t-48.5 -47.5t-37 -53.5zM372 0h-165v1434h165v-1434z" />
    <glyph glyph-name="uni1EC9" unicode="&#x1ec9;" horiz-adv-x="512" 
d="M198 1123q7 31 25.5 59t37 45t33 39t15.5 44q1 23 -13.5 37t-37.5 14q-57 0 -103 -77l-78 47q61 135 189 135q71 0 117.5 -41t47.5 -105q0 -38 -17.5 -70.5t-40 -52.5t-48.5 -47.5t-37 -53.5zM333 0h-154v970h154v-970z" />
    <glyph glyph-name="uni1ECA" unicode="&#x1eca;" horiz-adv-x="578" 
d="M372 0h-165v1434h165v-1434zM290 -163q45 0 76.5 -31t31.5 -77t-31.5 -77t-76.5 -31q-46 0 -77 31t-31 77t31 77t77 31z" />
    <glyph glyph-name="uni1ECB" unicode="&#x1ecb;" horiz-adv-x="512" 
d="M256 1422q45 0 77 -31.5t32 -76.5t-32 -76.5t-77 -31.5q-46 0 -77 31t-31 77t31 77t77 31zM333 0h-154v970h154v-970zM255 -163q45 0 77 -31.5t32 -76.5t-32 -76.5t-77 -31.5q-46 0 -77 31t-31 77t31 77t77 31z" />
    <glyph glyph-name="uni1ECC" unicode="&#x1ecc;" horiz-adv-x="1729" 
d="M864 1454q158 0 295.5 -55t235.5 -151.5t154 -234t56 -296.5t-56 -296.5t-154 -234t-235.5 -151.5t-295.5 -55t-295 55t-235 151.5t-154 234t-56 296.5t56 296.5t154 234t235 151.5t295 55zM864 1295q-160 0 -289 -72t-203.5 -204.5t-74.5 -301.5t74.5 -302t203.5 -205
t289 -72q120 0 225 42.5t181 117.5t119.5 183.5t43.5 235.5q0 169 -74.5 301.5t-204 204.5t-290.5 72zM865 -163q45 0 77 -31.5t32 -76.5t-32 -76.5t-77 -31.5q-46 0 -76.5 31t-30.5 77t30.5 77t76.5 31z" />
    <glyph glyph-name="uni1ECD" unicode="&#x1ecd;" horiz-adv-x="1231" 
d="M615 989q219 0 365 -144.5t146 -359.5q0 -216 -146 -360t-365 -144t-364.5 144t-145.5 360q0 106 39 199.5t106.5 160.5t162 105.5t202.5 38.5zM615 846q-152 0 -253 -102.5t-101 -258.5q0 -157 101 -259t253 -102t253.5 102t101.5 259q0 156 -101.5 258.5t-253.5 102.5z
M615 -163q45 0 77 -31.5t32 -76.5t-32 -76.5t-77 -31.5q-46 0 -76.5 31t-30.5 77t30.5 77t76.5 31z" />
    <glyph glyph-name="uni1ECE" unicode="&#x1ece;" horiz-adv-x="1729" 
d="M807 1587q7 31 25.5 59t37 45t33.5 39t16 44q1 23 -13.5 37t-38.5 14q-57 0 -103 -77l-78 47q61 135 190 135q71 0 117 -41t47 -105q0 -38 -17.5 -70.5t-40 -52.5t-48.5 -47.5t-37 -53.5zM864 1454q158 0 295.5 -55t235.5 -151.5t154 -234t56 -296.5t-56 -296.5
t-154 -234t-235.5 -151.5t-295.5 -55t-295 55t-235 151.5t-154 234t-56 296.5t56 296.5t154 234t235 151.5t295 55zM864 1295q-160 0 -289 -72t-203.5 -204.5t-74.5 -301.5t74.5 -302t203.5 -205t289 -72q120 0 225 42.5t181 117.5t119.5 183.5t43.5 235.5
q0 169 -74.5 301.5t-204 204.5t-290.5 72z" />
    <glyph glyph-name="uni1ECF" unicode="&#x1ecf;" horiz-adv-x="1231" 
d="M558 1123q7 31 25.5 59t37 45t33.5 39t16 44q1 23 -13.5 37t-38.5 14q-57 0 -103 -77l-78 47q61 135 190 135q71 0 117.5 -41t47.5 -105q0 -38 -17.5 -70.5t-40 -52.5t-49 -47.5t-37.5 -53.5zM615 989q219 0 365 -144.5t146 -359.5q0 -216 -146 -360t-365 -144
t-364.5 144t-145.5 360q0 106 39 199.5t106.5 160.5t162 105.5t202.5 38.5zM615 846q-152 0 -253 -102.5t-101 -258.5q0 -157 101 -259t253 -102t253.5 102t101.5 259q0 156 -101.5 258.5t-253.5 102.5z" />
    <glyph glyph-name="uni1ED0" unicode="&#x1ed0;" horiz-adv-x="1729" 
d="M1107 1747l132 256h195l-176 -256h-151zM995 1574l-130 126l-131 -126h-175l208 242h197l206 -242h-175zM864 1454q158 0 295.5 -55t235.5 -151.5t154 -234t56 -296.5t-56 -296.5t-154 -234t-235.5 -151.5t-295.5 -55t-295 55t-235 151.5t-154 234t-56 296.5t56 296.5
t154 234t235 151.5t295 55zM864 1295q-160 0 -289 -72t-203.5 -204.5t-74.5 -301.5t74.5 -302t203.5 -205t289 -72q120 0 225 42.5t181 117.5t119.5 183.5t43.5 235.5q0 169 -74.5 301.5t-204 204.5t-290.5 72z" />
    <glyph glyph-name="uni1ED1" unicode="&#x1ed1;" horiz-adv-x="1231" 
d="M858 1283l132 256h195l-175 -256h-152zM746 1110l-130 126l-131 -126h-175l208 242h197l207 -242h-176zM615 989q219 0 365 -144.5t146 -359.5q0 -216 -146 -360t-365 -144t-364.5 144t-145.5 360q0 106 39 199.5t106.5 160.5t162 105.5t202.5 38.5zM615 846
q-152 0 -253 -102.5t-101 -258.5q0 -157 101 -259t253 -102t253.5 102t101.5 259q0 156 -101.5 258.5t-253.5 102.5z" />
    <glyph glyph-name="uni1ED2" unicode="&#x1ed2;" horiz-adv-x="1729" 
d="M969 2035h193l113 -256h-152zM995 1574l-130 126l-131 -126h-175l208 242h197l206 -242h-175zM864 1454q158 0 295.5 -55t235.5 -151.5t154 -234t56 -296.5t-56 -296.5t-154 -234t-235.5 -151.5t-295.5 -55t-295 55t-235 151.5t-154 234t-56 296.5t56 296.5t154 234
t235 151.5t295 55zM864 1295q-160 0 -289 -72t-203.5 -204.5t-74.5 -301.5t74.5 -302t203.5 -205t289 -72q120 0 225 42.5t181 117.5t119.5 183.5t43.5 235.5q0 169 -74.5 301.5t-204 204.5t-290.5 72z" />
    <glyph glyph-name="uni1ED3" unicode="&#x1ed3;" horiz-adv-x="1231" 
d="M720 1571h193l113 -256h-152zM746 1110l-130 126l-131 -126h-175l208 242h197l207 -242h-176zM615 989q219 0 365 -144.5t146 -359.5q0 -216 -146 -360t-365 -144t-364.5 144t-145.5 360q0 106 39 199.5t106.5 160.5t162 105.5t202.5 38.5zM615 846q-152 0 -253 -102.5
t-101 -258.5q0 -157 101 -259t253 -102t253.5 102t101.5 259q0 156 -101.5 258.5t-253.5 102.5z" />
    <glyph glyph-name="uni1ED4" unicode="&#x1ed4;" horiz-adv-x="1729" 
d="M1143 1734q8 39 36 72t51 60t24 54q1 23 -13.5 37t-37.5 14q-57 0 -103 -77l-78 48q61 135 189 135q71 0 117.5 -41.5t47.5 -105.5q0 -38 -17.5 -70.5t-40 -52.5t-48.5 -47.5t-37 -53.5zM995 1574l-130 126l-131 -126h-175l208 242h197l206 -242h-175zM864 1454
q158 0 295.5 -55t235.5 -151.5t154 -234t56 -296.5t-56 -296.5t-154 -234t-235.5 -151.5t-295.5 -55t-295 55t-235 151.5t-154 234t-56 296.5t56 296.5t154 234t235 151.5t295 55zM864 1295q-160 0 -289 -72t-203.5 -204.5t-74.5 -301.5t74.5 -302t203.5 -205t289 -72
q120 0 225 42.5t181 117.5t119.5 183.5t43.5 235.5q0 169 -74.5 301.5t-204 204.5t-290.5 72z" />
    <glyph glyph-name="uni1ED5" unicode="&#x1ed5;" horiz-adv-x="1231" 
d="M894 1270q7 31 25.5 59t37 44.5t33.5 38.5t16 44q1 23 -13.5 37t-38.5 14q-58 0 -103 -76l-78 47q61 135 190 135q70 0 116.5 -41.5t47.5 -105.5q0 -38 -17.5 -70.5t-40 -52.5t-48.5 -47.5t-37 -53.5zM746 1110l-130 126l-131 -126h-175l208 242h197l207 -242h-176z
M615 989q219 0 365 -144.5t146 -359.5q0 -216 -146 -360t-365 -144t-364.5 144t-145.5 360q0 106 39 199.5t106.5 160.5t162 105.5t202.5 38.5zM615 846q-152 0 -253 -102.5t-101 -258.5q0 -157 101 -259t253 -102t253.5 102t101.5 259q0 156 -101.5 258.5t-253.5 102.5z
" />
    <glyph glyph-name="uni1ED6" unicode="&#x1ed6;" horiz-adv-x="1729" 
d="M538 1961q43 53 91 78t112 25q54 0 99 -18t81 -36.5t68 -18.5q62 0 121 62l83 -80q-84 -103 -204 -103q-53 0 -98 19t-81.5 37.5t-68.5 18.5q-60 0 -121 -64zM995 1574l-130 126l-131 -126h-175l208 242h197l206 -242h-175zM864 1454q158 0 295.5 -55t235.5 -151.5
t154 -234t56 -296.5t-56 -296.5t-154 -234t-235.5 -151.5t-295.5 -55t-295 55t-235 151.5t-154 234t-56 296.5t56 296.5t154 234t235 151.5t295 55zM864 1295q-160 0 -289 -72t-203.5 -204.5t-74.5 -301.5t74.5 -302t203.5 -205t289 -72q120 0 225 42.5t181 117.5
t119.5 183.5t43.5 235.5q0 169 -74.5 301.5t-204 204.5t-290.5 72z" />
    <glyph glyph-name="uni1ED7" unicode="&#x1ed7;" horiz-adv-x="1231" 
d="M289 1497q84 104 204 104q54 0 99 -18.5t80.5 -37t67.5 -18.5q62 0 121 62l83 -80q-84 -103 -204 -103q-53 0 -98 19t-81 37.5t-68 18.5q-61 0 -122 -64zM746 1110l-130 126l-131 -126h-175l208 242h197l207 -242h-176zM615 989q219 0 365 -144.5t146 -359.5
q0 -216 -146 -360t-365 -144t-364.5 144t-145.5 360q0 106 39 199.5t106.5 160.5t162 105.5t202.5 38.5zM615 846q-152 0 -253 -102.5t-101 -258.5q0 -157 101 -259t253 -102t253.5 102t101.5 259q0 156 -101.5 258.5t-253.5 102.5z" />
    <glyph glyph-name="uni1ED8" unicode="&#x1ed8;" horiz-adv-x="1729" 
d="M995 1574l-130 126l-131 -126h-175l208 242h197l206 -242h-175zM864 1454q158 0 295.5 -55t235.5 -151.5t154 -234t56 -296.5t-56 -296.5t-154 -234t-235.5 -151.5t-295.5 -55t-295 55t-235 151.5t-154 234t-56 296.5t56 296.5t154 234t235 151.5t295 55zM864 1295
q-160 0 -289 -72t-203.5 -204.5t-74.5 -301.5t74.5 -302t203.5 -205t289 -72q120 0 225 42.5t181 117.5t119.5 183.5t43.5 235.5q0 169 -74.5 301.5t-204 204.5t-290.5 72zM865 -163q45 0 77 -31.5t32 -76.5t-32 -76.5t-77 -31.5q-46 0 -76.5 31t-30.5 77t30.5 77t76.5 31z
" />
    <glyph glyph-name="uni1ED9" unicode="&#x1ed9;" horiz-adv-x="1231" 
d="M746 1110l-130 126l-131 -126h-175l208 242h197l207 -242h-176zM615 989q219 0 365 -144.5t146 -359.5q0 -216 -146 -360t-365 -144t-364.5 144t-145.5 360q0 106 39 199.5t106.5 160.5t162 105.5t202.5 38.5zM615 846q-152 0 -253 -102.5t-101 -258.5q0 -157 101 -259
t253 -102t253.5 102t101.5 259q0 156 -101.5 258.5t-253.5 102.5zM615 -163q45 0 77 -31.5t32 -76.5t-32 -76.5t-77 -31.5q-46 0 -76.5 31t-30.5 77t30.5 77t76.5 31z" />
    <glyph glyph-name="uni1EDA" unicode="&#x1eda;" horiz-adv-x="1729" 
d="M1108 1799l-175 -256h-152l132 256h195zM1238 1363q171 -93 269 -262t98 -384q0 -159 -56 -296.5t-154 -234t-235.5 -151.5t-295.5 -55t-295 55t-235 151.5t-154 234t-56 296.5t56 296.5t154 234t235 151.5t295 55q97 0 186 -20q83 1 122.5 30.5t66.5 123.5h123
q-18 -149 -124 -225zM864 138q120 0 225 42.5t181 117.5t119.5 183.5t43.5 235.5q0 169 -74.5 301.5t-204 204.5t-290.5 72q-160 0 -289 -72t-203.5 -204.5t-74.5 -301.5t74.5 -302t203.5 -205t289 -72z" />
    <glyph glyph-name="uni1EDB" unicode="&#x1edb;" horiz-adv-x="1231" 
d="M861 1374l-175 -256h-151l132 256h194zM931 888q92 -69 143.5 -174t51.5 -229q0 -216 -146 -360t-365 -144t-364.5 144t-145.5 360q0 106 39 199.5t106.5 160.5t162 105.5t202.5 38.5q74 0 147 -19q82 1 121.5 31t66.5 123h123q-19 -161 -142 -236zM615 124
q152 0 253.5 102t101.5 259q0 156 -101.5 258.5t-253.5 102.5t-253 -102.5t-101 -258.5q0 -157 101 -259t253 -102z" />
    <glyph glyph-name="uni1EDC" unicode="&#x1edc;" horiz-adv-x="1729" 
d="M945 1543h-151l-176 256h194zM1238 1363q171 -93 269 -262t98 -384q0 -159 -56 -296.5t-154 -234t-235.5 -151.5t-295.5 -55t-295 55t-235 151.5t-154 234t-56 296.5t56 296.5t154 234t235 151.5t295 55q97 0 186 -20q83 1 122.5 30.5t66.5 123.5h123q-18 -149 -124 -225
zM864 138q120 0 225 42.5t181 117.5t119.5 183.5t43.5 235.5q0 169 -74.5 301.5t-204 204.5t-290.5 72q-160 0 -289 -72t-203.5 -204.5t-74.5 -301.5t74.5 -302t203.5 -205t289 -72z" />
    <glyph glyph-name="uni1EDD" unicode="&#x1edd;" horiz-adv-x="1231" 
d="M687 1118h-151l-155 256h193zM931 888q92 -69 143.5 -174t51.5 -229q0 -216 -146 -360t-365 -144t-364.5 144t-145.5 360q0 106 39 199.5t106.5 160.5t162 105.5t202.5 38.5q74 0 147 -19q82 1 121.5 31t66.5 123h123q-19 -161 -142 -236zM615 124q152 0 253.5 102
t101.5 259q0 156 -101.5 258.5t-253.5 102.5t-253 -102.5t-101 -258.5q0 -157 101 -259t253 -102z" />
    <glyph glyph-name="uni1EDE" unicode="&#x1ede;" horiz-adv-x="1729" 
d="M867 1825q-57 0 -103 -77l-78 47q61 135 190 135q71 0 117 -41t47 -105q0 -38 -17.5 -70.5t-40 -52.5t-48.5 -47.5t-37 -53.5l-90 27q7 31 25.5 59t37 45t33.5 39t16 44q1 23 -13.5 37t-38.5 14zM1238 1363q171 -93 269 -262t98 -384q0 -159 -56 -296.5t-154 -234
t-235.5 -151.5t-295.5 -55t-295 55t-235 151.5t-154 234t-56 296.5t56 296.5t154 234t235 151.5t295 55q97 0 186 -20q83 1 122.5 30.5t66.5 123.5h123q-18 -149 -124 -225zM864 138q120 0 225 42.5t181 117.5t119.5 183.5t43.5 235.5q0 169 -74.5 301.5t-204 204.5
t-290.5 72q-160 0 -289 -72t-203.5 -204.5t-74.5 -301.5t74.5 -302t203.5 -205t289 -72z" />
    <glyph glyph-name="uni1EDF" unicode="&#x1edf;" horiz-adv-x="1231" 
d="M618 1361q-57 0 -103 -77l-78 47q61 135 190 135q71 0 117.5 -41t47.5 -105q0 -38 -17.5 -70.5t-40 -52.5t-49 -47.5t-37.5 -53.5l-90 27q7 31 25.5 59t37 45t33.5 39t16 44q1 23 -13.5 37t-38.5 14zM931 888q92 -69 143.5 -174t51.5 -229q0 -216 -146 -360t-365 -144
t-364.5 144t-145.5 360q0 106 39 199.5t106.5 160.5t162 105.5t202.5 38.5q74 0 147 -19q82 1 121.5 31t66.5 123h123q-19 -161 -142 -236zM615 124q152 0 253.5 102t101.5 259q0 156 -101.5 258.5t-253.5 102.5t-253 -102.5t-101 -258.5q0 -157 101 -259t253 -102z" />
    <glyph glyph-name="uni1EE0" unicode="&#x1ee0;" horiz-adv-x="1729" 
d="M729 1671q-68 0 -134 -69l-90 87q47 58 100 85.5t124 27.5q47 0 88.5 -12.5t67 -28t57 -28t59.5 -12.5q68 0 134 69l91 -87q-92 -114 -225 -114q-58 0 -107.5 20.5t-89.5 41t-75 20.5zM1238 1363q171 -93 269 -262t98 -384q0 -159 -56 -296.5t-154 -234t-235.5 -151.5
t-295.5 -55t-295 55t-235 151.5t-154 234t-56 296.5t56 296.5t154 234t235 151.5t295 55q97 0 186 -20q83 1 122.5 30.5t66.5 123.5h123q-18 -149 -124 -225zM864 138q120 0 225 42.5t181 117.5t119.5 183.5t43.5 235.5q0 169 -74.5 301.5t-204 204.5t-290.5 72
q-160 0 -289 -72t-203.5 -204.5t-74.5 -301.5t74.5 -302t203.5 -205t289 -72z" />
    <glyph glyph-name="uni1EE1" unicode="&#x1ee1;" horiz-adv-x="1231" 
d="M493 1228q-61 0 -122 -64l-82 80q84 104 204 104q54 0 99 -18.5t80.5 -37t67.5 -18.5q62 0 121 62l83 -80q-84 -103 -204 -103q-42 0 -80 11.5t-60.5 26t-51.5 26t-55 11.5zM931 888q92 -69 143.5 -174t51.5 -229q0 -216 -146 -360t-365 -144t-364.5 144t-145.5 360
q0 106 39 199.5t106.5 160.5t162 105.5t202.5 38.5q74 0 147 -19q82 1 121.5 31t66.5 123h123q-19 -161 -142 -236zM615 124q152 0 253.5 102t101.5 259q0 156 -101.5 258.5t-253.5 102.5t-253 -102.5t-101 -258.5q0 -157 101 -259t253 -102z" />
    <glyph glyph-name="uni1EE2" unicode="&#x1ee2;" horiz-adv-x="1729" 
d="M1238 1363q171 -93 269 -262t98 -384q0 -159 -56 -296.5t-154 -234t-235.5 -151.5t-295.5 -55t-295 55t-235 151.5t-154 234t-56 296.5t56 296.5t154 234t235 151.5t295 55q97 0 186 -20q83 1 122.5 30.5t66.5 123.5h123q-18 -149 -124 -225zM864 138q120 0 225 42.5
t181 117.5t119.5 183.5t43.5 235.5q0 169 -74.5 301.5t-204 204.5t-290.5 72q-160 0 -289 -72t-203.5 -204.5t-74.5 -301.5t74.5 -302t203.5 -205t289 -72zM865 -163q45 0 77 -31.5t32 -76.5t-32 -76.5t-77 -31.5q-46 0 -76.5 31t-30.5 77t30.5 77t76.5 31z" />
    <glyph glyph-name="uni1EE3" unicode="&#x1ee3;" horiz-adv-x="1231" 
d="M931 888q92 -69 143.5 -174t51.5 -229q0 -216 -146 -360t-365 -144t-364.5 144t-145.5 360q0 106 39 199.5t106.5 160.5t162 105.5t202.5 38.5q74 0 147 -19q82 1 121.5 31t66.5 123h123q-19 -161 -142 -236zM615 124q152 0 253.5 102t101.5 259q0 156 -101.5 258.5
t-253.5 102.5t-253 -102.5t-101 -258.5q0 -157 101 -259t253 -102zM615 -163q45 0 77 -31.5t32 -76.5t-32 -76.5t-77 -31.5q-46 0 -76.5 31t-30.5 77t30.5 77t76.5 31z" />
    <glyph glyph-name="uni1EE4" unicode="&#x1ee4;" horiz-adv-x="1553" 
d="M1367 561q0 -142 -46 -254t-127 -182.5t-187 -107t-231 -36.5t-231 36.5t-186.5 107t-126.5 182.5t-46 254v873h164v-861q0 -216 116.5 -325.5t309.5 -109.5t309.5 109.5t116.5 325.5v861h165v-873zM777 -163q45 0 77 -31.5t32 -76.5t-32 -76.5t-77 -31.5q-46 0 -76.5 31
t-30.5 77t30.5 77t76.5 31z" />
    <glyph glyph-name="uni1EE5" unicode="&#x1ee5;" horiz-adv-x="1216" 
d="M1049 404q0 -105 -36 -187t-97.5 -133t-140 -77t-167.5 -26q-90 0 -168 26t-139.5 77t-97 133t-35.5 187v566h153v-551q0 -145 78.5 -220t208.5 -75t208.5 75t78.5 220v551h154v-566zM607 -163q45 0 77 -31.5t32 -76.5t-32 -76.5t-77 -31.5q-46 0 -76.5 31t-30.5 77
t30.5 77t76.5 31z" />
    <glyph glyph-name="uni1EE6" unicode="&#x1ee6;" horiz-adv-x="1553" 
d="M719 1587q7 31 25.5 59t37 45t33 39t15.5 44q1 23 -13.5 37t-37.5 14q-57 0 -103 -77l-78 47q61 135 189 135q71 0 117.5 -41t47.5 -105q0 -38 -17.5 -70.5t-40 -52.5t-48.5 -47.5t-37 -53.5zM1367 561q0 -142 -46 -254t-127 -182.5t-187 -107t-231 -36.5t-231 36.5
t-186.5 107t-126.5 182.5t-46 254v873h164v-861q0 -216 116.5 -325.5t309.5 -109.5t309.5 109.5t116.5 325.5v861h165v-873z" />
    <glyph glyph-name="uni1EE7" unicode="&#x1ee7;" horiz-adv-x="1216" 
d="M550 1123q7 31 25.5 59t37 45t33.5 39t16 44q1 23 -13.5 37t-38.5 14q-57 0 -103 -77l-78 47q61 135 189 135q71 0 117.5 -41t47.5 -105q0 -38 -17.5 -70.5t-40 -52.5t-48.5 -47.5t-37 -53.5zM1049 404q0 -105 -36 -187t-97.5 -133t-140 -77t-167.5 -26q-90 0 -168 26
t-139.5 77t-97 133t-35.5 187v566h153v-551q0 -145 78.5 -220t208.5 -75t208.5 75t78.5 220v551h154v-566z" />
    <glyph glyph-name="uni1EE8" unicode="&#x1ee8;" horiz-adv-x="1553" 
d="M1020 1799l-175 -256h-152l132 256h195zM1572 1588q-13 -101 -66.5 -169.5t-138.5 -96.5v-761q0 -142 -46 -254t-127 -182.5t-187 -107t-231 -36.5t-231 36.5t-186.5 107t-126.5 182.5t-46 254v873h164v-861q0 -216 116.5 -325.5t309.5 -109.5t309.5 109.5t116.5 325.5
v861h51q87 0 127.5 29.5t68.5 124.5h123z" />
    <glyph glyph-name="uni1EE9" unicode="&#x1ee9;" horiz-adv-x="1216" 
d="M853 1374l-175 -256h-152l132 256h195zM1251 1124q-13 -100 -65.5 -168.5t-136.5 -96.5v-455q0 -105 -36 -187t-97.5 -133t-140 -77t-167.5 -26q-90 0 -168 26t-139.5 77t-97 133t-35.5 187v566h153v-551q0 -145 78.5 -220t208.5 -75t208.5 75t78.5 220v551h38
q86 0 126.5 29.5t68.5 124.5h123z" />
    <glyph glyph-name="uni1EEA" unicode="&#x1eea;" horiz-adv-x="1553" 
d="M857 1543h-151l-176 256h194zM1572 1588q-13 -101 -66.5 -169.5t-138.5 -96.5v-761q0 -142 -46 -254t-127 -182.5t-187 -107t-231 -36.5t-231 36.5t-186.5 107t-126.5 182.5t-46 254v873h164v-861q0 -216 116.5 -325.5t309.5 -109.5t309.5 109.5t116.5 325.5v861h51
q87 0 127.5 29.5t68.5 124.5h123z" />
    <glyph glyph-name="uni1EEB" unicode="&#x1eeb;" horiz-adv-x="1216" 
d="M679 1118h-152l-154 256h193zM1251 1124q-13 -100 -65.5 -168.5t-136.5 -96.5v-455q0 -105 -36 -187t-97.5 -133t-140 -77t-167.5 -26q-90 0 -168 26t-139.5 77t-97 133t-35.5 187v566h153v-551q0 -145 78.5 -220t208.5 -75t208.5 75t78.5 220v551h38q86 0 126.5 29.5
t68.5 124.5h123z" />
    <glyph glyph-name="uni1EEC" unicode="&#x1eec;" horiz-adv-x="1553" 
d="M779 1825q-57 0 -103 -77l-78 47q61 135 189 135q71 0 117.5 -41t47.5 -105q0 -38 -17.5 -70.5t-40 -52.5t-48.5 -47.5t-37 -53.5l-90 27q7 31 25.5 59t37 45t33 39t15.5 44q1 23 -13.5 37t-37.5 14zM1572 1588q-13 -101 -66.5 -169.5t-138.5 -96.5v-761q0 -142 -46 -254
t-127 -182.5t-187 -107t-231 -36.5t-231 36.5t-186.5 107t-126.5 182.5t-46 254v873h164v-861q0 -216 116.5 -325.5t309.5 -109.5t309.5 109.5t116.5 325.5v861h51q87 0 127.5 29.5t68.5 124.5h123z" />
    <glyph glyph-name="uni1EED" unicode="&#x1eed;" horiz-adv-x="1216" 
d="M610 1361q-57 0 -103 -77l-78 47q61 135 189 135q71 0 117.5 -41t47.5 -105q0 -38 -17.5 -70.5t-40 -52.5t-48.5 -47.5t-37 -53.5l-90 27q7 31 25.5 59t37 45t33.5 39t16 44q1 23 -13.5 37t-38.5 14zM1251 1124q-13 -100 -65.5 -168.5t-136.5 -96.5v-455q0 -105 -36 -187
t-97.5 -133t-140 -77t-167.5 -26q-90 0 -168 26t-139.5 77t-97 133t-35.5 187v566h153v-551q0 -145 78.5 -220t208.5 -75t208.5 75t78.5 220v551h38q86 0 126.5 29.5t68.5 124.5h123z" />
    <glyph glyph-name="uni1EEE" unicode="&#x1eee;" horiz-adv-x="1553" 
d="M641 1671q-68 0 -134 -69l-90 87q47 58 100 85.5t124 27.5q47 0 88.5 -12.5t67 -28t57 -28t59.5 -12.5q68 0 134 69l91 -87q-92 -114 -225 -114q-58 0 -107.5 20.5t-89.5 41t-75 20.5zM1572 1588q-13 -101 -66.5 -169.5t-138.5 -96.5v-761q0 -142 -46 -254t-127 -182.5
t-187 -107t-231 -36.5t-231 36.5t-186.5 107t-126.5 182.5t-46 254v873h164v-861q0 -216 116.5 -325.5t309.5 -109.5t309.5 109.5t116.5 325.5v861h51q87 0 127.5 29.5t68.5 124.5h123z" />
    <glyph glyph-name="uni1EEF" unicode="&#x1eef;" horiz-adv-x="1216" 
d="M484 1228q-61 0 -122 -64l-81 80q43 53 91 78.5t112 25.5q54 0 99 -18.5t81 -37t68 -18.5q62 0 121 62l83 -80q-84 -103 -204 -103q-53 0 -98 18.5t-81.5 37.5t-68.5 19zM1251 1124q-13 -100 -65.5 -168.5t-136.5 -96.5v-455q0 -105 -36 -187t-97.5 -133t-140 -77
t-167.5 -26q-90 0 -168 26t-139.5 77t-97 133t-35.5 187v566h153v-551q0 -145 78.5 -220t208.5 -75t208.5 75t78.5 220v551h38q86 0 126.5 29.5t68.5 124.5h123z" />
    <glyph glyph-name="uni1EF0" unicode="&#x1ef0;" horiz-adv-x="1553" 
d="M1572 1588q-13 -101 -66.5 -169.5t-138.5 -96.5v-761q0 -142 -46 -254t-127 -182.5t-187 -107t-231 -36.5t-231 36.5t-186.5 107t-126.5 182.5t-46 254v873h164v-861q0 -216 116.5 -325.5t309.5 -109.5t309.5 109.5t116.5 325.5v861h51q87 0 127.5 29.5t68.5 124.5h123z
M777 -163q45 0 77 -31.5t32 -76.5t-32 -76.5t-77 -31.5q-46 0 -76.5 31t-30.5 77t30.5 77t76.5 31z" />
    <glyph glyph-name="uni1EF1" unicode="&#x1ef1;" horiz-adv-x="1216" 
d="M1251 1124q-13 -100 -65.5 -168.5t-136.5 -96.5v-455q0 -105 -36 -187t-97.5 -133t-140 -77t-167.5 -26q-90 0 -168 26t-139.5 77t-97 133t-35.5 187v566h153v-551q0 -145 78.5 -220t208.5 -75t208.5 75t78.5 220v551h38q86 0 126.5 29.5t68.5 124.5h123zM607 -163
q45 0 77 -31.5t32 -76.5t-32 -76.5t-77 -31.5q-46 0 -76.5 31t-30.5 77t30.5 77t76.5 31z" />
    <glyph glyph-name="Ygrave" unicode="&#x1ef2;" horiz-adv-x="1317" 
d="M413 1799h193l133 -256h-151zM742 601v-601h-163v603l-568 831h197l454 -680l453 680h192z" />
    <glyph glyph-name="ygrave" unicode="&#x1ef3;" horiz-adv-x="1079" 
d="M304 1374h194l112 -256h-151zM274 -414h-169l362 624l-445 760h171l361 -609l342 609h168z" />
    <glyph glyph-name="uni1EF4" unicode="&#x1ef4;" horiz-adv-x="1317" 
d="M742 601v-601h-163v603l-568 831h197l454 -680l453 680h192zM659 -163q45 0 77 -31.5t32 -76.5t-32 -76.5t-77 -31.5q-46 0 -76.5 31t-30.5 77t30.5 77t76.5 31z" />
    <glyph glyph-name="uni1EF5" unicode="&#x1ef5;" horiz-adv-x="1079" 
d="M274 -414h-169l362 624l-445 760h171l361 -609l342 609h168zM780 -163q45 0 77 -31.5t32 -76.5t-32 -76.5t-77 -31.5q-46 0 -76.5 31t-30.5 77t30.5 77t76.5 31z" />
    <glyph glyph-name="uni1EF6" unicode="&#x1ef6;" horiz-adv-x="1317" 
d="M601 1587q7 31 25.5 59t37 45t33.5 39t16 44q1 23 -13.5 37t-37.5 14q-58 0 -104 -77l-78 47q61 135 190 135q71 0 117.5 -41t47.5 -105q0 -38 -17.5 -70.5t-40 -52.5t-49 -47.5t-37.5 -53.5zM742 601v-601h-163v603l-568 831h197l454 -680l453 680h192z" />
    <glyph glyph-name="uni1EF7" unicode="&#x1ef7;" horiz-adv-x="1079" 
d="M481 1123q7 31 25.5 59t37 45t33.5 39t16 44q1 23 -13.5 37t-37.5 14q-58 0 -104 -77l-78 47q61 135 190 135q71 0 117.5 -41t47.5 -105q0 -38 -17.5 -70.5t-40 -52.5t-49 -47.5t-37.5 -53.5zM274 -414h-169l362 624l-445 760h171l361 -609l342 609h168z" />
    <glyph glyph-name="uni1EF8" unicode="&#x1ef8;" horiz-adv-x="1317" 
d="M299 1689q47 58 100 85.5t124 27.5q47 0 88.5 -12.5t67 -28t57.5 -28t60 -12.5q67 0 133 69l91 -87q-47 -58 -100 -86t-124 -28q-46 0 -88 13t-67 28t-57 28t-61 13q-68 0 -134 -69zM742 601v-601h-163v603l-568 831h197l454 -680l453 680h192z" />
    <glyph glyph-name="uni1EF9" unicode="&#x1ef9;" horiz-adv-x="1079" 
d="M212 1244q84 104 204 104q54 0 99 -18.5t81 -37t68 -18.5q61 0 120 62l83 -80q-43 -53 -91 -78t-112 -25q-53 0 -98 18.5t-81.5 37.5t-68.5 19q-61 0 -122 -64zM274 -414h-169l362 624l-445 760h171l361 -609l342 609h168z" />
    <glyph glyph-name="uni2007" unicode="&#x2007;" horiz-adv-x="1453" 
 />
    <glyph glyph-name="uni2008" unicode="&#x2008;" horiz-adv-x="535" 
 />
    <glyph glyph-name="uni2009" unicode="&#x2009;" horiz-adv-x="182" 
 />
    <glyph glyph-name="uni200B" unicode="&#x200b;" 
 />
    <glyph glyph-name="uni2010" unicode="&#x2010;" horiz-adv-x="858" 
d="M714 472h-570v139h570v-139z" />
    <glyph glyph-name="uni2011" unicode="&#x2011;" horiz-adv-x="858" 
d="M714 472h-570v139h570v-139z" />
    <glyph glyph-name="figuredash" unicode="&#x2012;" horiz-adv-x="1228" 
d="M1101 472h-973v139h973v-139z" />
    <glyph glyph-name="endash" unicode="&#x2013;" horiz-adv-x="1220" 
d="M1097 472h-973v139h973v-139z" />
    <glyph glyph-name="emdash" unicode="&#x2014;" horiz-adv-x="1660" 
d="M1598 472h-1536v139h1536v-139z" />
    <glyph glyph-name="quoteleft" unicode="&#x2018;" horiz-adv-x="505" 
d="M136 955l108 520h132l-62 -520h-178z" />
    <glyph glyph-name="quoteright" unicode="&#x2019;" horiz-adv-x="505" 
d="M370 1475l-108 -520h-132l61 520h179z" />
    <glyph glyph-name="quotesinglbase" unicode="&#x201a;" horiz-adv-x="505" 
d="M370 254l-108 -519h-132l61 519h179z" />
    <glyph glyph-name="quotedblleft" unicode="&#x201c;" horiz-adv-x="869" 
d="M136 955l108 520h132l-62 -520h-178zM500 955l107 520h132l-61 -520h-178z" />
    <glyph glyph-name="quotedblright" unicode="&#x201d;" horiz-adv-x="868" 
d="M370 1475l-108 -520h-132l61 520h179zM732 1475l-107 -520h-132l61 520h178z" />
    <glyph glyph-name="quotedblbase" unicode="&#x201e;" horiz-adv-x="868" 
d="M370 254l-108 -519h-132l61 519h179zM732 254l-107 -519h-132l61 519h178z" />
    <glyph glyph-name="dagger" unicode="&#x2020;" horiz-adv-x="758" 
d="M316 689v450h-213v123h213v213h126v-213h213v-123h-213v-450h-126z" />
    <glyph glyph-name="daggerdbl" unicode="&#x2021;" horiz-adv-x="758" 
d="M442 1290h213v-123h-213v-170h213v-124h-213v-184h-126v184h-213v124h213v170h-213v123h213v185h126v-185z" />
    <glyph glyph-name="bullet" unicode="&#x2022;" horiz-adv-x="884" 
d="M443 774q96 0 164.5 -68t68.5 -164t-69 -164.5t-164 -68.5q-97 0 -164.5 68.5t-67.5 164.5q0 97 67.5 164.5t164.5 67.5z" />
    <glyph glyph-name="uni2023" unicode="&#x2023;" horiz-adv-x="1039" 
d="M264 184v715l618 -357z" />
    <glyph glyph-name="ellipsis" unicode="&#x2026;" horiz-adv-x="1525" 
d="M269 239q51 0 89 -38t38 -90t-38 -90.5t-89 -38.5q-52 0 -90.5 38.5t-38.5 90.5t38.5 90t90.5 38zM764 239q52 0 90 -38t38 -90t-38 -90.5t-90 -38.5t-90 38.5t-38 90.5t38 90t90 38zM1258 239q52 0 90 -38t38 -90t-38 -90.5t-90 -38.5q-51 0 -89.5 38.5t-38.5 90.5
t38.5 90t89.5 38z" />
    <glyph glyph-name="perthousand" unicode="&#x2030;" horiz-adv-x="2843" 
d="M474 1453q162 0 270.5 -106.5t108.5 -264.5q0 -160 -108.5 -266t-270.5 -106q-160 0 -267.5 106.5t-107.5 265.5q0 158 107.5 264.5t267.5 106.5zM620 0h-160l904 1434h160zM474 1318q-99 0 -165 -67t-66 -169q0 -103 66 -170t165 -67q102 0 168.5 66.5t66.5 170.5
q0 102 -66.5 169t-168.5 67zM1506 724q161 0 270 -107.5t109 -264.5q0 -159 -108.5 -265t-270.5 -106q-160 0 -267 106t-107 265q0 158 107 265t267 107zM2365 724q162 0 270.5 -107t108.5 -265q0 -159 -108.5 -265t-270.5 -106q-161 0 -267.5 105.5t-106.5 265.5
q0 159 107 265.5t267 106.5zM1506 589q-99 0 -165 -67t-66 -170t66 -169.5t165 -66.5q102 0 169 66.5t67 169.5t-67 170t-169 67zM2365 589q-99 0 -165 -67t-66 -170t65.5 -169.5t165.5 -66.5q102 0 168.5 66.5t66.5 169.5t-66.5 170t-168.5 67z" />
    <glyph glyph-name="minute" unicode="&#x2032;" horiz-adv-x="549" 
d="M414 1434l-138 -648h-146l138 648h146z" />
    <glyph glyph-name="second" unicode="&#x2033;" horiz-adv-x="870" 
d="M414 1434l-138 -648h-146l138 648h146zM734 1434l-137 -648h-146l138 648h145z" />
    <glyph glyph-name="uni2034" unicode="&#x2034;" horiz-adv-x="1142" 
d="M414 1434l-138 -648h-146l138 648h146zM711 1434l-138 -648h-146l138 648h146zM1007 1434l-138 -648h-146l138 648h146z" />
    <glyph glyph-name="guilsinglleft" unicode="&#x2039;" horiz-adv-x="640" 
d="M489 163h-163l-197 379l197 379h163l-195 -379z" />
    <glyph glyph-name="guilsinglright" unicode="&#x203a;" horiz-adv-x="640" 
d="M151 921h163l197 -379l-197 -379h-163l195 379z" />
    <glyph glyph-name="fraction" unicode="&#x2044;" horiz-adv-x="446" 
d="M-153 0h-152l904 1434h153z" />
    <glyph glyph-name="uni2070" unicode="&#x2070;" horiz-adv-x="891" 
d="M445 1444q147 0 246 -112t99 -300q0 -187 -99 -299t-246 -112q-146 0 -244.5 112t-98.5 299q0 188 98.5 300t244.5 112zM445 1323q-92 0 -152 -77.5t-60 -213.5t60 -213.5t152 -77.5q93 0 153 77.5t60 213.5t-60 213.5t-153 77.5z" />
    <glyph glyph-name="uni2071" unicode="&#x2071;" horiz-adv-x="382" 
d="M190 1622q36 0 60.5 -24.5t24.5 -59.5q0 -36 -24.5 -60t-60.5 -24q-35 0 -58.5 24t-23.5 60q0 35 23.5 59.5t58.5 24.5zM254 632h-126v678h126v-678z" />
    <glyph glyph-name="uni2074" unicode="&#x2074;" horiz-adv-x="706" 
d="M542 903h124v-116h-124v-155h-127v155h-374v92l283 554h140l-274 -530h225v222h127v-222z" />
    <glyph glyph-name="uni2075" unicode="&#x2075;" horiz-adv-x="729" 
d="M596 1316h-344l-6 -194h96q142 0 219 -65.5t77 -171.5q0 -121 -82 -192.5t-209 -71.5q-176 0 -280 115l74 84q38 -38 92.5 -60.5t112.5 -22.5q75 0 118 38.5t43 100.5q0 61 -46.5 97t-144.5 36h-186l12 424h454v-117z" />
    <glyph glyph-name="uni2076" unicode="&#x2076;" horiz-adv-x="726" 
d="M312 1143q30 8 67 8q124 0 202.5 -75t78.5 -187q0 -116 -85.5 -192t-214.5 -76t-214 75.5t-85 189.5q0 93 66 192l231 355h153zM360 1043q-72 0 -119 -43.5t-48 -111.5q0 -67 47.5 -111.5t119.5 -44.5q73 0 120.5 44t47.5 112q0 67 -47.5 111t-120.5 44z" />
    <glyph glyph-name="uni2077" unicode="&#x2077;" horiz-adv-x="678" 
d="M628 1334l-348 -702h-150l348 683h-417v118h567v-99z" />
    <glyph glyph-name="uni2078" unicode="&#x2078;" horiz-adv-x="794" 
d="M397 1444q124 0 207 -59.5t83 -161.5q0 -131 -137 -186q71 -25 114.5 -72t43.5 -119q0 -104 -89 -164.5t-222 -60.5t-221.5 60.5t-88.5 164.5q0 136 157 190q-138 55 -138 187q0 102 83.5 161.5t207.5 59.5zM397 1333q-68 0 -112 -32.5t-44 -90.5t44 -89.5t112 -31.5
q67 0 111.5 31.5t44.5 89.5t-44.5 90.5t-111.5 32.5zM397 986q-74 0 -124 -34t-50 -93q0 -62 49.5 -96t124.5 -34q74 0 123.5 34t49.5 96q0 59 -49.5 93t-123.5 34z" />
    <glyph glyph-name="uni2079" unicode="&#x2079;" horiz-adv-x="726" 
d="M414 922q-34 -9 -66 -9q-124 0 -202.5 75.5t-78.5 187.5q0 116 85 192t214 76t214.5 -75.5t85.5 -189.5q0 -88 -67 -192l-231 -355h-152zM366 1021q73 0 119.5 44t46.5 112q0 67 -47 111t-119 44t-120 -43.5t-48 -111.5q0 -67 48 -111.5t120 -44.5z" />
    <glyph glyph-name="uni207F" unicode="&#x207f;" horiz-adv-x="870" 
d="M476 1323q122 0 198 -73.5t76 -195.5v-422h-126v382q0 90 -47.5 140t-133.5 50q-81 0 -135 -52t-54 -140v-380h-126v678h123v-111q69 124 225 124z" />
    <glyph glyph-name="uni2080" unicode="&#x2080;" horiz-adv-x="891" 
d="M445 432q147 0 246 -112t99 -300q0 -187 -99 -299t-246 -112q-146 0 -244.5 112t-98.5 299q0 188 98.5 300t244.5 112zM445 311q-92 0 -152 -77.5t-60 -213.5t60 -213t152 -77q93 0 153 77t60 213t-60 213.5t-153 77.5z" />
    <glyph glyph-name="uni2081" unicode="&#x2081;" horiz-adv-x="563" 
d="M400 -380h-127v635l-222 -89v125l349 140v-811z" />
    <glyph glyph-name="uni2082" unicode="&#x2082;" horiz-adv-x="697" 
d="M67 296q100 136 268 136q123 0 194.5 -69.5t71.5 -180.5q0 -68 -29.5 -122.5t-88.5 -113.5l-205 -208h348v-118h-530v99l298 298q76 76 76 155q0 61 -39.5 100t-106.5 39q-99 0 -176 -94z" />
    <glyph glyph-name="uni2083" unicode="&#x2083;" horiz-adv-x="701" 
d="M315 432q125 0 203 -61t78 -160q0 -67 -34.5 -114.5t-96.5 -72.5q69 -24 108.5 -72.5t39.5 -114.5q0 -74 -42 -127t-106.5 -77t-142.5 -24q-176 0 -271 108l74 84q76 -79 190 -79q72 0 119.5 32t47.5 93q0 56 -50 88.5t-125 32.5h-102v113h102q70 0 114 31.5t44 88.5
q0 54 -43.5 85.5t-112.5 31.5q-108 0 -178 -85l-76 81q92 118 260 118z" />
    <glyph glyph-name="uni2084" unicode="&#x2084;" horiz-adv-x="706" 
d="M542 -109h124v-115h-124v-156h-127v156h-374v91l283 554h140l-274 -530h225v223h127v-223z" />
    <glyph glyph-name="uni2085" unicode="&#x2085;" horiz-adv-x="729" 
d="M596 304h-344l-6 -193h96q142 0 219 -66t77 -172q0 -121 -82 -192.5t-209 -71.5q-175 0 -280 116l74 84q38 -38 92.5 -60.5t112.5 -22.5q75 0 118 38t43 100q0 61 -46.5 97t-144.5 36h-186l12 424h454v-117z" />
    <glyph glyph-name="uni2086" unicode="&#x2086;" horiz-adv-x="726" 
d="M312 131q30 8 67 8q124 0 202.5 -75t78.5 -187q0 -116 -85.5 -192t-214.5 -76t-214 75.5t-85 189.5q0 94 66 193l231 354h153zM360 32q-72 0 -119 -44t-48 -112q0 -67 47.5 -111.5t119.5 -44.5q73 0 120.5 44t47.5 112t-47.5 112t-120.5 44z" />
    <glyph glyph-name="uni2087" unicode="&#x2087;" horiz-adv-x="678" 
d="M628 323l-348 -703h-150l348 683h-417v118h567v-98z" />
    <glyph glyph-name="uni2088" unicode="&#x2088;" horiz-adv-x="794" 
d="M397 432q124 0 207 -59.5t83 -161.5q0 -130 -137 -185q71 -25 114.5 -72.5t43.5 -119.5q0 -104 -89 -164.5t-222 -60.5t-221.5 60.5t-88.5 164.5q0 137 157 191q-138 55 -138 186q0 102 83.5 161.5t207.5 59.5zM397 322q-68 0 -112 -32.5t-44 -90.5t44 -90t112 -32
q67 0 111.5 32t44.5 90t-44.5 90.5t-111.5 32.5zM397 -26q-74 0 -124 -34t-50 -93q0 -62 49.5 -96t124.5 -34q74 0 123.5 34t49.5 96q0 59 -49.5 93t-123.5 34z" />
    <glyph glyph-name="uni2089" unicode="&#x2089;" horiz-adv-x="726" 
d="M414 -90q-30 -8 -66 -8q-125 0 -203 75t-78 187q0 116 85 192t214 76t214.5 -75.5t85.5 -189.5q0 -88 -67 -192l-231 -355h-152zM366 9q73 0 119.5 44t46.5 112t-47 112t-119 44t-120 -44t-48 -112q0 -67 48 -111.5t120 -44.5z" />
    <glyph glyph-name="Euro" unicode="&#x20ac;" horiz-adv-x="1433" 
d="M1069 489h-645q45 -171 160 -266t282 -95q245 0 385 207l102 -106q-175 -247 -487 -247q-235 0 -394.5 135t-213.5 372h-179v127h160q-5 53 -5 101q0 45 5 100h-160v127h179q54 236 213.5 372t394.5 136q158 0 282.5 -63.5t207.5 -179.5l-107 -110q-138 207 -383 207
q-168 0 -282.5 -96t-159.5 -266h645v-127h-668q-5 -55 -5 -100q0 -48 5 -101h668v-127z" />
    <glyph glyph-name="uni20BA" unicode="&#x20ba;" horiz-adv-x="1433" 
d="M1024 688l-521 -243v-292h238q146 0 251.5 67.5t190.5 222.5l135 -74q-110 -197 -249.5 -283t-339.5 -86h-384v372l-200 -92v135l200 92v198l-200 -93v136l200 93v593h158v-520l521 243v-136l-521 -243v-197l521 242v-135z" />
    <glyph glyph-name="uni2100" unicode="&#x2100;" horiz-adv-x="1954" 
d="M501 1453q140 0 220.5 -72.5t80.5 -213.5v-405h-124v91q-94 -105 -239 -105q-110 0 -174.5 58t-64.5 151t74 147.5t205 54.5h196q-3 181 -189 181q-111 0 -201 -72l-51 97q116 88 267 88zM650 0h-152l904 1434h152zM468 852q60 0 114.5 28t94.5 74v116h-179
q-84 0 -125 -30.5t-41 -78.5q0 -46 36 -77.5t100 -31.5zM1496 686q165 0 260 -117l-89 -77q-73 76 -174 76q-95 0 -158 -66t-63 -168q0 -103 63 -169t157 -66q102 0 177 78l87 -80q-97 -116 -260 -116q-156 0 -254.5 100t-98.5 253t98.5 252.5t254.5 99.5z" />
    <glyph glyph-name="uni2101" unicode="&#x2101;" horiz-adv-x="1954" 
d="M505 1453q140 0 220.5 -72.5t80.5 -213.5v-405h-124v91q-94 -105 -239 -105q-110 0 -174.5 58t-64.5 151t74 147.5t205 54.5h196q-3 181 -189 181q-111 0 -201 -72l-50 97q116 88 266 88zM654 0h-152l904 1434h153zM472 852q60 0 114.5 28t94.5 74v116h-179
q-84 0 -125 -30.5t-41 -78.5q0 -46 36 -77.5t100 -31.5zM1681 516q-43 26 -103.5 44.5t-120.5 18.5q-67 0 -106.5 -26.5t-39.5 -70.5q0 -70 136 -87l73 -9q225 -29 225 -190q0 -100 -80.5 -157.5t-219.5 -57.5q-176 0 -289 81l52 97q101 -72 239 -72q80 0 125 25t45 74
q0 74 -138 90l-72 9q-114 12 -170.5 61.5t-56.5 129.5q0 98 74 153.5t200 55.5q148 0 273 -71z" />
    <glyph glyph-name="uni2105" unicode="&#x2105;" horiz-adv-x="1954" 
d="M514 1453q165 0 260 -117l-89 -78q-74 77 -174 77q-95 0 -158 -66t-63 -168q0 -103 63 -169t157 -66q102 0 177 78l87 -80q-97 -116 -260 -116q-156 0 -254.5 100t-98.5 253t98.5 252.5t254.5 99.5zM593 0h-153l905 1434h152zM1438 686q154 0 255.5 -100t101.5 -252
t-101.5 -252.5t-255.5 -100.5t-256 100.5t-102 252.5q0 151 102 251.5t256 100.5zM1438 568q-98 0 -163.5 -66.5t-65.5 -167.5q0 -102 65.5 -168.5t163.5 -66.5t163.5 66.5t65.5 168.5q0 101 -65.5 167.5t-163.5 66.5z" />
    <glyph glyph-name="uni2106" unicode="&#x2106;" horiz-adv-x="1954" 
d="M511 1453q165 0 260 -117l-89 -78q-74 77 -174 77q-95 0 -158 -66t-63 -168q0 -103 63 -169t157 -66q102 0 177 78l87 -80q-97 -116 -260 -116q-156 0 -254.5 100t-98.5 253t98.5 252.5t254.5 99.5zM590 0h-153l904 1434h153zM1798 279q0 -144 -88.5 -221t-222.5 -77
t-222 77t-88 221v394h126v-383q0 -93 50.5 -142t133.5 -49q85 0 135.5 49t50.5 142v383h125v-394z" />
    <glyph glyph-name="uni2113" unicode="&#x2113;" horiz-adv-x="1097" 
d="M145 518q100 42 167 78l1 517q1 167 87 274t228 107q135 0 220 -88t85 -226q0 -130 -63 -254t-164.5 -222t-240.5 -184v-179q0 -110 49.5 -163.5t134.5 -53.5q110 0 206 74l61 -122q-126 -96 -280 -96q-156 0 -240.5 89.5t-84.5 269.5v97q-72 -34 -109 -49zM465 690
q147 104 229 229.5t82 260.5q0 80 -39 125.5t-109 45.5q-72 0 -117 -64.5t-45 -173.5z" />
    <glyph glyph-name="uni2116" unicode="&#x2116;" horiz-adv-x="2491" 
d="M2054 1448q154 0 255 -100t101 -251q0 -150 -101.5 -250.5t-254.5 -100.5t-254 100.5t-101 250.5q0 151 101 251t254 100zM1408 0h-148l-888 1151v-1151h-165v1434h148l888 -1151v1151h165v-1434zM2054 1331q-98 0 -163 -66t-65 -168t65 -168t163 -66t164 66.5t66 167.5
q0 102 -66 168t-164 66zM2394 455h-680v138h680v-138z" />
    <glyph glyph-name="uni2117" unicode="&#x2117;" horiz-adv-x="1948" 
d="M974 1544q168 0 321 -65t263 -174.5t175.5 -261t65.5 -318.5t-65.5 -319t-175.5 -262t-263 -175t-321 -65t-321 65t-263.5 175t-176 262t-65.5 319t65.5 318.5t176 261t263.5 174.5t321 65zM974 1409q-187 0 -345 -91.5t-249.5 -249t-91.5 -343.5q0 -140 54 -267
t146 -219t219 -146t267 -54q187 0 344.5 91.5t249.5 249.5t92 345q0 186 -92 343.5t-249.5 249t-344.5 91.5zM1037 1151q162 0 252 -71.5t90 -197.5q0 -125 -90 -196.5t-251 -71.5h-220v-328h-136v865h355zM818 1027v-291h216q98 0 151.5 37.5t53.5 108.5t-53.5 108
t-151.5 37h-216z" />
    <glyph glyph-name="uni2120" unicode="&#x2120;" horiz-adv-x="1520" 
d="M573 1292q-96 51 -191 51q-63 0 -102 -21t-39 -58q0 -34 36.5 -52t107.5 -25l48 -5q96 -9 152 -50t56 -112q0 -97 -77.5 -147t-193.5 -50q-75 0 -146 19t-121 51l55 90q94 -59 213 -59q67 0 109 20.5t42 60.5q0 35 -35 51.5t-111 24.5l-53 5q-97 9 -150 52t-53 115
q0 86 73 138t186 52q131 0 244 -60zM1328 835v452l-169 -390h-116l-169 389v-451h-110v599h157l181 -412l180 412h156v-599h-110z" />
    <glyph glyph-name="trademark" unicode="&#x2122;" horiz-adv-x="1468" 
d="M1275 835v453l-169 -391h-115l-169 390v-452h-110v600h156l181 -413l180 413h156v-600h-110zM284 835v497h-201v102h511v-102h-201v-497h-109z" />
    <glyph glyph-name="uni2126" unicode="&#x2126;" horiz-adv-x="1761" 
d="M433 156q-137 90 -215 234t-78 322q0 160 56 298t154 235.5t235.5 153t295.5 55.5t295 -55.5t235 -153t154 -235.5t56 -298q0 -178 -78.5 -322t-215.5 -234h351v-156h-616v134q175 56 281 208.5t106 362.5q0 130 -43.5 240.5t-119 187t-180.5 119.5t-225 43t-225 -43
t-181 -119.5t-119.5 -187t-43.5 -240.5q0 -210 106 -362.5t281 -208.5v-134h-616v156h350z" />
    <glyph glyph-name="estimated" unicode="&#x212e;" horiz-adv-x="2048" 
d="M462 334q0 -80 23.5 -137t82.5 -99q197 -144 456 -144q198 0 364 86t267 240l48 -37q-110 -165 -288.5 -257t-390.5 -92q-168 0 -317.5 60t-260 166t-175 261t-64.5 336t64.5 336t175 261t260 166t317.5 60t317.5 -60t260 -166t175 -261t64.5 -336q0 -21 -1 -30h-1378
v-353zM1595 746v344q0 79 -22.5 135.5t-79.5 100.5q-201 154 -469 154q-258 0 -456 -145q-59 -42 -82.5 -98.5t-23.5 -136.5v-354h1133z" />
    <glyph glyph-name="uni214D" unicode="&#x214d;" horiz-adv-x="1954" 
d="M863 687h-135l-65 177h-333l-65 -177h-132l289 747h151zM678 0h-153l905 1434h152zM373 980h248l-124 336zM1745 575q-106 65 -225 65q-73 0 -119 -27t-46 -76q0 -81 174 -101l55 -6q113 -12 176 -63t63 -138q0 -61 -25.5 -108t-70 -75t-100 -42t-118.5 -14
q-89 0 -170 23.5t-138 63.5l61 103q117 -75 249 -75q78 0 126.5 27t48.5 80q0 45 -41 67t-131 32l-59 7q-235 27 -235 207q0 105 82 168t212 63q155 0 285 -76z" />
    <glyph glyph-name="uni2150" unicode="&#x2150;" horiz-adv-x="1740" 
d="M400 632h-127v635l-222 -89v125l349 140v-811zM435 0h-152l904 1434h152zM1690 702l-349 -702h-149l348 683h-417v118h567v-99z" />
    <glyph glyph-name="uni2151" unicode="&#x2151;" horiz-adv-x="1760" 
d="M400 632h-127v635l-222 -89v125l349 140v-811zM435 0h-152l904 1434h152zM1448 290q-30 -8 -66 -8q-125 0 -203 75t-78 187q0 116 85 192t214 76t214.5 -75.5t85.5 -189.5q0 -88 -67 -192l-231 -355h-152zM1400 389q73 0 120 44t47 112q0 67 -47.5 111t-119.5 44
t-120 -43.5t-48 -111.5q0 -67 48 -111.5t120 -44.5z" />
    <glyph glyph-name="uni2152" unicode="&#x2152;" horiz-adv-x="2509" 
d="M400 632h-127v635l-222 -89v125l349 140v-811zM435 0h-152l904 1434h152zM2063 812q147 0 245.5 -112t98.5 -300t-98.5 -299.5t-245.5 -111.5q-146 0 -244.5 112t-98.5 299q0 188 98.5 300t244.5 112zM1455 0h-127v635l-222 -89v125l349 140v-811zM2063 691
q-92 0 -152 -77.5t-60 -213.5t60 -213t152 -77q93 0 153 77t60 213t-60 213.5t-153 77.5z" />
    <glyph glyph-name="uni2153" unicode="&#x2153;" horiz-adv-x="1734" 
d="M400 632h-127v635l-222 -89v125l349 140v-811zM435 0h-152l904 1434h152zM1350 812q125 0 202.5 -61t77.5 -160q0 -67 -35 -115t-96 -73q69 -24 109 -72.5t40 -113.5q0 -74 -42.5 -127t-107 -77t-142.5 -24q-176 0 -271 108l74 84q76 -79 191 -79q72 0 119.5 32t47.5 93
q0 56 -50.5 88.5t-125.5 32.5h-102v113h102q70 0 114 31.5t44 88.5q0 54 -43.5 85.5t-112.5 31.5q-108 0 -178 -85l-75 81q92 118 260 118z" />
    <glyph glyph-name="uni2154" unicode="&#x2154;" horiz-adv-x="1874" 
d="M67 1308q100 136 268 136q123 0 194.5 -69.5t71.5 -180.5q0 -68 -29.5 -123t-88.5 -114l-205 -207h348v-118h-530v99l298 298q76 76 76 155q0 61 -39.5 100t-106.5 39q-99 0 -176 -94zM575 0h-152l904 1434h153zM1489 812q125 0 202.5 -61t77.5 -160q0 -67 -35 -115
t-96 -73q69 -24 109 -72.5t40 -113.5q0 -74 -42.5 -127t-107 -77t-142.5 -24q-175 0 -270 108l73 84q76 -79 191 -79q72 0 119.5 32t47.5 93q0 56 -50 88.5t-125 32.5h-103v113h103q69 0 113 31.5t44 88.5q0 54 -43 85.5t-112 31.5q-108 0 -178 -85l-76 81q92 118 260 118z
" />
    <glyph glyph-name="uni2155" unicode="&#x2155;" horiz-adv-x="1763" 
d="M400 632h-127v635l-222 -89v125l349 140v-811zM435 0h-152l904 1434h152zM1630 684h-344l-6 -194h96q142 0 219 -65.5t77 -171.5q0 -121 -82 -192.5t-209 -71.5q-176 0 -280 115l75 84q38 -38 92 -60.5t112 -22.5q75 0 118 38.5t43 100.5q0 61 -46 97t-144 36h-187
l13 424h453v-117z" />
    <glyph glyph-name="uni2156" unicode="&#x2156;" horiz-adv-x="1903" 
d="M67 1308q100 136 268 136q123 0 194.5 -69.5t71.5 -180.5q0 -68 -29.5 -123t-88.5 -114l-205 -207h348v-118h-530v99l298 298q76 76 76 155q0 61 -39.5 100t-106.5 39q-99 0 -176 -94zM575 0h-152l904 1434h153zM1769 684h-344l-6 -194h97q142 0 218.5 -65.5t76.5 -171.5
q0 -121 -81.5 -192.5t-208.5 -71.5q-177 0 -281 115l75 84q38 -38 92.5 -60.5t112.5 -22.5q75 0 117.5 38.5t42.5 100.5q0 61 -46 97t-144 36h-186l12 424h453v-117z" />
    <glyph glyph-name="uni2157" unicode="&#x2157;" horiz-adv-x="1876" 
d="M315 1444q125 0 203 -61t78 -160q0 -67 -35 -115t-96 -73q69 -24 108.5 -72t39.5 -114q0 -74 -42 -127t-106.5 -77t-142.5 -24q-176 0 -271 108l74 84q76 -79 190 -79q72 0 119.5 32t47.5 93q0 56 -50 88.5t-125 32.5h-102v113h102q70 0 114 31t44 88q0 54 -43.5 86
t-112.5 32q-108 0 -178 -85l-76 81q92 118 260 118zM549 0h-153l904 1434h153zM1743 684h-344l-6 -194h96q142 0 219 -65.5t77 -171.5q0 -121 -82 -192.5t-209 -71.5q-177 0 -281 115l75 84q38 -38 92.5 -60.5t112.5 -22.5q75 0 118 38.5t43 100.5q0 61 -46.5 97t-144.5 36
h-186l12 424h454v-117z" />
    <glyph glyph-name="uni2158" unicode="&#x2158;" horiz-adv-x="1882" 
d="M554 0h-153l905 1434h152zM542 903h124v-116h-124v-155h-127v155h-374v92l283 554h140l-274 -530h225v222h127v-222zM1749 684h-344l-6 -194h96q142 0 219 -65.5t77 -171.5q0 -121 -82 -192.5t-209 -71.5q-176 0 -280 115l74 84q38 -38 92.5 -60.5t112.5 -22.5
q75 0 118 38.5t43 100.5q0 61 -46.5 97t-144.5 36h-186l12 424h454v-117z" />
    <glyph glyph-name="uni2159" unicode="&#x2159;" horiz-adv-x="1674" 
d="M400 632h-127v635l-222 -89v125l349 140v-811zM435 0h-152l904 1434h152zM1261 511q30 8 66 8q124 0 203 -75t79 -187q0 -116 -85.5 -192t-214.5 -76t-214 75.5t-85 189.5q0 94 65 192l232 355h152zM1309 412q-72 0 -119.5 -44t-48.5 -112q0 -67 48 -111.5t120 -44.5
q73 0 120.5 44t47.5 112t-47.5 112t-120.5 44z" />
    <glyph glyph-name="uni215A" unicode="&#x215a;" horiz-adv-x="1808" 
d="M569 0h-152l904 1434h153zM596 1316h-344l-6 -194h96q142 0 219 -65.5t77 -171.5q0 -121 -82 -192.5t-209 -71.5q-176 0 -280 115l74 84q38 -38 92.5 -60.5t112.5 -22.5q75 0 118 38.5t43 100.5q0 61 -46.5 97t-144.5 36h-186l12 424h454v-117zM1395 511q30 8 66 8
q124 0 203 -75t79 -187q0 -116 -85.5 -192t-214.5 -76t-214 75.5t-85 189.5q0 94 65 192l232 355h152zM1443 412q-72 0 -119.5 -44t-48.5 -112q0 -67 48 -111.5t120 -44.5q73 0 120.5 44t47.5 112t-47.5 112t-120.5 44z" />
    <glyph glyph-name="oneeighth" unicode="&#x215b;" horiz-adv-x="1801" 
d="M400 632h-127v635l-222 -89v125l349 140v-811zM435 0h-152l904 1434h152zM1404 812q124 0 207 -59.5t83 -161.5q0 -129 -138 -185q71 -25 114.5 -72.5t43.5 -119.5q0 -104 -89 -164.5t-221 -60.5q-133 0 -221.5 60.5t-88.5 164.5q0 136 156 190q-137 54 -137 187
q0 102 83.5 161.5t207.5 59.5zM1404 701q-68 0 -112.5 -32t-44.5 -90t44.5 -90t112.5 -32q67 0 111.5 32t44.5 90t-44.5 90t-111.5 32zM1404 354q-74 0 -124 -34t-50 -93q0 -62 49.5 -96t124.5 -34q74 0 123.5 34t49.5 96q0 59 -49.5 93t-123.5 34z" />
    <glyph glyph-name="threeeighths" unicode="&#x215c;" horiz-adv-x="1913" 
d="M315 1444q125 0 203 -61t78 -160q0 -67 -35 -115t-96 -73q69 -24 108.5 -72t39.5 -114q0 -74 -42 -127t-106.5 -77t-142.5 -24q-176 0 -271 108l74 84q76 -79 190 -79q72 0 119.5 32t47.5 93q0 56 -50 88.5t-125 32.5h-102v113h102q70 0 114 31t44 88q0 54 -43.5 86
t-112.5 32q-108 0 -178 -85l-76 81q92 118 260 118zM549 0h-153l904 1434h153zM1517 812q124 0 206.5 -59.5t82.5 -161.5q0 -130 -137 -185q71 -25 114.5 -72.5t43.5 -119.5q0 -104 -89 -164.5t-221 -60.5q-133 0 -222 60.5t-89 164.5q0 136 157 190q-137 54 -137 187
q0 102 83.5 161.5t207.5 59.5zM1517 701q-68 0 -112.5 -32t-44.5 -90t44.5 -90t112.5 -32q67 0 111 32t44 90t-44 90t-111 32zM1517 354q-75 0 -125 -34t-50 -93q0 -62 50 -96t125 -34q74 0 123.5 34t49.5 96q0 59 -49.5 93t-123.5 34z" />
    <glyph glyph-name="fiveeighths" unicode="&#x215d;" horiz-adv-x="1935" 
d="M569 0h-152l904 1434h153zM596 1316h-344l-6 -194h96q142 0 219 -65.5t77 -171.5q0 -121 -82 -192.5t-209 -71.5q-176 0 -280 115l74 84q38 -38 92.5 -60.5t112.5 -22.5q75 0 118 38.5t43 100.5q0 61 -46.5 97t-144.5 36h-186l12 424h454v-117zM1538 812q124 0 207 -59.5
t83 -161.5q0 -130 -137 -185q71 -24 114 -72t43 -120q0 -104 -89 -164.5t-221 -60.5q-133 0 -221.5 60.5t-88.5 164.5q0 136 156 190q-137 54 -137 187q0 102 83.5 161.5t207.5 59.5zM1538 701q-68 0 -112.5 -32t-44.5 -90t44.5 -90t112.5 -32q67 0 111.5 32t44.5 90
t-44.5 90t-111.5 32zM1538 354q-74 0 -124 -34t-50 -93q0 -62 49.5 -96t124.5 -34q74 0 123.5 34t49.5 96q0 59 -49.5 93t-123.5 34z" />
    <glyph glyph-name="seveneighths" unicode="&#x215e;" horiz-adv-x="1776" 
d="M411 0h-153l904 1434h153zM628 1334l-348 -702h-150l348 683h-417v118h567v-99zM1379 812q124 0 207 -59.5t83 -161.5q0 -130 -137 -185q71 -25 114.5 -72.5t43.5 -119.5q0 -104 -89 -164.5t-222 -60.5t-221.5 60.5t-88.5 164.5q0 136 157 190q-137 54 -137 187
q0 102 83 161.5t207 59.5zM1379 701q-68 0 -112 -32t-44 -90t44 -90t112 -32q67 0 111.5 32t44.5 90t-44.5 90t-111.5 32zM1379 354q-74 0 -124 -34t-50 -93q0 -62 49.5 -96t124.5 -34q74 0 123.5 34t49.5 96q0 59 -49.5 93t-123.5 34z" />
    <glyph glyph-name="uni215F" unicode="&#x215f;" horiz-adv-x="1034" 
d="M400 632h-127v635l-222 -89v125l349 140v-811zM435 0h-152l904 1434h152z" />
    <glyph glyph-name="uni2189" unicode="&#x2189;" horiz-adv-x="1983" 
d="M445 1444q147 0 246 -112t99 -300q0 -187 -99 -299t-246 -112q-146 0 -244.5 112t-98.5 299q0 188 98.5 300t244.5 112zM684 0h-153l905 1434h152zM445 1323q-92 0 -152 -77.5t-60 -213.5t60 -213.5t152 -77.5q93 0 153 77.5t60 213.5t-60 213.5t-153 77.5zM1597 812
q125 0 203 -61t78 -160q0 -67 -35 -115t-96 -73q69 -24 108.5 -72t39.5 -114q0 -74 -42 -127t-106.5 -77t-142.5 -24q-176 0 -271 108l74 84q76 -79 190 -79q72 0 119.5 32t47.5 93q0 56 -50 88.5t-125 32.5h-102v113h102q70 0 114 31.5t44 88.5q0 54 -43.5 85.5
t-112.5 31.5q-108 0 -178 -85l-76 81q92 118 260 118z" />
    <glyph glyph-name="arrowleft" unicode="&#x2190;" horiz-adv-x="2048" 
d="M670 599q-108 0 -201 6q75 -60 196 -181l293 -294l-98 -98l-636 637l636 637l98 -99l-293 -294q-121 -121 -196 -181q93 6 201 6h1155v-139h-1155z" />
    <glyph glyph-name="arrowup" unicode="&#x2191;" horiz-adv-x="2048" 
d="M955 1075q0 89 6 202q-52 -66 -182 -196l-294 -295l-98 99l637 637l637 -637l-98 -99l-293 295q-6 6 -41.5 42t-51.5 52.5t-43 46.5t-47 55q7 -110 7 -202v-1154h-139v1154z" />
    <glyph glyph-name="arrowright" unicode="&#x2192;" horiz-adv-x="2048" 
d="M1378 738q108 0 201 -6q-67 55 -196 181l-293 294l98 99l637 -637l-637 -637l-98 98l293 294q129 126 196 181q-93 -6 -201 -6h-1154v139h1154z" />
    <glyph glyph-name="arrowdown" unicode="&#x2193;" horiz-adv-x="2048" 
d="M1094 366q0 -92 -7 -202q49 62 182 195l294 295l98 -98l-637 -637l-637 637l98 98l294 -295q133 -133 182 -195q-7 110 -7 202v1154h140v-1154z" />
    <glyph glyph-name="uni2196" unicode="&#x2196;" horiz-adv-x="2048" 
d="M699 880q-76 76 -138 146q10 -99 10 -266v-416h-138v900l900 1v-139h-415q-168 0 -267 10q71 -62 146 -137l817 -817l-98 -99z" />
    <glyph glyph-name="uni2197" unicode="&#x2197;" horiz-adv-x="2048" 
d="M1226 969q84 84 145 138q-98 -10 -266 -10h-416v138h901v-900h-139v416q0 167 11 266q-71 -80 -138 -147l-817 -816l-97 99z" />
    <glyph glyph-name="uni2198" unicode="&#x2198;" horiz-adv-x="2048" 
d="M1324 467q103 -105 138 -145q-10 99 -10 266v416h138v-902h-900v140h416q159 0 266 -12q-53 47 -145 139l-817 817l98 98z" />
    <glyph glyph-name="uni2199" unicode="&#x2199;" horiz-adv-x="2048" 
d="M799 358q-76 -76 -146 -138q98 10 267 10h415v-138h-901v900h139v-414q0 -169 -11 -268q71 80 138 147l818 817l97 -99z" />
    <glyph glyph-name="partialdiff" unicode="&#x2202;" horiz-adv-x="1220" 
d="M354 1485q128 -52 236 -121.5t184.5 -142.5t136.5 -155t96.5 -158.5t60.5 -154.5t33 -140t9 -118q0 -220 -146 -367t-365 -147t-364.5 141t-145.5 352q0 213 138.5 355.5t344.5 142.5q96 0 180.5 -41t143.5 -115q-141 345 -610 547zM599 827q-152 0 -252.5 -99
t-100.5 -253q0 -153 100.5 -252t252.5 -99t253 99t101 252q0 154 -100.5 253t-253.5 99z" />
    <glyph glyph-name="uni2205" unicode="&#x2205;" horiz-adv-x="1463" 
d="M1256 959l-131 -131q100 -136 100 -296q0 -203 -145 -348t-348 -145q-164 0 -297 99l-130 -131l-98 98l130 131q-99 133 -99 296q0 133 66 247t180 181t248 67q162 0 296 -100l130 131zM376 532q0 -114 64 -203l494 494q-90 65 -202 65q-148 0 -252 -104.5t-104 -251.5z
M732 178q146 0 250 103.5t104 250.5q0 112 -63 202l-493 -493q90 -63 202 -63z" />
    <glyph glyph-name="uni2206" unicode="&#x2206;" horiz-adv-x="1445" 
d="M1363 127v-127h-1280v127l539 1309h202zM268 156h910l-455 1113z" />
    <glyph glyph-name="product" unicode="&#x220f;" horiz-adv-x="1502" 
d="M1295 -271h-165v1549h-758v-1549h-165v1705h1088v-1705z" />
    <glyph glyph-name="summation" unicode="&#x2211;" horiz-adv-x="1345" 
d="M1219 1278h-850l567 -640v-91l-571 -663h857v-155h-1098v128l637 732l-633 717v128h1091v-156z" />
    <glyph glyph-name="minus" unicode="&#x2212;" horiz-adv-x="1228" 
d="M1060 472h-891v139h891v-139z" />
    <glyph glyph-name="uni2219" unicode="&#x2219;" horiz-adv-x="1228" 
d="M614 774q96 0 164.5 -68t68.5 -164t-69 -164.5t-164 -68.5q-97 0 -164.5 68.5t-67.5 164.5q0 97 67.5 164.5t164.5 67.5z" />
    <glyph glyph-name="radical" unicode="&#x221a;" horiz-adv-x="1267" 
d="M644 -271h-204l-409 1024h181l330 -831l521 1553h168z" />
    <glyph glyph-name="infinity" unicode="&#x221e;" horiz-adv-x="1681" 
d="M53 532q0 173 108 280.5t262 107.5q40 0 75.5 -8t73 -30.5t62.5 -39.5t68 -60t64 -65.5t74 -80.5q51 57 73.5 80.5t64.5 65.5t68 60t63 40t72.5 30t74.5 8q154 0 262.5 -107.5t108.5 -280.5t-108 -280t-263 -107q-39 0 -74.5 8t-72.5 30t-63 40t-68 60t-64.5 65.5
t-73.5 80.5q-53 -58 -74 -80.5t-64 -65.5t-68 -60t-62.5 -39.5t-73 -30.5t-75.5 -8q-154 0 -262 107t-108 280zM199 532q0 -115 63.5 -181t160.5 -66q36 0 68 12.5t73 48t75 71t99 106.5q5 6 8 9q-127 143 -191 195.5t-132 52.5q-96 0 -160 -66.5t-64 -181.5zM1481 532
q0 115 -64 181.5t-161 66.5q-46 0 -95.5 -30.5t-87.5 -68.5t-127 -136q-8 -9 -12 -13q132 -145 178 -184q75 -63 144 -63q97 0 161 66t64 181z" />
    <glyph glyph-name="integral" unicode="&#x222b;" horiz-adv-x="683" 
d="M626 1302q-35 8 -66 8q-170 0 -170 -206v-1046q0 -160 -77 -254.5t-236 -94.5q-63 0 -117 12l42 140q32 -8 65 -8q170 0 170 205v1046q0 160 77 254.5t236 94.5q63 0 117 -12z" />
    <glyph glyph-name="congruent" unicode="&#x2245;" horiz-adv-x="1228" 
d="M1073 1124q-58 -62 -121 -91t-149 -29q-80 0 -144.5 22t-122 44t-121.5 22q-48 0 -89 -20.5t-87 -64.5l-83 96q57 62 120 91.5t149 29.5q81 0 145 -22t121.5 -44t121.5 -22q48 0 89 20.5t87 64.5zM1060 662h-891v139h891v-139zM1060 283h-891v139h891v-139z" />
    <glyph glyph-name="approxequal" unicode="&#x2248;" horiz-adv-x="1228" 
d="M1073 740q-58 -62 -121 -91t-149 -29q-80 0 -144.5 22t-122 44t-121.5 22q-48 0 -89 -20.5t-87 -64.5l-83 96q57 62 120 91.5t149 29.5q81 0 145 -22t121.5 -44t121.5 -22q48 0 89 20.5t87 64.5zM1073 365q-58 -62 -121 -91.5t-149 -29.5q-80 0 -144.5 22t-122 44
t-121.5 22q-48 0 -89 -20.5t-87 -64.5l-83 96q57 62 120 91.5t149 29.5q81 0 145 -22t121.5 -44t121.5 -22q48 0 89 20.5t87 64.5z" />
    <glyph glyph-name="uni2259" unicode="&#x2259;" horiz-adv-x="1228" 
d="M793 987l-179 194l-179 -194h-164l241 295h205l239 -295h-163zM1060 662h-891v139h891v-139zM1060 283h-891v139h891v-139z" />
    <glyph glyph-name="notequal" unicode="&#x2260;" horiz-adv-x="1228" 
d="M1060 283h-499l-126 -258h-146l126 258h-246v139h313l117 240h-430v139h499l126 258h146l-126 -258h246v-139h-315l-116 -240h431v-139z" />
    <glyph glyph-name="lessequal" unicode="&#x2264;" horiz-adv-x="1228" 
d="M1018 952l-641 -259l641 -259v-162l-806 345v151l806 346v-162zM212 185h806v-139h-806v139z" />
    <glyph glyph-name="greaterequal" unicode="&#x2265;" horiz-adv-x="1228" 
d="M212 1114l806 -346v-151l-806 -345v162l641 259l-641 259v162zM1018 46h-806v139h806v-139z" />
    <glyph glyph-name="dotmath" unicode="&#x22c5;" horiz-adv-x="1228" 
d="M615 670q51 0 89 -37.5t38 -89.5t-38 -90.5t-89 -38.5q-52 0 -90.5 38.5t-38.5 90.5t38.5 89.5t90.5 37.5z" />
    <glyph glyph-name="uni2460" unicode="&#x2460;" horiz-adv-x="2099" 
d="M1050 1620q185 0 353 -71.5t289.5 -192.5t193 -287.5t71.5 -350.5q0 -123 -32.5 -240t-91 -216t-142 -182.5t-183 -142t-217 -91t-241.5 -32.5q-185 0 -353 71.5t-289.5 192.5t-193.5 288.5t-72 351.5q0 183 72 350t193.5 288t289.5 192.5t353 71.5zM1050 1478
q-155 0 -295.5 -60t-242.5 -161.5t-162 -242.5t-60 -296t60 -296t162 -243t242.5 -162.5t295.5 -60.5t295.5 60.5t242.5 162.5t162 243t60 296t-60 296t-162 242.5t-242.5 161.5t-295.5 60zM1167 297h-136v687l-264 -105v135l400 158v-875z" />
    <glyph glyph-name="uni2461" unicode="&#x2461;" horiz-adv-x="2099" 
d="M1050 1620q185 0 353 -71.5t289.5 -192.5t193 -287.5t71.5 -350.5q0 -123 -32.5 -240t-91 -216t-142 -182.5t-183 -142t-217 -91t-241.5 -32.5q-185 0 -353 71.5t-289.5 192.5t-193.5 288.5t-72 351.5q0 183 72 350t193.5 288t289.5 192.5t353 71.5zM1050 1478
q-155 0 -295.5 -60t-242.5 -161.5t-162 -242.5t-60 -296t60 -296t162 -243t242.5 -162.5t295.5 -60.5t295.5 60.5t242.5 162.5t162 243t60 296t-60 296t-162 242.5t-242.5 161.5t-295.5 60zM753 1026q108 148 293 148q135 0 213.5 -75.5t78.5 -196.5q0 -74 -34.5 -134
t-97.5 -121l-226 -223h384v-127h-581v106l329 322q84 84 84 168q0 66 -44 108t-118 42q-109 0 -191 -101z" />
    <glyph glyph-name="uni2462" unicode="&#x2462;" horiz-adv-x="2099" 
d="M1050 1620q185 0 353 -71.5t289.5 -192.5t193 -287.5t71.5 -350.5q0 -123 -32.5 -240t-91 -216t-142 -182.5t-183 -142t-217 -91t-241.5 -32.5q-185 0 -353 71.5t-289.5 192.5t-193.5 288.5t-72 351.5q0 183 72 350t193.5 288t289.5 192.5t353 71.5zM1050 1478
q-155 0 -295.5 -60t-242.5 -161.5t-162 -242.5t-60 -296t60 -296t162 -243t242.5 -162.5t295.5 -60.5t295.5 60.5t242.5 162.5t162 243t60 296t-60 296t-162 242.5t-242.5 161.5t-295.5 60zM1036 1174q139 0 226.5 -66.5t87.5 -172.5q0 -73 -40 -125t-111 -77
q78 -25 123.5 -77.5t45.5 -124.5q0 -118 -95 -182t-231 -64q-190 0 -296 115l79 89q85 -85 211 -85q81 0 136.5 35.5t55.5 100.5q0 63 -56.5 99t-141.5 36h-115v118h116q78 0 128 34.5t50 96.5q0 58 -50 93t-130 35q-117 0 -195 -91l-83 87q102 126 285 126z" />
    </font>
</defs>
</svg>
